<svg width="405" height="201" viewBox="0 0 405 201" fill="none" xmlns="http://www.w3.org/2000/svg">
<path d="M2 2H403V199H2V2Z" fill="white" stroke="black" stroke-width="4"/>
<path d="M42.7521 97V60.6364H51.5412V75.2315H65.87V60.6364H74.6413V97H65.87V82.3871H51.5412V97H42.7521ZM86.9109 60.6364L95.043 87.2699H95.3448L103.477 60.6364H113.314L101.044 97H89.3434L77.0742 60.6364H86.9109ZM118.175 97H108.729L120.998 60.6364H132.699L144.968 97H135.522L126.981 69.7983H126.697L118.175 97ZM116.914 82.6889H136.658V89.3651H116.914V82.6889ZM160.824 97H147.383V60.6364H160.806C164.511 60.6364 167.701 61.3643 170.377 62.8203C173.064 64.2644 175.135 66.3478 176.591 69.0703C178.047 71.781 178.775 75.0244 178.775 78.8004C178.775 82.5883 178.047 85.8435 176.591 88.5661C175.147 91.2886 173.081 93.3778 170.394 94.8338C167.707 96.2779 164.517 97 160.824 97ZM156.172 89.5071H160.487C162.523 89.5071 164.245 89.1638 165.654 88.4773C167.074 87.7789 168.145 86.6484 168.867 85.0859C169.601 83.5116 169.968 81.4164 169.968 78.8004C169.968 76.1844 169.601 74.1011 168.867 72.5504C168.133 70.9879 167.05 69.8634 165.618 69.1768C164.198 68.4785 162.446 68.1293 160.362 68.1293H156.172V89.5071ZM215.512 72.5149C215.311 71.7692 215.015 71.1122 214.624 70.544C214.234 69.964 213.754 69.4728 213.186 69.0703C212.618 68.6679 211.967 68.366 211.233 68.1648C210.499 67.9517 209.694 67.8452 208.818 67.8452C207.055 67.8452 205.528 68.2713 204.237 69.1236C202.959 69.9759 201.971 71.2187 201.272 72.8523C200.574 74.474 200.225 76.4448 200.225 78.7649C200.225 81.0968 200.562 83.0855 201.237 84.7308C201.911 86.3762 202.888 87.6309 204.166 88.495C205.445 89.3591 206.995 89.7912 208.818 89.7912C210.428 89.7912 211.789 89.5308 212.902 89.0099C214.027 88.4773 214.879 87.7256 215.459 86.755C216.039 85.7843 216.329 84.642 216.329 83.3281L217.963 83.5234H209.12V77.1136H224.798V81.9254C224.798 85.1806 224.106 87.9683 222.721 90.2884C221.348 92.6084 219.454 94.3899 217.039 95.6328C214.636 96.8757 211.872 97.4972 208.747 97.4972C205.279 97.4972 202.231 96.7455 199.603 95.2422C196.975 93.7389 194.927 91.5964 193.46 88.8146C191.992 86.0211 191.258 82.7067 191.258 78.8714C191.258 75.8885 191.702 73.2429 192.59 70.9347C193.477 68.6146 194.714 66.6496 196.301 65.0398C197.899 63.4299 199.745 62.2107 201.84 61.3821C203.947 60.5535 206.214 60.1392 208.641 60.1392C210.748 60.1392 212.707 60.4411 214.518 61.0447C216.341 61.6484 217.951 62.5007 219.347 63.6016C220.756 64.7024 221.898 66.0104 222.774 67.5256C223.65 69.0407 224.195 70.7038 224.408 72.5149H215.512ZM235.221 97H225.775L238.045 60.6364H249.746L262.015 97H252.569L244.028 69.7983H243.744L235.221 97ZM233.961 82.6889H253.705V89.3651H233.961V82.6889ZM243.904 58.6655C242.353 58.6655 241.033 58.1387 239.944 57.0852C238.855 56.0199 238.311 54.7415 238.311 53.25C238.311 52.2557 238.559 51.3501 239.057 50.5334C239.566 49.7166 240.24 49.0656 241.081 48.5803C241.933 48.0949 242.868 47.8523 243.886 47.8523C244.928 47.8523 245.869 48.0949 246.709 48.5803C247.55 49.0656 248.219 49.7166 248.716 50.5334C249.213 51.3501 249.461 52.2557 249.461 53.25C249.461 54.2443 249.213 55.1558 248.716 55.9844C248.219 56.8011 247.55 57.4522 246.709 57.9375C245.869 58.4228 244.934 58.6655 243.904 58.6655ZM243.886 55.4872C244.525 55.4754 245.076 55.2564 245.537 54.8303C245.999 54.3923 246.23 53.8655 246.23 53.25C246.23 52.6345 245.999 52.1077 245.537 51.6697C245.088 51.2318 244.537 51.0187 243.886 51.0305C243.247 51.0424 242.697 51.2614 242.235 51.6875C241.785 52.1136 241.56 52.6345 241.56 53.25C241.56 53.8655 241.785 54.3923 242.235 54.8303C242.697 55.2682 243.247 55.4872 243.886 55.4872ZM264.43 97V60.6364H279.451C282.174 60.6364 284.523 61.1276 286.5 62.1101C288.489 63.0807 290.022 64.4775 291.099 66.3004C292.176 68.1115 292.715 70.2599 292.715 72.7457C292.715 75.267 292.164 77.4096 291.063 79.1733C289.963 80.9252 288.4 82.2628 286.376 83.1861C284.352 84.0975 281.955 84.5533 279.185 84.5533H269.686V77.6286H277.551C278.877 77.6286 279.984 77.4569 280.872 77.1136C281.771 76.7585 282.452 76.2259 282.914 75.5156C283.375 74.7936 283.606 73.8703 283.606 72.7457C283.606 71.6212 283.375 70.692 282.914 69.9581C282.452 69.2124 281.771 68.656 280.872 68.2891C279.972 67.9103 278.865 67.7209 277.551 67.7209H273.219V97H264.43ZM284.902 80.3807L293.958 97H284.369L275.492 80.3807H284.902ZM62.4077 121.538C62.2893 120.236 61.7625 119.224 60.8274 118.502C59.9041 117.768 58.5843 117.401 56.8679 117.401C55.7315 117.401 54.7846 117.549 54.027 117.845C53.2694 118.141 52.7012 118.549 52.3224 119.07C51.9437 119.579 51.7483 120.165 51.7365 120.828C51.7128 121.373 51.8194 121.852 52.0561 122.266C52.3047 122.681 52.6598 123.048 53.1214 123.367C53.5949 123.675 54.1631 123.947 54.826 124.184C55.4889 124.421 56.2346 124.628 57.0632 124.805L60.1882 125.516C61.9875 125.906 63.5736 126.427 64.9467 127.078C66.3317 127.729 67.4917 128.504 68.4268 129.404C69.3738 130.304 70.09 131.339 70.5753 132.511C71.0606 133.683 71.3092 134.997 71.321 136.453C71.3092 138.75 70.7292 140.72 69.581 142.366C68.4328 144.011 66.7815 145.272 64.6271 146.148C62.4846 147.024 59.8982 147.462 56.8679 147.462C53.8258 147.462 51.1742 147.006 48.9134 146.094C46.6525 145.183 44.8946 143.798 43.6399 141.94C42.3852 140.081 41.7401 137.732 41.7045 134.891H50.1207C50.1918 136.062 50.5054 137.039 51.0618 137.82C51.6181 138.602 52.3816 139.193 53.3523 139.596C54.3348 139.998 55.4711 140.2 56.7614 140.2C57.9451 140.2 58.9512 140.04 59.7798 139.72C60.6203 139.401 61.2654 138.957 61.7152 138.388C62.165 137.82 62.3958 137.169 62.4077 136.435C62.3958 135.749 62.1828 135.163 61.7685 134.678C61.3542 134.18 60.715 133.754 59.8509 133.399C58.9986 133.032 57.9096 132.695 56.5838 132.387L52.7841 131.499C49.6354 130.777 47.1555 129.611 45.3445 128.001C43.5334 126.38 42.6338 124.19 42.6456 121.432C42.6338 119.183 43.2375 117.212 44.4567 115.519C45.6759 113.826 47.3627 112.507 49.517 111.56C51.6714 110.613 54.1276 110.139 56.8857 110.139C59.7029 110.139 62.1473 110.619 64.2188 111.577C66.3021 112.524 67.9179 113.856 69.0661 115.572C70.2143 117.289 70.8002 119.277 70.8239 121.538H62.4077ZM73.0703 117.774V110.636H103.805V117.774H92.7791V147H84.1143V117.774H73.0703ZM110.602 148.829L106.873 146.308L133.187 108.879L136.898 111.4L110.602 148.829ZM139.259 128.818C139.259 132.819 138.49 136.21 136.951 138.992C135.412 141.774 133.329 143.887 130.701 145.331C128.085 146.775 125.15 147.497 121.894 147.497C118.627 147.497 115.686 146.769 113.07 145.313C110.454 143.857 108.376 141.744 106.838 138.974C105.311 136.193 104.547 132.807 104.547 128.818C104.547 124.817 105.311 121.426 106.838 118.644C108.376 115.862 110.454 113.75 113.07 112.305C115.686 110.861 118.627 110.139 121.894 110.139C125.15 110.139 128.085 110.861 130.701 112.305C133.329 113.75 135.412 115.862 136.951 118.644C138.49 121.426 139.259 124.817 139.259 128.818ZM130.275 128.818C130.275 126.451 129.938 124.45 129.263 122.817C128.6 121.183 127.641 119.946 126.387 119.106C125.144 118.265 123.646 117.845 121.894 117.845C120.154 117.845 118.657 118.265 117.402 119.106C116.147 119.946 115.183 121.183 114.508 122.817C113.845 124.45 113.514 126.451 113.514 128.818C113.514 131.186 113.845 133.186 114.508 134.82C115.183 136.453 116.147 137.69 117.402 138.531C118.657 139.371 120.154 139.791 121.894 139.791C123.646 139.791 125.144 139.371 126.387 138.531C127.641 137.69 128.6 136.453 129.263 134.82C129.938 133.186 130.275 131.186 130.275 128.818ZM140.041 117.774V110.636H170.776V117.774H159.75V147H151.085V117.774H140.041ZM172.379 117.774V110.636H203.114V117.774H192.088V147H183.423V117.774H172.379ZM205.906 147V110.636H231.262V117.774H214.695V125.232H229.965V132.387H214.695V139.862H231.262V147H205.906ZM266.214 110.636V147H258.757L244.286 126.013H244.055V147H235.266V110.636H242.83L257.141 131.588H257.443V110.636H266.214ZM278.293 117.774V110.636H309.028V117.774H298.002V147H289.337V117.774H278.293ZM320.61 110.636V147H311.82V110.636H320.61ZM324.627 147V110.636H333.416V139.862H348.544V147H324.627ZM358.43 135.867V135.139C358.43 133.127 358.596 131.523 358.927 130.327C359.27 129.132 359.767 128.173 360.419 127.451C361.07 126.717 361.863 126.048 362.798 125.445C363.544 124.971 364.206 124.492 364.786 124.006C365.378 123.509 365.846 122.977 366.189 122.408C366.532 121.84 366.704 121.195 366.704 120.473C366.704 119.775 366.538 119.159 366.207 118.626C365.875 118.094 365.42 117.685 364.84 117.401C364.271 117.105 363.638 116.957 362.94 116.957C362.241 116.957 361.584 117.117 360.969 117.437C360.365 117.756 359.868 118.212 359.477 118.804C359.099 119.384 358.903 120.088 358.892 120.917H350.724C350.759 118.431 351.334 116.395 352.446 114.809C353.571 113.223 355.056 112.051 356.903 111.293C358.749 110.524 360.785 110.139 363.011 110.139C365.449 110.139 367.615 110.518 369.509 111.276C371.415 112.033 372.913 113.152 374.002 114.631C375.091 116.111 375.635 117.922 375.635 120.065C375.635 121.473 375.398 122.716 374.925 123.793C374.451 124.871 373.789 125.823 372.936 126.652C372.096 127.469 371.107 128.214 369.971 128.889C369.083 129.41 368.343 129.955 367.752 130.523C367.172 131.091 366.734 131.742 366.438 132.476C366.142 133.198 365.994 134.086 365.994 135.139V135.867H358.43ZM362.354 147.515C361.075 147.515 359.981 147.065 359.069 146.165C358.169 145.266 357.726 144.177 357.737 142.898C357.726 141.644 358.169 140.572 359.069 139.685C359.981 138.785 361.075 138.335 362.354 138.335C363.573 138.335 364.644 138.785 365.568 139.685C366.491 140.572 366.959 141.644 366.97 142.898C366.959 143.751 366.734 144.526 366.296 145.224C365.869 145.923 365.307 146.479 364.609 146.893C363.922 147.308 363.171 147.515 362.354 147.515Z" fill="black"/>
</svg>
