<svg width="310" height="213" viewBox="0 0 310 213" fill="none" xmlns="http://www.w3.org/2000/svg">
<path d="M2 2H308V210.695H2V2Z" fill="white" stroke="black" stroke-width="4"/>
<path d="M66.1932 77H52.7521V40.6364H66.1754C69.8804 40.6364 73.0705 41.3643 75.7457 42.8203C78.4328 44.2644 80.5043 46.3478 81.9602 49.0703C83.4162 51.781 84.1442 55.0244 84.1442 58.8004C84.1442 62.5883 83.4162 65.8435 81.9602 68.5661C80.5161 71.2886 78.4505 73.3778 75.7635 74.8338C73.0765 76.2779 69.8864 77 66.1932 77ZM61.5412 69.5071H65.8558C67.8918 69.5071 69.6141 69.1638 71.0227 68.4773C72.4432 67.7789 73.5144 66.6484 74.2365 65.0859C74.9704 63.5116 75.3374 61.4164 75.3374 58.8004C75.3374 56.1844 74.9704 54.1011 74.2365 52.5504C73.5026 50.9879 72.4195 49.8634 70.9872 49.1768C69.5668 48.4785 67.8149 48.1293 65.7315 48.1293H61.5412V69.5071ZM122.097 58.8182C122.097 62.8191 121.328 66.2105 119.789 68.9922C118.25 71.7739 116.167 73.8868 113.539 75.331C110.923 76.7751 107.987 77.4972 104.732 77.4972C101.465 77.4972 98.5237 76.7692 95.9077 75.3132C93.2917 73.8572 91.2143 71.7443 89.6754 68.9744C88.1484 66.1927 87.3849 62.8073 87.3849 58.8182C87.3849 54.8172 88.1484 51.4259 89.6754 48.6442C91.2143 45.8625 93.2917 43.7495 95.9077 42.3054C98.5237 40.8613 101.465 40.1392 104.732 40.1392C107.987 40.1392 110.923 40.8613 113.539 42.3054C116.167 43.7495 118.25 45.8625 119.789 48.6442C121.328 51.4259 122.097 54.8172 122.097 58.8182ZM113.113 58.8182C113.113 56.4508 112.776 54.4503 112.101 52.8168C111.438 51.1832 110.479 49.9463 109.224 49.1058C107.982 48.2654 106.484 47.8452 104.732 47.8452C102.992 47.8452 101.495 48.2654 100.24 49.1058C98.9853 49.9463 98.0206 51.1832 97.3459 52.8168C96.683 54.4503 96.3516 56.4508 96.3516 58.8182C96.3516 61.1856 96.683 63.1861 97.3459 64.8196C98.0206 66.4531 98.9853 67.6901 100.24 68.5305C101.495 69.371 102.992 69.7912 104.732 69.7912C106.484 69.7912 107.982 69.371 109.224 68.5305C110.479 67.6901 111.438 66.4531 112.101 64.8196C112.776 63.1861 113.113 61.1856 113.113 58.8182ZM156.677 40.6364V77H149.219L134.749 56.0128H134.518V77H125.729V40.6364H133.293L147.604 61.5881H147.906V40.6364H156.677ZM160.703 77V40.6364H186.058V47.7741H169.492V55.2315H184.762V62.3871H169.492V69.8622H186.058V77H160.703ZM170.469 37.174L174.056 29.1662H181.744L176.382 37.174H170.469ZM190.063 77V40.6364H205.084C207.807 40.6364 210.156 41.1276 212.133 42.1101C214.122 43.0807 215.655 44.4775 216.732 46.3004C217.809 48.1115 218.347 50.2599 218.347 52.7457C218.347 55.267 217.797 57.4096 216.696 59.1733C215.595 60.9252 214.033 62.2628 212.009 63.1861C209.985 64.0975 207.588 64.5533 204.818 64.5533H195.318V57.6286H203.184C204.51 57.6286 205.617 57.4569 206.504 57.1136C207.404 56.7585 208.085 56.2259 208.546 55.5156C209.008 54.7936 209.239 53.8703 209.239 52.7457C209.239 51.6212 209.008 50.692 208.546 49.9581C208.085 49.2124 207.404 48.656 206.504 48.2891C205.605 47.9103 204.498 47.7209 203.184 47.7209H198.852V77H190.063ZM210.535 60.3807L219.59 77H210.002L201.124 60.3807H210.535ZM61.0085 90.6364L69.1406 117.27H69.4425L77.5746 90.6364H87.4112L75.142 127H63.4411L51.1719 90.6364H61.0085ZM92.2722 127H82.8262L95.0953 90.6364H106.796L119.066 127H109.619L101.079 99.7983H100.795L92.2722 127ZM91.0115 112.689H110.756V119.365H91.0115V112.689ZM121.481 127V90.6364H130.27V119.862H145.398V127H121.481ZM170.895 102.515C170.694 101.769 170.398 101.112 170.007 100.544C169.617 99.964 169.137 99.4728 168.569 99.0703C168.001 98.6679 167.35 98.366 166.616 98.1648C165.882 97.9517 165.077 97.8452 164.201 97.8452C162.437 97.8452 160.91 98.2713 159.62 99.1236C158.342 99.9759 157.353 101.219 156.655 102.852C155.957 104.474 155.607 106.445 155.607 108.765C155.607 111.097 155.945 113.085 156.619 114.731C157.294 116.376 158.271 117.631 159.549 118.495C160.828 119.359 162.378 119.791 164.201 119.791C165.811 119.791 167.172 119.531 168.285 119.01C169.41 118.477 170.262 117.726 170.842 116.755C171.422 115.784 171.712 114.642 171.712 113.328L173.345 113.523H164.503V107.114H180.181V111.925C180.181 115.181 179.489 117.968 178.104 120.288C176.731 122.608 174.837 124.39 172.422 125.633C170.019 126.876 167.255 127.497 164.13 127.497C160.662 127.497 157.614 126.746 154.986 125.242C152.358 123.739 150.31 121.596 148.843 118.815C147.375 116.021 146.641 112.707 146.641 108.871C146.641 105.888 147.085 103.243 147.972 100.935C148.86 98.6146 150.097 96.6496 151.683 95.0398C153.281 93.4299 155.128 92.2107 157.223 91.3821C159.33 90.5535 161.597 90.1392 164.024 90.1392C166.131 90.1392 168.09 90.4411 169.901 91.0447C171.724 91.6484 173.334 92.5007 174.73 93.6016C176.139 94.7024 177.281 96.0104 178.157 97.5256C179.033 99.0407 179.578 100.704 179.791 102.515H170.895ZM183.862 127V90.6364H208.684V97.7741H192.651V105.232H207.104V112.387H192.651V127H183.862ZM211.61 127V90.6364H226.631C229.353 90.6364 231.703 91.1276 233.68 92.1101C235.669 93.0807 237.201 94.4775 238.279 96.3004C239.356 98.1115 239.894 100.26 239.894 102.746C239.894 105.267 239.344 107.41 238.243 109.173C237.142 110.925 235.58 112.263 233.556 113.186C231.531 114.098 229.134 114.553 226.365 114.553H216.865V107.629H224.731C226.057 107.629 227.164 107.457 228.051 107.114C228.951 106.759 229.632 106.226 230.093 105.516C230.555 104.794 230.786 103.87 230.786 102.746C230.786 101.621 230.555 100.692 230.093 99.9581C229.632 99.2124 228.951 98.656 228.051 98.2891C227.152 97.9103 226.045 97.7209 224.731 97.7209H220.399V127H211.61ZM232.082 110.381L241.137 127H231.549L222.671 110.381H232.082ZM252.004 90.6364V127H243.215V90.6364H252.004ZM254.832 97.7741V90.6364H285.567V97.7741H274.541V127H265.876V97.7741H254.832ZM52.7521 177V140.636H67.9155C70.638 140.636 72.9167 141.021 74.7514 141.79C76.598 142.56 77.983 143.637 78.9062 145.022C79.8414 146.407 80.3089 148.011 80.3089 149.834C80.3089 151.219 80.0189 152.456 79.4389 153.545C78.8589 154.622 78.0599 155.516 77.0419 156.226C76.0239 156.936 74.8461 157.433 73.5085 157.717V158.072C74.9763 158.143 76.3317 158.54 77.5746 159.262C78.8293 159.984 79.8355 160.99 80.593 162.281C81.3506 163.559 81.7294 165.074 81.7294 166.826C81.7294 168.779 81.2322 170.525 80.2379 172.064C79.2436 173.591 77.8054 174.798 75.9233 175.686C74.0412 176.562 71.7566 177 69.0696 177H52.7521ZM61.5412 169.915H66.9744C68.8802 169.915 70.2829 169.554 71.1825 168.832C72.094 168.11 72.5497 167.104 72.5497 165.814C72.5497 164.879 72.3307 164.074 71.8928 163.399C71.4548 162.713 70.8333 162.186 70.0284 161.819C69.2235 161.44 68.2588 161.251 67.1342 161.251H61.5412V169.915ZM61.5412 155.587H66.4062C67.3651 155.587 68.2173 155.427 68.9631 155.107C69.7088 154.788 70.2888 154.326 70.7031 153.722C71.1293 153.119 71.3423 152.391 71.3423 151.538C71.3423 150.319 70.9103 149.36 70.0462 148.662C69.1821 147.964 68.0161 147.614 66.5483 147.614H61.5412V155.587ZM84.4553 177V140.636H109.81V147.774H93.2443V155.232H108.514V162.387H93.2443V169.862H109.81V177H84.4553ZM113.815 177V140.636H122.604V169.862H137.732V177H113.815ZM145.029 178.829L141.301 176.308L167.615 138.879L171.326 141.4L145.029 178.829ZM173.687 158.818C173.687 162.819 172.918 166.21 171.379 168.992C169.84 171.774 167.757 173.887 165.129 175.331C162.513 176.775 159.577 177.497 156.322 177.497C153.055 177.497 150.114 176.769 147.498 175.313C144.882 173.857 142.804 171.744 141.265 168.974C139.738 166.193 138.975 162.807 138.975 158.818C138.975 154.817 139.738 151.426 141.265 148.644C142.804 145.862 144.882 143.75 147.498 142.305C150.114 140.861 153.055 140.139 156.322 140.139C159.577 140.139 162.513 140.861 165.129 142.305C167.757 143.75 169.84 145.862 171.379 148.644C172.918 151.426 173.687 154.817 173.687 158.818ZM164.703 158.818C164.703 156.451 164.365 154.45 163.691 152.817C163.028 151.183 162.069 149.946 160.814 149.106C159.571 148.265 158.074 147.845 156.322 147.845C154.582 147.845 153.085 148.265 151.83 149.106C150.575 149.946 149.61 151.183 148.936 152.817C148.273 154.45 147.941 156.451 147.941 158.818C147.941 161.186 148.273 163.186 148.936 164.82C149.61 166.453 150.575 167.69 151.83 168.531C153.085 169.371 154.582 169.791 156.322 169.791C158.074 169.791 159.571 169.371 160.814 168.531C162.069 167.69 163.028 166.453 163.691 164.82C164.365 163.186 164.703 161.186 164.703 158.818ZM177.319 177V140.636H192.482C195.204 140.636 197.483 141.021 199.318 141.79C201.164 142.56 202.549 143.637 203.473 145.022C204.408 146.407 204.875 148.011 204.875 149.834C204.875 151.219 204.585 152.456 204.005 153.545C203.425 154.622 202.626 155.516 201.608 156.226C200.59 156.936 199.413 157.433 198.075 157.717V158.072C199.543 158.143 200.898 158.54 202.141 159.262C203.396 159.984 204.402 160.99 205.159 162.281C205.917 163.559 206.296 165.074 206.296 166.826C206.296 168.779 205.799 170.525 204.804 172.064C203.81 173.591 202.372 174.798 200.49 175.686C198.608 176.562 196.323 177 193.636 177H177.319ZM186.108 169.915H191.541C193.447 169.915 194.849 169.554 195.749 168.832C196.66 168.11 197.116 167.104 197.116 165.814C197.116 164.879 196.897 164.074 196.459 163.399C196.021 162.713 195.4 162.186 194.595 161.819C193.79 161.44 192.825 161.251 191.701 161.251H186.108V169.915ZM186.108 155.587H190.973C191.931 155.587 192.784 155.427 193.529 155.107C194.275 154.788 194.855 154.326 195.27 153.722C195.696 153.119 195.909 152.391 195.909 151.538C195.909 150.319 195.477 149.36 194.613 148.662C193.748 147.964 192.583 147.614 191.115 147.614H186.108V155.587Z" fill="black"/>
</svg>
