<svg width="405" height="201" viewBox="0 0 405 201" fill="none" xmlns="http://www.w3.org/2000/svg">
<path d="M2 2H403V199H2V2Z" fill="white" stroke="black" stroke-width="4"/>
<path d="M42.7521 69V32.6364H51.5412V47.2315H65.87V32.6364H74.6413V69H65.87V54.3871H51.5412V69H42.7521ZM86.9109 32.6364L95.043 59.2699H95.3448L103.477 32.6364H113.314L101.044 69H89.3434L77.0742 32.6364H86.9109ZM147.902 50.8182C147.902 54.8191 147.133 58.2105 145.594 60.9922C144.055 63.7739 141.972 65.8868 139.344 67.331C136.728 68.7751 133.792 69.4972 130.537 69.4972C127.27 69.4972 124.328 68.7692 121.712 67.3132C119.096 65.8572 117.019 63.7443 115.48 60.9744C113.953 58.1927 113.19 54.8073 113.19 50.8182C113.19 46.8172 113.953 43.4259 115.48 40.6442C117.019 37.8625 119.096 35.7495 121.712 34.3054C124.328 32.8613 127.27 32.1392 130.537 32.1392C133.792 32.1392 136.728 32.8613 139.344 34.3054C141.972 35.7495 144.055 37.8625 145.594 40.6442C147.133 43.4259 147.902 46.8172 147.902 50.8182ZM138.918 50.8182C138.918 48.4508 138.58 46.4503 137.906 44.8168C137.243 43.1832 136.284 41.9463 135.029 41.1058C133.786 40.2654 132.289 39.8452 130.537 39.8452C128.797 39.8452 127.299 40.2654 126.045 41.1058C124.79 41.9463 123.825 43.1832 123.151 44.8168C122.488 46.4503 122.156 48.4508 122.156 50.8182C122.156 53.1856 122.488 55.1861 123.151 56.8196C123.825 58.4531 124.79 59.6901 126.045 60.5305C127.299 61.371 128.797 61.7912 130.537 61.7912C132.289 61.7912 133.786 61.371 135.029 60.5305C136.284 59.6901 137.243 58.4531 137.906 56.8196C138.58 55.1861 138.918 53.1856 138.918 50.8182ZM151.533 69V32.6364H166.555C169.277 32.6364 171.627 33.1276 173.604 34.1101C175.592 35.0807 177.125 36.4775 178.202 38.3004C179.28 40.1115 179.818 42.2599 179.818 44.7457C179.818 47.267 179.268 49.4096 178.167 51.1733C177.066 52.9252 175.504 54.2628 173.479 55.1861C171.455 56.0975 169.058 56.5533 166.288 56.5533H156.789V49.6286H164.655C165.981 49.6286 167.087 49.4569 167.975 49.1136C168.875 48.7585 169.555 48.2259 170.017 47.5156C170.479 46.7936 170.71 45.8703 170.71 44.7457C170.71 43.6212 170.479 42.692 170.017 41.9581C169.555 41.2124 168.875 40.656 167.975 40.2891C167.076 39.9103 165.969 39.7209 164.655 39.7209H160.322V69H151.533ZM172.006 52.3807L181.061 69H171.473L162.595 52.3807H172.006ZM183.139 69V32.6364H207.961V39.7741H191.928V47.2315H206.381V54.3871H191.928V69H183.139ZM245.209 50.8182C245.209 54.8191 244.439 58.2105 242.9 60.9922C241.362 63.7739 239.278 65.8868 236.65 67.331C234.034 68.7751 231.099 69.4972 227.844 69.4972C224.577 69.4972 221.635 68.7692 219.019 67.3132C216.403 65.8572 214.326 63.7443 212.787 60.9744C211.26 58.1927 210.496 54.8073 210.496 50.8182C210.496 46.8172 211.26 43.4259 212.787 40.6442C214.326 37.8625 216.403 35.7495 219.019 34.3054C221.635 32.8613 224.577 32.1392 227.844 32.1392C231.099 32.1392 234.034 32.8613 236.65 34.3054C239.278 35.7495 241.362 37.8625 242.9 40.6442C244.439 43.4259 245.209 46.8172 245.209 50.8182ZM236.224 50.8182C236.224 48.4508 235.887 46.4503 235.212 44.8168C234.549 43.1832 233.59 41.9463 232.336 41.1058C231.093 40.2654 229.595 39.8452 227.844 39.8452C226.104 39.8452 224.606 40.2654 223.351 41.1058C222.097 41.9463 221.132 43.1832 220.457 44.8168C219.794 46.4503 219.463 48.4508 219.463 50.8182C219.463 53.1856 219.794 55.1861 220.457 56.8196C221.132 58.4531 222.097 59.6901 223.351 60.5305C224.606 61.371 226.104 61.7912 227.844 61.7912C229.595 61.7912 231.093 61.371 232.336 60.5305C233.59 59.6901 234.549 58.4531 235.212 56.8196C235.887 55.1861 236.224 53.1856 236.224 50.8182ZM248.84 69V32.6364H263.861C266.584 32.6364 268.934 33.1276 270.91 34.1101C272.899 35.0807 274.432 36.4775 275.509 38.3004C276.586 40.1115 277.125 42.2599 277.125 44.7457C277.125 47.267 276.574 49.4096 275.474 51.1733C274.373 52.9252 272.81 54.2628 270.786 55.1861C268.762 56.0975 266.365 56.5533 263.595 56.5533H254.096V49.6286H261.961C263.287 49.6286 264.394 49.4569 265.282 49.1136C266.181 48.7585 266.862 48.2259 267.324 47.5156C267.785 46.7936 268.016 45.8703 268.016 44.7457C268.016 43.6212 267.785 42.692 267.324 41.9581C266.862 41.2124 266.181 40.656 265.282 40.2891C264.382 39.9103 263.275 39.7209 261.961 39.7209H257.629V69H248.84ZM269.312 52.3807L278.368 69H268.78L259.902 52.3807H269.312ZM42.7521 119V82.6364H51.5412V97.2315H65.87V82.6364H74.6413V119H65.87V104.387H51.5412V119H42.7521ZM86.5202 119H77.0742L89.3434 82.6364H101.044L113.314 119H103.868L95.3271 91.7983H95.043L86.5202 119ZM85.2596 104.689H105.004V111.365H85.2596V104.689ZM115.729 119V82.6364H130.75C133.473 82.6364 135.822 83.1276 137.799 84.1101C139.788 85.0807 141.321 86.4775 142.398 88.3004C143.475 90.1115 144.013 92.2599 144.013 94.7457C144.013 97.267 143.463 99.4096 142.362 101.173C141.261 102.925 139.699 104.263 137.675 105.186C135.651 106.098 133.254 106.553 130.484 106.553H120.984V99.6286H128.85C130.176 99.6286 131.283 99.4569 132.17 99.1136C133.07 98.7585 133.751 98.2259 134.212 97.5156C134.674 96.7936 134.905 95.8703 134.905 94.7457C134.905 93.6212 134.674 92.692 134.212 91.9581C133.751 91.2124 133.07 90.656 132.17 90.2891C131.271 89.9103 130.164 89.7209 128.85 89.7209H124.518V119H115.729ZM136.201 102.381L145.256 119H135.668L126.79 102.381H136.201ZM164.833 82.6364L172.965 109.27H173.267L181.399 82.6364H191.235L178.966 119H167.265L154.996 82.6364H164.833ZM202.44 82.6364V119H193.651V82.6364H202.44ZM215.699 119V82.6364H230.863C233.585 82.6364 235.864 83.0211 237.699 83.7905C239.545 84.5599 240.93 85.6371 241.854 87.022C242.789 88.407 243.256 90.0109 243.256 91.8338C243.256 93.2188 242.966 94.4557 242.386 95.5447C241.806 96.6219 241.007 97.5156 239.989 98.2259C238.971 98.9361 237.793 99.4332 236.456 99.7173V100.072C237.924 100.143 239.279 100.54 240.522 101.262C241.777 101.984 242.783 102.99 243.54 104.281C244.298 105.559 244.677 107.074 244.677 108.826C244.677 110.779 244.18 112.525 243.185 114.064C242.191 115.591 240.753 116.798 238.871 117.686C236.988 118.562 234.704 119 232.017 119H215.699ZM224.488 111.915H229.922C231.827 111.915 233.23 111.554 234.13 110.832C235.041 110.11 235.497 109.104 235.497 107.814C235.497 106.879 235.278 106.074 234.84 105.399C234.402 104.713 233.781 104.186 232.976 103.819C232.171 103.44 231.206 103.251 230.081 103.251H224.488V111.915ZM224.488 97.5866H229.354C230.312 97.5866 231.165 97.4268 231.91 97.1072C232.656 96.7876 233.236 96.326 233.65 95.7223C234.077 95.1186 234.29 94.3906 234.29 93.5384C234.29 92.3191 233.858 91.3603 232.993 90.6619C232.129 89.9635 230.963 89.6143 229.496 89.6143H224.488V97.5866ZM247.403 119V82.6364H262.424C265.146 82.6364 267.496 83.1276 269.473 84.1101C271.461 85.0807 272.994 86.4775 274.072 88.3004C275.149 90.1115 275.687 92.2599 275.687 94.7457C275.687 97.267 275.137 99.4096 274.036 101.173C272.935 102.925 271.373 104.263 269.349 105.186C267.324 106.098 264.927 106.553 262.157 106.553H252.658V99.6286H260.524C261.85 99.6286 262.956 99.4569 263.844 99.1136C264.744 98.7585 265.425 98.2259 265.886 97.5156C266.348 96.7936 266.579 95.8703 266.579 94.7457C266.579 93.6212 266.348 92.692 265.886 91.9581C265.425 91.2124 264.744 90.656 263.844 90.2891C262.945 89.9103 261.838 89.7209 260.524 89.7209H256.192V119H247.403ZM267.875 102.381L276.93 119H267.342L258.464 102.381H267.875ZM301.007 82.6364H309.779V106.092C309.779 108.802 309.133 111.164 307.843 113.176C306.553 115.177 304.754 116.727 302.445 117.828C300.137 118.917 297.456 119.462 294.402 119.462C291.313 119.462 288.614 118.917 286.306 117.828C283.997 116.727 282.204 115.177 280.926 113.176C279.647 111.164 279.008 108.802 279.008 106.092V82.6364H287.797V105.328C287.797 106.583 288.069 107.701 288.614 108.684C289.17 109.666 289.945 110.436 290.94 110.992C291.934 111.549 293.088 111.827 294.402 111.827C295.716 111.827 296.864 111.549 297.847 110.992C298.841 110.436 299.616 109.666 300.173 108.684C300.729 107.701 301.007 106.583 301.007 105.328V82.6364ZM337.651 94.5149C337.45 93.7692 337.154 93.1122 336.763 92.544C336.373 91.964 335.893 91.4728 335.325 91.0703C334.757 90.6679 334.106 90.366 333.372 90.1648C332.638 89.9517 331.833 89.8452 330.957 89.8452C329.193 89.8452 327.666 90.2713 326.376 91.1236C325.098 91.9759 324.109 93.2187 323.411 94.8523C322.712 96.474 322.363 98.4448 322.363 100.765C322.363 103.097 322.701 105.085 323.375 106.731C324.05 108.376 325.027 109.631 326.305 110.495C327.583 111.359 329.134 111.791 330.957 111.791C332.567 111.791 333.928 111.531 335.041 111.01C336.165 110.477 337.018 109.726 337.598 108.755C338.178 107.784 338.468 106.642 338.468 105.328L340.101 105.523H331.259V99.1136H346.937V103.925C346.937 107.181 346.245 109.968 344.86 112.288C343.487 114.608 341.593 116.39 339.178 117.633C336.775 118.876 334.011 119.497 330.886 119.497C327.418 119.497 324.37 118.746 321.742 117.242C319.114 115.739 317.066 113.596 315.598 110.815C314.131 108.021 313.397 104.707 313.397 100.871C313.397 97.8885 313.841 95.2429 314.728 92.9347C315.616 90.6146 316.853 88.6496 318.439 87.0398C320.037 85.4299 321.884 84.2107 323.979 83.3821C326.086 82.5535 328.353 82.1392 330.779 82.1392C332.886 82.1392 334.846 82.4411 336.657 83.0447C338.48 83.6484 340.089 84.5007 341.486 85.6016C342.895 86.7024 344.037 88.0104 344.913 89.5256C345.789 91.0407 346.333 92.7038 346.547 94.5149H337.651ZM42.7521 169V132.636H67.5746V139.774H51.5412V147.232H65.9943V154.387H51.5412V169H42.7521ZM104.822 150.818C104.822 154.819 104.052 158.21 102.514 160.992C100.975 163.774 98.8915 165.887 96.2637 167.331C93.6477 168.775 90.7121 169.497 87.4569 169.497C84.1898 169.497 81.2483 168.769 78.6323 167.313C76.0163 165.857 73.9389 163.744 72.4 160.974C70.873 158.193 70.1096 154.807 70.1096 150.818C70.1096 146.817 70.873 143.426 72.4 140.644C73.9389 137.862 76.0163 135.75 78.6323 134.305C81.2483 132.861 84.1898 132.139 87.4569 132.139C90.7121 132.139 93.6477 132.861 96.2637 134.305C98.8915 135.75 100.975 137.862 102.514 140.644C104.052 143.426 104.822 146.817 104.822 150.818ZM95.8375 150.818C95.8375 148.451 95.5002 146.45 94.8255 144.817C94.1626 143.183 93.2038 141.946 91.949 141.106C90.7061 140.265 89.2087 139.845 87.4569 139.845C85.7168 139.845 84.2194 140.265 82.9647 141.106C81.7099 141.946 80.7452 143.183 80.0705 144.817C79.4076 146.45 79.0762 148.451 79.0762 150.818C79.0762 153.186 79.4076 155.186 80.0705 156.82C80.7452 158.453 81.7099 159.69 82.9647 160.531C84.2194 161.371 85.7168 161.791 87.4569 161.791C89.2087 161.791 90.7061 161.371 91.949 160.531C93.2038 159.69 94.1626 158.453 94.8255 156.82C95.5002 155.186 95.8375 153.186 95.8375 150.818ZM108.453 169V132.636H123.475C126.197 132.636 128.547 133.128 130.524 134.11C132.512 135.081 134.045 136.478 135.122 138.3C136.2 140.112 136.738 142.26 136.738 144.746C136.738 147.267 136.188 149.41 135.087 151.173C133.986 152.925 132.423 154.263 130.399 155.186C128.375 156.098 125.978 156.553 123.208 156.553H113.709V149.629H121.575C122.901 149.629 124.007 149.457 124.895 149.114C125.795 148.759 126.475 148.226 126.937 147.516C127.399 146.794 127.629 145.87 127.629 144.746C127.629 143.621 127.399 142.692 126.937 141.958C126.475 141.212 125.795 140.656 124.895 140.289C123.995 139.91 122.889 139.721 121.575 139.721H117.242V169H108.453ZM128.926 152.381L137.981 169H128.393L119.515 152.381H128.926ZM168.956 143.538C168.838 142.236 168.311 141.224 167.376 140.502C166.453 139.768 165.133 139.401 163.417 139.401C162.28 139.401 161.333 139.549 160.576 139.845C159.818 140.141 159.25 140.549 158.871 141.07C158.492 141.579 158.297 142.165 158.285 142.828C158.262 143.373 158.368 143.852 158.605 144.266C158.854 144.681 159.209 145.048 159.67 145.367C160.144 145.675 160.712 145.947 161.375 146.184C162.038 146.421 162.783 146.628 163.612 146.805L166.737 147.516C168.536 147.906 170.122 148.427 171.496 149.078C172.881 149.729 174.041 150.504 174.976 151.404C175.923 152.304 176.639 153.339 177.124 154.511C177.609 155.683 177.858 156.997 177.87 158.453C177.858 160.75 177.278 162.72 176.13 164.366C174.982 166.011 173.33 167.272 171.176 168.148C169.033 169.024 166.447 169.462 163.417 169.462C160.375 169.462 157.723 169.006 155.462 168.094C153.201 167.183 151.443 165.798 150.189 163.94C148.934 162.081 148.289 159.732 148.253 156.891H156.67C156.741 158.062 157.054 159.039 157.611 159.82C158.167 160.602 158.93 161.193 159.901 161.596C160.884 161.998 162.02 162.2 163.31 162.2C164.494 162.2 165.5 162.04 166.329 161.72C167.169 161.401 167.814 160.957 168.264 160.388C168.714 159.82 168.945 159.169 168.956 158.435C168.945 157.749 168.732 157.163 168.317 156.678C167.903 156.18 167.264 155.754 166.4 155.399C165.547 155.032 164.458 154.695 163.133 154.387L159.333 153.499C156.184 152.777 153.704 151.611 151.893 150.001C150.082 148.38 149.183 146.19 149.194 143.432C149.183 141.183 149.786 139.212 151.006 137.519C152.225 135.826 153.912 134.507 156.066 133.56C158.22 132.613 160.676 132.139 163.434 132.139C166.252 132.139 168.696 132.619 170.768 133.577C172.851 134.524 174.467 135.856 175.615 137.572C176.763 139.289 177.349 141.277 177.373 143.538H168.956ZM179.619 139.774V132.636H210.354V139.774H199.328V169H190.663V139.774H179.619ZM217.151 170.829L213.422 168.308L239.736 130.879L243.447 133.4L217.151 170.829ZM245.808 150.818C245.808 154.819 245.039 158.21 243.5 160.992C241.961 163.774 239.878 165.887 237.25 167.331C234.634 168.775 231.698 169.497 228.443 169.497C225.176 169.497 222.235 168.769 219.619 167.313C217.003 165.857 214.925 163.744 213.386 160.974C211.859 158.193 211.096 154.807 211.096 150.818C211.096 146.817 211.859 143.426 213.386 140.644C214.925 137.862 217.003 135.75 219.619 134.305C222.235 132.861 225.176 132.139 228.443 132.139C231.698 132.139 234.634 132.861 237.25 134.305C239.878 135.75 241.961 137.862 243.5 140.644C245.039 143.426 245.808 146.817 245.808 150.818ZM236.824 150.818C236.824 148.451 236.487 146.45 235.812 144.817C235.149 143.183 234.19 141.946 232.935 141.106C231.692 140.265 230.195 139.845 228.443 139.845C226.703 139.845 225.206 140.265 223.951 141.106C222.696 141.946 221.732 143.183 221.057 144.817C220.394 146.45 220.062 148.451 220.062 150.818C220.062 153.186 220.394 155.186 221.057 156.82C221.732 158.453 222.696 159.69 223.951 160.531C225.206 161.371 226.703 161.791 228.443 161.791C230.195 161.791 231.692 161.371 232.935 160.531C234.19 159.69 235.149 158.453 235.812 156.82C236.487 155.186 236.824 153.186 236.824 150.818ZM246.59 139.774V132.636H277.325V139.774H266.299V169H257.634V139.774H246.59ZM278.928 139.774V132.636H309.663V139.774H298.637V169H289.972V139.774H278.928ZM312.455 169V132.636H337.81V139.774H321.244V147.232H336.514V154.387H321.244V161.862H337.81V169H312.455ZM348.651 157.867V157.139C348.651 155.127 348.816 153.523 349.148 152.327C349.491 151.132 349.988 150.173 350.639 149.451C351.29 148.717 352.083 148.048 353.018 147.445C353.764 146.971 354.427 146.492 355.007 146.006C355.599 145.509 356.067 144.977 356.41 144.408C356.753 143.84 356.925 143.195 356.925 142.473C356.925 141.775 356.759 141.159 356.428 140.626C356.096 140.094 355.64 139.685 355.06 139.401C354.492 139.105 353.859 138.957 353.161 138.957C352.462 138.957 351.805 139.117 351.19 139.437C350.586 139.756 350.089 140.212 349.698 140.804C349.319 141.384 349.124 142.088 349.112 142.917H340.945C340.98 140.431 341.554 138.395 342.667 136.809C343.791 135.223 345.277 134.051 347.124 133.293C348.97 132.524 351.006 132.139 353.232 132.139C355.67 132.139 357.836 132.518 359.73 133.276C361.636 134.033 363.133 135.152 364.222 136.631C365.311 138.111 365.856 139.922 365.856 142.065C365.856 143.473 365.619 144.716 365.146 145.793C364.672 146.871 364.009 147.823 363.157 148.652C362.317 149.469 361.328 150.214 360.192 150.889C359.304 151.41 358.564 151.955 357.972 152.523C357.392 153.091 356.954 153.742 356.658 154.476C356.362 155.198 356.214 156.086 356.214 157.139V157.867H348.651ZM352.575 169.515C351.296 169.515 350.201 169.065 349.29 168.165C348.39 167.266 347.946 166.177 347.958 164.898C347.946 163.644 348.39 162.572 349.29 161.685C350.201 160.785 351.296 160.335 352.575 160.335C353.794 160.335 354.865 160.785 355.788 161.685C356.712 162.572 357.179 163.644 357.191 164.898C357.179 165.751 356.954 166.526 356.516 167.224C356.09 167.923 355.528 168.479 354.83 168.893C354.143 169.308 353.391 169.515 352.575 169.515Z" fill="black"/>
</svg>
