<svg width="401" height="97" viewBox="0 0 401 97" fill="none" xmlns="http://www.w3.org/2000/svg">
<path d="M2 2H398.817V95H2V2Z" fill="white" stroke="black" stroke-width="4"/>
<path d="M52.7521 69V32.6364H67.7734C70.496 32.6364 72.8456 33.169 74.8224 34.2344C76.8111 35.2879 78.344 36.7616 79.4212 38.6555C80.4983 40.5376 81.0369 42.7275 81.0369 45.2251C81.0369 47.7346 80.4865 49.9304 79.3857 51.8125C78.2966 53.6828 76.7401 55.1328 74.7159 56.1626C72.6918 57.1925 70.2888 57.7074 67.5071 57.7074H58.2386V50.7827H65.8736C67.1993 50.7827 68.3061 50.5518 69.1939 50.0902C70.0935 49.6286 70.7741 48.9834 71.2358 48.1548C71.6974 47.3144 71.9283 46.3378 71.9283 45.2251C71.9283 44.1006 71.6974 43.13 71.2358 42.3132C70.7741 41.4846 70.0935 40.8454 69.1939 40.3956C68.2943 39.9458 67.1875 39.7209 65.8736 39.7209H61.5412V69H52.7521ZM83.8693 69V32.6364H98.8906C101.613 32.6364 103.963 33.1276 105.94 34.1101C107.928 35.0807 109.461 36.4775 110.538 38.3004C111.616 40.1115 112.154 42.2599 112.154 44.7457C112.154 47.267 111.604 49.4096 110.503 51.1733C109.402 52.9252 107.839 54.2628 105.815 55.1861C103.791 56.0975 101.394 56.5533 98.6243 56.5533H89.125V49.6286H96.9908C98.3165 49.6286 99.4233 49.4569 100.311 49.1136C101.211 48.7585 101.891 48.2259 102.353 47.5156C102.815 46.7936 103.045 45.8703 103.045 44.7457C103.045 43.6212 102.815 42.692 102.353 41.9581C101.891 41.2124 101.211 40.656 100.311 40.2891C99.4115 39.9103 98.3047 39.7209 96.9908 39.7209H92.6584V69H83.8693ZM104.342 52.3807L113.397 69H103.809L94.9311 52.3807H104.342ZM149.797 50.8182C149.797 54.8191 149.027 58.2105 147.488 60.9922C145.949 63.7739 143.866 65.8868 141.238 67.331C138.622 68.7751 135.687 69.4972 132.431 69.4972C129.164 69.4972 126.223 68.7692 123.607 67.3132C120.991 65.8572 118.913 63.7443 117.375 60.9744C115.848 58.1927 115.084 54.8073 115.084 50.8182C115.084 46.8172 115.848 43.4259 117.375 40.6442C118.913 37.8625 120.991 35.7495 123.607 34.3054C126.223 32.8613 129.164 32.1392 132.431 32.1392C135.687 32.1392 138.622 32.8613 141.238 34.3054C143.866 35.7495 145.949 37.8625 147.488 40.6442C149.027 43.4259 149.797 46.8172 149.797 50.8182ZM140.812 50.8182C140.812 48.4508 140.475 46.4503 139.8 44.8168C139.137 43.1832 138.178 41.9463 136.924 41.1058C135.681 40.2654 134.183 39.8452 132.431 39.8452C130.691 39.8452 129.194 40.2654 127.939 41.1058C126.685 41.9463 125.72 43.1832 125.045 44.8168C124.382 46.4503 124.051 48.4508 124.051 50.8182C124.051 53.1856 124.382 55.1861 125.045 56.8196C125.72 58.4531 126.685 59.6901 127.939 60.5305C129.194 61.371 130.691 61.7912 132.431 61.7912C134.183 61.7912 135.681 61.371 136.924 60.5305C138.178 59.6901 139.137 58.4531 139.8 56.8196C140.475 55.1861 140.812 53.1856 140.812 50.8182ZM186.436 45.8111H177.558C177.44 44.8996 177.197 44.0769 176.83 43.343C176.463 42.6091 175.978 41.9818 175.374 41.4609C174.77 40.9401 174.054 40.5436 173.225 40.2713C172.409 39.9872 171.503 39.8452 170.509 39.8452C168.745 39.8452 167.224 40.2772 165.946 41.1413C164.679 42.0054 163.703 43.2543 163.016 44.8878C162.341 46.5213 162.004 48.4981 162.004 50.8182C162.004 53.233 162.347 55.2571 163.034 56.8906C163.732 58.5123 164.709 59.7375 165.963 60.5661C167.23 61.3828 168.727 61.7912 170.456 61.7912C171.426 61.7912 172.308 61.6669 173.101 61.4183C173.906 61.1697 174.61 60.8087 175.214 60.3352C175.83 59.8499 176.333 59.264 176.723 58.5774C177.126 57.879 177.404 57.0919 177.558 56.2159L186.436 56.2692C186.282 57.879 185.814 59.4652 185.033 61.0277C184.264 62.5902 183.204 64.0166 181.855 65.3068C180.505 66.5852 178.86 67.6032 176.919 68.3608C174.989 69.1184 172.776 69.4972 170.278 69.4972C166.987 69.4972 164.04 68.7751 161.436 67.331C158.843 65.875 156.796 63.7562 155.292 60.9744C153.789 58.1927 153.037 54.8073 153.037 50.8182C153.037 46.8172 153.801 43.4259 155.328 40.6442C156.855 37.8625 158.92 35.7495 161.525 34.3054C164.129 32.8613 167.047 32.1392 170.278 32.1392C172.48 32.1392 174.516 32.447 176.386 33.0625C178.256 33.6662 179.902 34.554 181.322 35.7259C182.743 36.8859 183.897 38.3123 184.784 40.005C185.672 41.6977 186.223 43.633 186.436 45.8111ZM189.965 69V32.6364H215.32V39.7741H198.754V47.2315H214.024V54.3871H198.754V61.8622H215.32V69H189.965ZM238.98 43.5384C238.862 42.2363 238.335 41.2242 237.4 40.5021C236.476 39.7682 235.157 39.4013 233.44 39.4013C232.304 39.4013 231.357 39.5492 230.599 39.8452C229.842 40.1411 229.273 40.5495 228.895 41.0703C228.516 41.5793 228.321 42.1652 228.309 42.8281C228.285 43.3726 228.392 43.852 228.628 44.2663C228.877 44.6806 229.232 45.0476 229.694 45.3672C230.167 45.675 230.735 45.9472 231.398 46.1839C232.061 46.4207 232.807 46.6278 233.635 46.8054L236.76 47.5156C238.56 47.9062 240.146 48.4271 241.519 49.0781C242.904 49.7292 244.064 50.5045 244.999 51.4041C245.946 52.3037 246.662 53.3395 247.148 54.5114C247.633 55.6832 247.881 56.9972 247.893 58.4531C247.881 60.7495 247.301 62.7204 246.153 64.3658C245.005 66.0111 243.354 67.2718 241.199 68.1477C239.057 69.0237 236.47 69.4616 233.44 69.4616C230.398 69.4616 227.747 69.0059 225.486 68.0945C223.225 67.183 221.467 65.7981 220.212 63.9396C218.957 62.0812 218.312 59.7315 218.277 56.8906H226.693C226.764 58.0625 227.078 59.0391 227.634 59.8203C228.19 60.6016 228.954 61.1934 229.925 61.5959C230.907 61.9983 232.043 62.1996 233.334 62.1996C234.517 62.1996 235.523 62.0398 236.352 61.7202C237.193 61.4006 237.838 60.9567 238.287 60.3885C238.737 59.8203 238.968 59.1693 238.98 58.4354C238.968 57.7488 238.755 57.1629 238.341 56.6776C237.926 56.1804 237.287 55.7543 236.423 55.3991C235.571 55.0322 234.482 54.6948 233.156 54.3871L229.356 53.4993C226.208 52.7772 223.728 51.6113 221.917 50.0014C220.106 48.3797 219.206 46.1899 219.218 43.4318C219.206 41.1828 219.81 39.2119 221.029 37.5192C222.248 35.8265 223.935 34.5066 226.089 33.5597C228.244 32.6127 230.7 32.1392 233.458 32.1392C236.275 32.1392 238.72 32.6186 240.791 33.5774C242.874 34.5244 244.49 35.8561 245.638 37.5724C246.787 39.2888 247.372 41.2775 247.396 43.5384H238.98ZM270.488 43.5384C270.369 42.2363 269.843 41.2242 268.907 40.5021C267.984 39.7682 266.664 39.4013 264.948 39.4013C263.812 39.4013 262.865 39.5492 262.107 39.8452C261.349 40.1411 260.781 40.5495 260.403 41.0703C260.024 41.5793 259.828 42.1652 259.817 42.8281C259.793 43.3726 259.899 43.852 260.136 44.2663C260.385 44.6806 260.74 45.0476 261.202 45.3672C261.675 45.675 262.243 45.9472 262.906 46.1839C263.569 46.4207 264.315 46.6278 265.143 46.8054L268.268 47.5156C270.068 47.9062 271.654 48.4271 273.027 49.0781C274.412 49.7292 275.572 50.5045 276.507 51.4041C277.454 52.3037 278.17 53.3395 278.655 54.5114C279.141 55.6832 279.389 56.9972 279.401 58.4531C279.389 60.7495 278.809 62.7204 277.661 64.3658C276.513 66.0111 274.862 67.2718 272.707 68.1477C270.565 69.0237 267.978 69.4616 264.948 69.4616C261.906 69.4616 259.254 69.0059 256.993 68.0945C254.733 67.183 252.975 65.7981 251.72 63.9396C250.465 62.0812 249.82 59.7315 249.785 56.8906H258.201C258.272 58.0625 258.586 59.0391 259.142 59.8203C259.698 60.6016 260.462 61.1934 261.432 61.5959C262.415 61.9983 263.551 62.1996 264.841 62.1996C266.025 62.1996 267.031 62.0398 267.86 61.7202C268.7 61.4006 269.345 60.9567 269.795 60.3885C270.245 59.8203 270.476 59.1693 270.488 58.4354C270.476 57.7488 270.263 57.1629 269.849 56.6776C269.434 56.1804 268.795 55.7543 267.931 55.3991C267.079 55.0322 265.99 54.6948 264.664 54.3871L260.864 53.4993C257.715 52.7772 255.236 51.6113 253.425 50.0014C251.613 48.3797 250.714 46.1899 250.726 43.4318C250.714 41.1828 251.318 39.2119 252.537 37.5192C253.756 35.8265 255.443 34.5066 257.597 33.5597C259.751 32.6127 262.208 32.1392 264.966 32.1392C267.783 32.1392 270.227 32.6186 272.299 33.5774C274.382 34.5244 275.998 35.8561 277.146 37.5724C278.294 39.2888 278.88 41.2775 278.904 43.5384H270.488ZM282.34 69V32.6364H307.695V39.7741H291.129V47.2315H306.399V54.3871H291.129V61.8622H307.695V69H282.34ZM342.648 32.6364V69H335.19L320.719 48.0128H320.488V69H311.699V32.6364H319.263L333.574 53.5881H333.876V32.6364H342.648Z" fill="black"/>
</svg>
