<svg width="42" height="35" viewBox="0 0 42 35" fill="none" xmlns="http://www.w3.org/2000/svg">
<path d="M3.31358 0.000194416C2.89072 -0.00636539 2.48218 0.153302 2.17582 0.444854C1.88302 0.741071 1.71881 1.14078 1.71881 1.55729C1.71881 1.9738 1.88302 2.37352 2.17582 2.66973L13.0059 13.4998C13.148 13.6431 13.3175 13.7563 13.5042 13.8327C13.691 13.9091 13.8912 13.9471 14.093 13.9445C14.4934 13.9445 14.9254 13.8052 15.2308 13.4998C15.5247 13.2042 15.6897 12.8042 15.6897 12.3874C15.6897 11.9705 15.5247 11.5705 15.2308 11.2749L4.4007 0.444854C4.25862 0.301567 4.08914 0.188352 3.90237 0.111958C3.7156 0.0355644 3.51536 -0.00244537 3.31358 0.000194416ZM37.8293 0.000194416C37.6275 -0.00244537 37.4273 0.0355644 37.2405 0.111958C37.0537 0.188352 36.8842 0.301567 36.7422 0.444854L25.9121 11.2749C25.6181 11.5705 25.4531 11.9705 25.4531 12.3874C25.4531 12.8042 25.6181 13.2042 25.9121 13.4998C26.2175 13.8052 26.6495 13.9445 27.0498 13.9445C27.2516 13.9471 27.4519 13.9091 27.6386 13.8327C27.8254 13.7563 27.9949 13.6431 28.137 13.4998L38.967 2.66973C39.2598 2.37352 39.4241 1.9738 39.4241 1.55729C39.4241 1.14078 39.2598 0.741071 38.967 0.444854C38.6607 0.153302 38.2521 -0.00636539 37.8293 0.000194416ZM1.58242 10.9284C0.710505 10.9284 0 11.6389 0 12.5108V17.258C0 18.13 0.710505 18.8405 1.58242 18.8405H3.16484V20.4229C3.16484 20.5637 6.32967 33.0822 6.32967 33.0822C6.79965 33.9225 7.19525 34.6646 7.91209 34.6646H33.2308C34.1027 34.6646 34.4429 33.9715 34.8132 33.0822C34.8132 33.0822 37.978 20.5637 37.978 20.4229V18.8405H39.5604C40.4324 18.8405 41.1429 18.13 41.1429 17.258V12.5108C41.1429 11.6389 40.4324 10.9284 39.5604 10.9284H33.082L29.0279 14.9841C28.4107 15.6012 27.5752 15.9715 26.7033 15.9715C25.833 15.9715 25.0465 15.6028 24.4278 14.9841C23.8983 14.4624 23.565 13.774 23.4843 13.0351C23.4036 12.2962 23.5803 11.5521 23.9847 10.9284H17.1597C17.5639 11.5522 17.7404 12.2965 17.6594 13.0354C17.5784 13.7743 17.2448 14.4626 16.7151 14.9841C16.0979 15.6012 15.3099 15.9715 14.4396 15.9715C13.5649 15.9611 12.7297 15.6063 12.115 14.9841L8.06083 10.9284H1.58242ZM14.2418 18.8405C15.1137 18.8405 15.8242 19.551 15.8242 20.4229V29.9174C15.8242 30.7893 15.1137 31.4998 14.2418 31.4998C13.3698 31.4998 12.6593 30.7893 12.6593 29.9174V20.4229C12.6593 19.551 13.3698 18.8405 14.2418 18.8405ZM20.5714 18.8405C21.4433 18.8405 22.1538 19.551 22.1538 20.4229V29.9174C22.1538 30.7893 21.4433 31.4998 20.5714 31.4998C19.6995 31.4998 18.989 30.7893 18.989 29.9174V20.4229C18.989 19.551 19.6995 18.8405 20.5714 18.8405ZM26.9011 18.8405C27.773 18.8405 28.4835 19.551 28.4835 20.4229V29.9174C28.4835 30.7893 27.773 31.4998 26.9011 31.4998C26.0292 31.4998 25.3187 30.7893 25.3187 29.9174V20.4229C25.3187 19.551 26.0292 18.8405 26.9011 18.8405Z" fill="#F8FA10"/>
</svg>
