<svg width="42" height="42" viewBox="0 0 42 42" fill="none" xmlns="http://www.w3.org/2000/svg">
<path fill-rule="evenodd" clip-rule="evenodd" d="M28.4938 26.0085L35.7692 33.2839L33.3452 35.7096L26.0766 28.441C23.6533 30.2662 20.6286 31.1056 17.6112 30.7906C14.5939 30.4755 11.8078 29.0293 9.81378 26.743C7.81972 24.4566 6.76565 21.4998 6.8637 18.4677C6.96174 15.4355 8.20462 12.553 10.3422 10.4002C12.4798 8.24748 15.3535 6.98426 18.3849 6.86479C21.4163 6.74531 24.3804 7.77846 26.6808 9.75631C28.9812 11.7342 30.4471 14.5099 30.7834 17.525C31.1198 20.54 30.3017 23.5706 28.4938 26.0068V26.0085ZM27.4275 18.8565C27.4275 16.5832 26.5244 14.403 24.917 12.7956C23.3095 11.1881 21.1293 10.285 18.8561 10.285C16.5828 10.285 14.4026 11.1881 12.7951 12.7956C11.1877 14.403 10.2846 16.5832 10.2846 18.8565C10.2846 21.1298 11.1877 23.3099 12.7951 24.9174C14.4026 26.5248 16.5828 27.4279 18.8561 27.4279C21.1293 27.4279 23.3095 26.5248 24.917 24.9174C26.5244 23.3099 27.4275 21.1298 27.4275 18.8565Z" fill="#F8FA10"/>
</svg>
