<svg width="28" height="24" viewBox="0 0 28 24" fill="none" xmlns="http://www.w3.org/2000/svg">
<path d="M0 1.71429C0 1.25963 0.180612 0.823594 0.502103 0.502103C0.823594 0.180612 1.25963 0 1.71429 0H25.7143C26.1689 0 26.605 0.180612 26.9265 0.502103C27.248 0.823594 27.4286 1.25963 27.4286 1.71429C27.4286 2.16894 27.248 2.60498 26.9265 2.92647C26.605 3.24796 26.1689 3.42857 25.7143 3.42857H1.71429C1.25963 3.42857 0.823594 3.24796 0.502103 2.92647C0.180612 2.60498 0 2.16894 0 1.71429ZM0 12C0 11.5453 0.180612 11.1093 0.502103 10.7878C0.823594 10.4663 1.25963 10.2857 1.71429 10.2857H25.7143C26.1689 10.2857 26.605 10.4663 26.9265 10.7878C27.248 11.1093 27.4286 11.5453 27.4286 12C27.4286 12.4547 27.248 12.8907 26.9265 13.2122C26.605 13.5337 26.1689 13.7143 25.7143 13.7143H1.71429C1.25963 13.7143 0.823594 13.5337 0.502103 13.2122C0.180612 12.8907 0 12.4547 0 12ZM1.71429 20.5714C1.25963 20.5714 0.823594 20.752 0.502103 21.0735C0.180612 21.395 0 21.8311 0 22.2857C0 22.7404 0.180612 23.1764 0.502103 23.4979C0.823594 23.8194 1.25963 24 1.71429 24H25.7143C26.1689 24 26.605 23.8194 26.9265 23.4979C27.248 23.1764 27.4286 22.7404 27.4286 22.2857C27.4286 21.8311 27.248 21.395 26.9265 21.0735C26.605 20.752 26.1689 20.5714 25.7143 20.5714H1.71429Z" fill="#F8FA10"/>
</svg>
