<svg width="369" height="164" viewBox="0 0 369 164" fill="none" xmlns="http://www.w3.org/2000/svg">
<path d="M2 2H367V160.147H2V2Z" fill="white" stroke="black" stroke-width="4"/>
<path d="M32.7521 98V61.6364H57.5746V68.7741H41.5412V76.2315H55.9943V83.3871H41.5412V98H32.7521ZM63.8249 98H54.3789L66.6481 61.6364H78.3491L90.6183 98H81.1722L72.6317 70.7983H72.3477L63.8249 98ZM62.5643 83.6889H82.3086V90.3651H62.5643V83.6889ZM124.332 74.8111H115.454C115.336 73.8996 115.093 73.0769 114.726 72.343C114.359 71.6091 113.874 70.9818 113.27 70.4609C112.667 69.9401 111.951 69.5436 111.122 69.2713C110.305 68.9872 109.4 68.8452 108.405 68.8452C106.642 68.8452 105.121 69.2772 103.842 70.1413C102.576 71.0054 101.599 72.2543 100.912 73.8878C100.238 75.5213 99.9004 77.4981 99.9004 79.8182C99.9004 82.233 100.244 84.2571 100.93 85.8906C101.629 87.5123 102.605 88.7375 103.86 89.5661C105.126 90.3828 106.624 90.7912 108.352 90.7912C109.323 90.7912 110.205 90.6669 110.998 90.4183C111.803 90.1697 112.507 89.8087 113.111 89.3352C113.726 88.8499 114.229 88.264 114.62 87.5774C115.022 86.879 115.3 86.0919 115.454 85.2159L124.332 85.2692C124.178 86.879 123.711 88.4652 122.93 90.0277C122.16 91.5902 121.101 93.0166 119.751 94.3068C118.402 95.5852 116.756 96.6032 114.815 97.3608C112.886 98.1184 110.672 98.4972 108.175 98.4972C104.884 98.4972 101.936 97.7751 99.3322 96.331C96.7399 94.875 94.6921 92.7562 93.1887 89.9744C91.6854 87.1927 90.9338 83.8073 90.9338 79.8182C90.9338 75.8172 91.6973 72.4259 93.2243 69.6442C94.7512 66.8625 96.8168 64.7495 99.421 63.3054C102.025 61.8613 104.943 61.1392 108.175 61.1392C110.376 61.1392 112.412 61.447 114.282 62.0625C116.153 62.6662 117.798 63.554 119.219 64.7259C120.639 65.8859 121.793 67.3123 122.681 69.005C123.569 70.6977 124.119 72.633 124.332 74.8111ZM136.651 61.6364V98H127.862V61.6364H136.651ZM140.668 98V61.6364H149.457V90.8622H164.585V98H140.668ZM176.424 61.6364V98H167.635V61.6364H176.424ZM179.252 68.7741V61.6364H209.987V68.7741H198.961V98H190.296V68.7741H179.252ZM212.779 98V61.6364H238.135V68.7741H221.569V76.2315H236.838V83.3871H221.569V90.8622H238.135V98H212.779ZM240.949 68.7741V61.6364H271.684V68.7741H260.658V98H251.993V68.7741H240.949ZM274.477 98V61.6364H299.832V68.7741H283.266V76.2315H298.536V83.3871H283.266V90.8622H299.832V98H274.477ZM303.836 98V61.6364H318.857C321.58 61.6364 323.93 62.1276 325.906 63.1101C327.895 64.0807 329.428 65.4775 330.505 67.3004C331.582 69.1115 332.121 71.2599 332.121 73.7457C332.121 76.267 331.57 78.4096 330.47 80.1733C329.369 81.9252 327.806 83.2628 325.782 84.1861C323.758 85.0975 321.361 85.5533 318.591 85.5533H309.092V78.6286H316.958C318.283 78.6286 319.39 78.4569 320.278 78.1136C321.177 77.7585 321.858 77.2259 322.32 76.5156C322.781 75.7936 323.012 74.8703 323.012 73.7457C323.012 72.6212 322.781 71.692 322.32 70.9581C321.858 70.2124 321.177 69.656 320.278 69.2891C319.378 68.9103 318.271 68.7209 316.958 68.7209H312.625V98H303.836ZM324.308 81.3807L333.364 98H323.776L314.898 81.3807H324.308Z" fill="black"/>
</svg>
