<svg width="325" height="135" viewBox="0 0 325 135" fill="none" xmlns="http://www.w3.org/2000/svg">
<path d="M2 2H323V133H2V2Z" fill="white" stroke="black" stroke-width="4"/>
<path d="M98.0085 24.6364L106.141 51.2699H106.442L114.575 24.6364H124.411L112.142 61H100.441L88.1719 24.6364H98.0085ZM135.615 24.6364V61H126.826V24.6364H135.615ZM153.074 61H139.633V24.6364H153.056C156.761 24.6364 159.951 25.3643 162.627 26.8203C165.314 28.2644 167.385 30.3478 168.841 33.0703C170.297 35.781 171.025 39.0244 171.025 42.8004C171.025 46.5883 170.297 49.8435 168.841 52.5661C167.397 55.2886 165.331 57.3778 162.644 58.8338C159.957 60.2779 156.767 61 153.074 61ZM148.422 53.5071H152.737C154.773 53.5071 156.495 53.1638 157.904 52.4773C159.324 51.7789 160.395 50.6484 161.117 49.0859C161.851 47.5116 162.218 45.4164 162.218 42.8004C162.218 40.1844 161.851 38.1011 161.117 36.5504C160.383 34.9879 159.3 33.8634 157.868 33.1768C156.448 32.4785 154.696 32.1293 152.612 32.1293H148.422V53.5071ZM174.656 61V24.6364H200.012V31.7741H183.445V39.2315H198.715V46.3871H183.445V53.8622H200.012V61H174.656ZM238.338 42.8182C238.338 46.8191 237.568 50.2105 236.029 52.9922C234.49 55.7739 232.407 57.8868 229.779 59.331C227.163 60.7751 224.228 61.4972 220.972 61.4972C217.705 61.4972 214.764 60.7692 212.148 59.3132C209.532 57.8572 207.454 55.7443 205.916 52.9744C204.389 50.1927 203.625 46.8073 203.625 42.8182C203.625 38.8172 204.389 35.4259 205.916 32.6442C207.454 29.8625 209.532 27.7495 212.148 26.3054C214.764 24.8613 217.705 24.1392 220.972 24.1392C224.228 24.1392 227.163 24.8613 229.779 26.3054C232.407 27.7495 234.49 29.8625 236.029 32.6442C237.568 35.4259 238.338 38.8172 238.338 42.8182ZM229.353 42.8182C229.353 40.4508 229.016 38.4503 228.341 36.8168C227.678 35.1832 226.719 33.9463 225.465 33.1058C224.222 32.2654 222.724 31.8452 220.972 31.8452C219.232 31.8452 217.735 32.2654 216.48 33.1058C215.226 33.9463 214.261 35.1832 213.586 36.8168C212.923 38.4503 212.592 40.4508 212.592 42.8182C212.592 45.1856 212.923 47.1861 213.586 48.8196C214.261 50.4531 215.226 51.6901 216.48 52.5305C217.735 53.371 219.232 53.7912 220.972 53.7912C222.724 53.7912 224.222 53.371 225.465 52.5305C226.719 51.6901 227.678 50.4531 228.341 48.8196C229.016 47.1861 229.353 45.1856 229.353 42.8182ZM88.5625 81.7741V74.6364H119.298V81.7741H108.271V111H99.6065V81.7741H88.5625ZM154.752 92.8182C154.752 96.8191 153.982 100.21 152.443 102.992C150.905 105.774 148.821 107.887 146.193 109.331C143.577 110.775 140.642 111.497 137.387 111.497C134.119 111.497 131.178 110.769 128.562 109.313C125.946 107.857 123.869 105.744 122.33 102.974C120.803 100.193 120.039 96.8073 120.039 92.8182C120.039 88.8172 120.803 85.4259 122.33 82.6442C123.869 79.8625 125.946 77.7495 128.562 76.3054C131.178 74.8613 134.119 74.1392 137.387 74.1392C140.642 74.1392 143.577 74.8613 146.193 76.3054C148.821 77.7495 150.905 79.8625 152.443 82.6442C153.982 85.4259 154.752 88.8172 154.752 92.8182ZM145.767 92.8182C145.767 90.4508 145.43 88.4503 144.755 86.8168C144.092 85.1832 143.133 83.9463 141.879 83.1058C140.636 82.2654 139.138 81.8452 137.387 81.8452C135.646 81.8452 134.149 82.2654 132.894 83.1058C131.64 83.9463 130.675 85.1832 130 86.8168C129.337 88.4503 129.006 90.4508 129.006 92.8182C129.006 95.1856 129.337 97.1861 130 98.8196C130.675 100.453 131.64 101.69 132.894 102.531C134.149 103.371 135.646 103.791 137.387 103.791C139.138 103.791 140.636 103.371 141.879 102.531C143.133 101.69 144.092 100.453 144.755 98.8196C145.43 97.1861 145.767 95.1856 145.767 92.8182ZM180.382 74.6364H189.154V98.0916C189.154 100.802 188.508 103.164 187.218 105.176C185.928 107.177 184.129 108.727 181.82 109.828C179.512 110.917 176.831 111.462 173.777 111.462C170.688 111.462 167.989 110.917 165.681 109.828C163.372 108.727 161.579 107.177 160.301 105.176C159.022 103.164 158.383 100.802 158.383 98.0916V74.6364H167.172V97.3281C167.172 98.5829 167.444 99.7015 167.989 100.684C168.545 101.666 169.32 102.436 170.315 102.992C171.309 103.549 172.463 103.827 173.777 103.827C175.091 103.827 176.239 103.549 177.222 102.992C178.216 102.436 178.991 101.666 179.548 100.684C180.104 99.7015 180.382 98.5829 180.382 97.3281V74.6364ZM193.162 111V74.6364H208.184C210.906 74.6364 213.256 75.1276 215.233 76.1101C217.221 77.0807 218.754 78.4775 219.831 80.3004C220.908 82.1115 221.447 84.2599 221.447 86.7457C221.447 89.267 220.897 91.4096 219.796 93.1733C218.695 94.9252 217.132 96.2628 215.108 97.1861C213.084 98.0975 210.687 98.5533 207.917 98.5533H198.418V91.6286H206.284C207.609 91.6286 208.716 91.4569 209.604 91.1136C210.504 90.7585 211.184 90.2259 211.646 89.5156C212.108 88.7936 212.338 87.8703 212.338 86.7457C212.338 85.6212 212.108 84.692 211.646 83.9581C211.184 83.2124 210.504 82.656 209.604 82.2891C208.704 81.9103 207.598 81.7209 206.284 81.7209H201.951V111H193.162ZM213.635 94.3807L222.69 111H213.102L204.224 94.3807H213.635Z" fill="black"/>
</svg>
