<svg width="352" height="135" viewBox="0 0 352 135" fill="none" xmlns="http://www.w3.org/2000/svg">
<path d="M2 2H323V133H2V2Z" fill="white" stroke="black" stroke-width="4"/>
<path d="M104.009 24.6364L112.141 51.2699H112.442L120.575 24.6364H130.411L118.142 61H106.441L94.1719 24.6364H104.009ZM141.615 24.6364V61H132.826V24.6364H141.615ZM159.074 61H145.633V24.6364H159.056C162.761 24.6364 165.951 25.3643 168.627 26.8203C171.314 28.2644 173.385 30.3478 174.841 33.0703C176.297 35.781 177.025 39.0244 177.025 42.8004C177.025 46.5883 176.297 49.8435 174.841 52.5661C173.397 55.2886 171.331 57.3778 168.644 58.8338C165.957 60.2779 162.767 61 159.074 61ZM154.422 53.5071H158.737C160.773 53.5071 162.495 53.1638 163.904 52.4773C165.324 51.7789 166.395 50.6484 167.117 49.0859C167.851 47.5116 168.218 45.4164 168.218 42.8004C168.218 40.1844 167.851 38.1011 167.117 36.5504C166.383 34.9879 165.3 33.8634 163.868 33.1768C162.448 32.4785 160.696 32.1293 158.612 32.1293H154.422V53.5071ZM180.656 61V24.6364H206.012V31.7741H189.445V39.2315H204.715V46.3871H189.445V53.8622H206.012V61H180.656ZM244.338 42.8182C244.338 46.8191 243.568 50.2105 242.029 52.9922C240.49 55.7739 238.407 57.8868 235.779 59.331C233.163 60.7751 230.228 61.4972 226.972 61.4972C223.705 61.4972 220.764 60.7692 218.148 59.3132C215.532 57.8572 213.454 55.7443 211.916 52.9744C210.389 50.1927 209.625 46.8073 209.625 42.8182C209.625 38.8172 210.389 35.4259 211.916 32.6442C213.454 29.8625 215.532 27.7495 218.148 26.3054C220.764 24.8613 223.705 24.1392 226.972 24.1392C230.228 24.1392 233.163 24.8613 235.779 26.3054C238.407 27.7495 240.49 29.8625 242.029 32.6442C243.568 35.4259 244.338 38.8172 244.338 42.8182ZM235.353 42.8182C235.353 40.4508 235.016 38.4503 234.341 36.8168C233.678 35.1832 232.719 33.9463 231.465 33.1058C230.222 32.2654 228.724 31.8452 226.972 31.8452C225.232 31.8452 223.735 32.2654 222.48 33.1058C221.226 33.9463 220.261 35.1832 219.586 36.8168C218.923 38.4503 218.592 40.4508 218.592 42.8182C218.592 45.1856 218.923 47.1861 219.586 48.8196C220.261 50.4531 221.226 51.6901 222.48 52.5305C223.735 53.371 225.232 53.7912 226.972 53.7912C228.724 53.7912 230.222 53.371 231.465 52.5305C232.719 51.6901 233.678 50.4531 234.341 48.8196C235.016 47.1861 235.353 45.1856 235.353 42.8182ZM94.5625 81.7741V74.6364H125.298V81.7741H114.271V111H105.607V81.7741H94.5625ZM160.752 92.8182C160.752 96.8191 159.982 100.21 158.443 102.992C156.905 105.774 154.821 107.887 152.193 109.331C149.577 110.775 146.642 111.497 143.387 111.497C140.119 111.497 137.178 110.769 134.562 109.313C131.946 107.857 129.869 105.744 128.33 102.974C126.803 100.193 126.039 96.8073 126.039 92.8182C126.039 88.8172 126.803 85.4259 128.33 82.6442C129.869 79.8625 131.946 77.7495 134.562 76.3054C137.178 74.8613 140.119 74.1392 143.387 74.1392C146.642 74.1392 149.577 74.8613 152.193 76.3054C154.821 77.7495 156.905 79.8625 158.443 82.6442C159.982 85.4259 160.752 88.8172 160.752 92.8182ZM151.767 92.8182C151.767 90.4508 151.43 88.4503 150.755 86.8168C150.092 85.1832 149.133 83.9463 147.879 83.1058C146.636 82.2654 145.138 81.8452 143.387 81.8452C141.646 81.8452 140.149 82.2654 138.894 83.1058C137.64 83.9463 136.675 85.1832 136 86.8168C135.337 88.4503 135.006 90.4508 135.006 92.8182C135.006 95.1856 135.337 97.1861 136 98.8196C136.675 100.453 137.64 101.69 138.894 102.531C140.149 103.371 141.646 103.791 143.387 103.791C145.138 103.791 146.636 103.371 147.879 102.531C149.133 101.69 150.092 100.453 150.755 98.8196C151.43 97.1861 151.767 95.1856 151.767 92.8182ZM186.382 74.6364H195.154V98.0916C195.154 100.802 194.508 103.164 193.218 105.176C191.928 107.177 190.129 108.727 187.82 109.828C185.512 110.917 182.831 111.462 179.777 111.462C176.688 111.462 173.989 110.917 171.681 109.828C169.372 108.727 167.579 107.177 166.301 105.176C165.022 103.164 164.383 100.802 164.383 98.0916V74.6364H173.172V97.3281C173.172 98.5829 173.444 99.7015 173.989 100.684C174.545 101.666 175.32 102.436 176.315 102.992C177.309 103.549 178.463 103.827 179.777 103.827C181.091 103.827 182.239 103.549 183.222 102.992C184.216 102.436 184.991 101.666 185.548 100.684C186.104 99.7015 186.382 98.5829 186.382 97.3281V74.6364ZM199.162 111V74.6364H214.184C216.906 74.6364 219.256 75.1276 221.233 76.1101C223.221 77.0807 224.754 78.4775 225.831 80.3004C226.908 82.1115 227.447 84.2599 227.447 86.7457C227.447 89.267 226.897 91.4096 225.796 93.1733C224.695 94.9252 223.132 96.2628 221.108 97.1861C219.084 98.0975 216.687 98.5533 213.917 98.5533H204.418V91.6286H212.284C213.609 91.6286 214.716 91.4569 215.604 91.1136C216.504 90.7585 217.184 90.2259 217.646 89.5156C218.108 88.7936 218.338 87.8703 218.338 86.7457C218.338 85.6212 218.108 84.692 217.646 83.9581C217.184 83.2124 216.504 82.656 215.604 82.2891C214.704 81.9103 213.598 81.7209 212.284 81.7209H207.951V111H199.162ZM219.635 94.3807L228.69 111H219.102L210.224 94.3807H219.635Z" fill="black"/>
</svg>
