<svg width="436" height="135" viewBox="0 0 436 135" fill="none" xmlns="http://www.w3.org/2000/svg">
<path d="M2 2H433.394V133H2V2Z" fill="white" stroke="black" stroke-width="4"/>
<path d="M83.3764 35.5384C83.258 34.2363 82.7313 33.2242 81.7962 32.5021C80.8729 31.7682 79.553 31.4013 77.8366 31.4013C76.7003 31.4013 75.7533 31.5492 74.9957 31.8452C74.2382 32.1411 73.67 32.5495 73.2912 33.0703C72.9124 33.5793 72.7171 34.1652 72.7053 34.8281C72.6816 35.3726 72.7881 35.852 73.0249 36.2663C73.2734 36.6806 73.6286 37.0476 74.0902 37.3672C74.5637 37.675 75.1319 37.9472 75.7947 38.1839C76.4576 38.4207 77.2034 38.6278 78.032 38.8054L81.157 39.5156C82.9562 39.9062 84.5424 40.4271 85.9155 41.0781C87.3004 41.7292 88.4605 42.5045 89.3956 43.4041C90.3426 44.3037 91.0587 45.3395 91.544 46.5114C92.0294 47.6832 92.2779 48.9972 92.2898 50.4531C92.2779 52.7495 91.6979 54.7204 90.5497 56.3658C89.4015 58.0111 87.7502 59.2718 85.5959 60.1477C83.4534 61.0237 80.867 61.4616 77.8366 61.4616C74.7945 61.4616 72.143 61.0059 69.8821 60.0945C67.6212 59.183 65.8634 57.7981 64.6087 55.9396C63.3539 54.0812 62.7088 51.7315 62.6733 48.8906H71.0895C71.1605 50.0625 71.4742 51.0391 72.0305 51.8203C72.5869 52.6016 73.3504 53.1934 74.321 53.5959C75.3035 53.9983 76.4399 54.1996 77.7301 54.1996C78.9138 54.1996 79.92 54.0398 80.7486 53.7202C81.589 53.4006 82.2341 52.9567 82.6839 52.3885C83.1338 51.8203 83.3646 51.1693 83.3764 50.4354C83.3646 49.7488 83.1515 49.1629 82.7372 48.6776C82.3229 48.1804 81.6837 47.7543 80.8196 47.3991C79.9673 47.0322 78.8783 46.6948 77.5526 46.3871L73.7528 45.4993C70.6042 44.7772 68.1243 43.6113 66.3132 42.0014C64.5021 40.3797 63.6025 38.1899 63.6143 35.4318C63.6025 33.1828 64.2062 31.2119 65.4254 29.5192C66.6446 27.8265 68.3314 26.5066 70.4858 25.5597C72.6402 24.6127 75.0964 24.1392 77.8544 24.1392C80.6716 24.1392 83.116 24.6186 85.1875 25.5774C87.2708 26.5244 88.8866 27.8561 90.0348 29.5724C91.183 31.2888 91.7689 33.2775 91.7926 35.5384H83.3764ZM95.2287 61V24.6364H104.018V39.2315H118.347V24.6364H127.118V61H118.347V46.3871H104.018V61H95.2287ZM138.997 61H129.551L141.82 24.6364H153.521L165.79 61H156.344L147.804 33.7983H147.52L138.997 61ZM137.736 46.6889H157.48V53.3651H137.736V46.6889ZM168.205 61V24.6364H183.227C185.949 24.6364 188.299 25.1276 190.276 26.1101C192.264 27.0807 193.797 28.4775 194.874 30.3004C195.951 32.1115 196.49 34.2599 196.49 36.7457C196.49 39.267 195.94 41.4096 194.839 43.1733C193.738 44.9252 192.175 46.2628 190.151 47.1861C188.127 48.0975 185.73 48.5533 182.96 48.5533H173.461V41.6286H181.327C182.652 41.6286 183.759 41.4569 184.647 41.1136C185.547 40.7585 186.227 40.2259 186.689 39.5156C187.151 38.7936 187.381 37.8703 187.381 36.7457C187.381 35.6212 187.151 34.692 186.689 33.9581C186.227 33.2124 185.547 32.656 184.647 32.2891C183.747 31.9103 182.641 31.7209 181.327 31.7209H176.994V61H168.205ZM188.678 44.3807L197.733 61H188.145L179.267 44.3807H188.678ZM199.811 61V24.6364H225.166V31.7741H208.6V39.2315H223.87V46.3871H208.6V53.8622H225.166V61H199.811ZM236.601 24.6364H246.42L254.108 39.853H254.428L262.116 24.6364H271.935L258.636 48.8551V61H249.9V48.8551L236.601 24.6364ZM306.048 42.8182C306.048 46.8191 305.279 50.2105 303.74 52.9922C302.201 55.7739 300.118 57.8868 297.49 59.331C294.874 60.7751 291.939 61.4972 288.683 61.4972C285.416 61.4972 282.475 60.7692 279.859 59.3132C277.243 57.8572 275.165 55.7443 273.627 52.9744C272.1 50.1927 271.336 46.8073 271.336 42.8182C271.336 38.8172 272.1 35.4259 273.627 32.6442C275.165 29.8625 277.243 27.7495 279.859 26.3054C282.475 24.8613 285.416 24.1392 288.683 24.1392C291.939 24.1392 294.874 24.8613 297.49 26.3054C300.118 27.7495 302.201 29.8625 303.74 32.6442C305.279 35.4259 306.048 38.8172 306.048 42.8182ZM297.064 42.8182C297.064 40.4508 296.727 38.4503 296.052 36.8168C295.389 35.1832 294.43 33.9463 293.176 33.1058C291.933 32.2654 290.435 31.8452 288.683 31.8452C286.943 31.8452 285.446 32.2654 284.191 33.1058C282.936 33.9463 281.972 35.1832 281.297 36.8168C280.634 38.4503 280.303 40.4508 280.303 42.8182C280.303 45.1856 280.634 47.1861 281.297 48.8196C281.972 50.4531 282.936 51.6901 284.191 52.5305C285.446 53.371 286.943 53.7912 288.683 53.7912C290.435 53.7912 291.933 53.371 293.176 52.5305C294.43 51.6901 295.389 50.4531 296.052 48.8196C296.727 47.1861 297.064 45.1856 297.064 42.8182ZM331.679 24.6364H340.45V48.0916C340.45 50.8023 339.805 53.1638 338.515 55.1761C337.225 57.1766 335.426 58.7273 333.117 59.8281C330.809 60.9171 328.128 61.4616 325.074 61.4616C321.985 61.4616 319.286 60.9171 316.977 59.8281C314.669 58.7273 312.876 57.1766 311.597 55.1761C310.319 53.1638 309.68 50.8023 309.68 48.0916V24.6364H318.469V47.3281C318.469 48.5829 318.741 49.7015 319.286 50.6839C319.842 51.6664 320.617 52.4358 321.612 52.9922C322.606 53.5485 323.76 53.8267 325.074 53.8267C326.388 53.8267 327.536 53.5485 328.519 52.9922C329.513 52.4358 330.288 51.6664 330.845 50.6839C331.401 49.7015 331.679 48.5829 331.679 47.3281V24.6364ZM344.459 61V24.6364H359.48C362.203 24.6364 364.553 25.1276 366.529 26.1101C368.518 27.0807 370.051 28.4775 371.128 30.3004C372.205 32.1115 372.744 34.2599 372.744 36.7457C372.744 39.267 372.194 41.4096 371.093 43.1733C369.992 44.9252 368.429 46.2628 366.405 47.1861C364.381 48.0975 361.984 48.5533 359.214 48.5533H349.715V41.6286H357.581C358.906 41.6286 360.013 41.4569 360.901 41.1136C361.801 40.7585 362.481 40.2259 362.943 39.5156C363.404 38.7936 363.635 37.8703 363.635 36.7457C363.635 35.6212 363.404 34.692 362.943 33.9581C362.481 33.2124 361.801 32.656 360.901 32.2891C360.001 31.9103 358.895 31.7209 357.581 31.7209H353.248V61H344.459ZM364.931 44.3807L373.987 61H364.399L355.521 44.3807H364.931ZM88.2043 74.6364H99.0885L108.321 97.1506H108.748L117.981 74.6364H128.865V111H120.307V88.6634H120.005L111.269 110.769H105.8L97.0644 88.5391H96.7625V111H88.2043V74.6364ZM132.847 111V74.6364H158.202V81.7741H141.636V89.2315H156.906V96.3871H141.636V103.862H158.202V111H132.847ZM162.206 74.6364H173.09L182.323 97.1506H182.75L191.983 74.6364H202.867V111H194.309V88.6634H194.007L185.271 110.769H179.802L171.066 88.5391H170.764V111H162.206V74.6364ZM241.171 92.8182C241.171 96.8191 240.401 100.21 238.862 102.992C237.323 105.774 235.24 107.887 232.612 109.331C229.996 110.775 227.061 111.497 223.805 111.497C220.538 111.497 217.597 110.769 214.981 109.313C212.365 107.857 210.287 105.744 208.749 102.974C207.222 100.193 206.458 96.8073 206.458 92.8182C206.458 88.8172 207.222 85.4259 208.749 82.6442C210.287 79.8625 212.365 77.7495 214.981 76.3054C217.597 74.8613 220.538 74.1392 223.805 74.1392C227.061 74.1392 229.996 74.8613 232.612 76.3054C235.24 77.7495 237.323 79.8625 238.862 82.6442C240.401 85.4259 241.171 88.8172 241.171 92.8182ZM232.186 92.8182C232.186 90.4508 231.849 88.4503 231.174 86.8168C230.511 85.1832 229.552 83.9463 228.298 83.1058C227.055 82.2654 225.557 81.8452 223.805 81.8452C222.065 81.8452 220.568 82.2654 219.313 83.1058C218.059 83.9463 217.094 85.1832 216.419 86.8168C215.756 88.4503 215.425 90.4508 215.425 92.8182C215.425 95.1856 215.756 97.1861 216.419 98.8196C217.094 100.453 218.059 101.69 219.313 102.531C220.568 103.371 222.065 103.791 223.805 103.791C225.557 103.791 227.055 103.371 228.298 102.531C229.552 101.69 230.511 100.453 231.174 98.8196C231.849 97.1861 232.186 95.1856 232.186 92.8182ZM244.802 111V74.6364H259.823C262.546 74.6364 264.895 75.1276 266.872 76.1101C268.861 77.0807 270.394 78.4775 271.471 80.3004C272.548 82.1115 273.087 84.2599 273.087 86.7457C273.087 89.267 272.536 91.4096 271.435 93.1733C270.335 94.9252 268.772 96.2628 266.748 97.1861C264.724 98.0975 262.327 98.5533 259.557 98.5533H250.058V91.6286H257.923C259.249 91.6286 260.356 91.4569 261.244 91.1136C262.143 90.7585 262.824 90.2259 263.286 89.5156C263.747 88.7936 263.978 87.8703 263.978 86.7457C263.978 85.6212 263.747 84.692 263.286 83.9581C262.824 83.2124 262.143 82.656 261.244 82.2891C260.344 81.9103 259.237 81.7209 257.923 81.7209H253.591V111H244.802ZM265.274 94.3807L274.33 111H264.742L255.864 94.3807H265.274ZM285.196 74.6364V111H276.407V74.6364H285.196ZM289.214 111V74.6364H314.569V81.7741H298.003V89.2315H313.273V96.3871H298.003V103.862H314.569V111H289.214ZM338.229 85.5384C338.111 84.2363 337.584 83.2242 336.649 82.5021C335.725 81.7682 334.406 81.4013 332.689 81.4013C331.553 81.4013 330.606 81.5492 329.848 81.8452C329.091 82.1411 328.523 82.5495 328.144 83.0703C327.765 83.5793 327.57 84.1652 327.558 84.8281C327.534 85.3726 327.641 85.852 327.877 86.2663C328.126 86.6806 328.481 87.0476 328.943 87.3672C329.416 87.675 329.984 87.9472 330.647 88.1839C331.31 88.4207 332.056 88.6278 332.884 88.8054L336.009 89.5156C337.809 89.9062 339.395 90.4271 340.768 91.0781C342.153 91.7292 343.313 92.5045 344.248 93.4041C345.195 94.3037 345.911 95.3395 346.397 96.5114C346.882 97.6832 347.13 98.9972 347.142 100.453C347.13 102.75 346.55 104.72 345.402 106.366C344.254 108.011 342.603 109.272 340.448 110.148C338.306 111.024 335.719 111.462 332.689 111.462C329.647 111.462 326.996 111.006 324.735 110.094C322.474 109.183 320.716 107.798 319.461 105.94C318.206 104.081 317.561 101.732 317.526 98.8906H325.942C326.013 100.062 326.327 101.039 326.883 101.82C327.439 102.602 328.203 103.193 329.174 103.596C330.156 103.998 331.292 104.2 332.583 104.2C333.766 104.2 334.773 104.04 335.601 103.72C336.442 103.401 337.087 102.957 337.536 102.388C337.986 101.82 338.217 101.169 338.229 100.435C338.217 99.7488 338.004 99.1629 337.59 98.6776C337.175 98.1804 336.536 97.7543 335.672 97.3991C334.82 97.0322 333.731 96.6948 332.405 96.3871L328.605 95.4993C325.457 94.7772 322.977 93.6113 321.166 92.0014C319.355 90.3797 318.455 88.1899 318.467 85.4318C318.455 83.1828 319.059 81.2119 320.278 79.5192C321.497 77.8265 323.184 76.5066 325.338 75.5597C327.493 74.6127 329.949 74.1392 332.707 74.1392C335.524 74.1392 337.969 74.6186 340.04 75.5774C342.123 76.5244 343.739 77.8561 344.887 79.5724C346.036 81.2888 346.621 83.2775 346.645 85.5384H338.229Z" fill="black"/>
</svg>
