<svg width="325" height="135" viewBox="0 0 325 135" fill="none" xmlns="http://www.w3.org/2000/svg">
<path d="M2 2H323V133H2V2Z" fill="white" stroke="black" stroke-width="4"/>
<path d="M33.7521 44.6364H44.6364L53.8693 67.1506H54.2955L63.5284 44.6364H74.4126V81H65.8544V58.6634H65.5526L56.8168 80.7692H51.348L42.6122 58.5391H42.3104V81H33.7521V44.6364ZM78.3947 81V44.6364H103.75V51.7741H87.1838V59.2315H102.454V66.3871H87.1838V73.8622H103.75V81H78.3947ZM107.754 44.6364H118.638L127.871 67.1506H128.297L137.53 44.6364H148.415V81H139.856V58.6634H139.555L130.819 80.7692H125.35L116.614 58.5391H116.312V81H107.754V44.6364ZM186.718 62.8182C186.718 66.8191 185.949 70.2105 184.41 72.9922C182.871 75.7739 180.788 77.8868 178.16 79.331C175.544 80.7751 172.609 81.4972 169.353 81.4972C166.086 81.4972 163.145 80.7692 160.529 79.3132C157.913 77.8572 155.835 75.7443 154.297 72.9744C152.77 70.1927 152.006 66.8073 152.006 62.8182C152.006 58.8172 152.77 55.4259 154.297 52.6442C155.835 49.8625 157.913 47.7495 160.529 46.3054C163.145 44.8613 166.086 44.1392 169.353 44.1392C172.609 44.1392 175.544 44.8613 178.16 46.3054C180.788 47.7495 182.871 49.8625 184.41 52.6442C185.949 55.4259 186.718 58.8172 186.718 62.8182ZM177.734 62.8182C177.734 60.4508 177.397 58.4503 176.722 56.8168C176.059 55.1832 175.1 53.9463 173.846 53.1058C172.603 52.2654 171.105 51.8452 169.353 51.8452C167.613 51.8452 166.116 52.2654 164.861 53.1058C163.606 53.9463 162.642 55.1832 161.967 56.8168C161.304 58.4503 160.973 60.4508 160.973 62.8182C160.973 65.1856 161.304 67.1861 161.967 68.8196C162.642 70.4531 163.606 71.6901 164.861 72.5305C166.116 73.371 167.613 73.7912 169.353 73.7912C171.105 73.7912 172.603 73.371 173.846 72.5305C175.1 71.6901 176.059 70.4531 176.722 68.8196C177.397 67.1861 177.734 65.1856 177.734 62.8182ZM190.35 81V44.6364H205.371C208.094 44.6364 210.443 45.1276 212.42 46.1101C214.409 47.0807 215.942 48.4775 217.019 50.3004C218.096 52.1115 218.635 54.2599 218.635 56.7457C218.635 59.267 218.084 61.4096 216.983 63.1733C215.882 64.9252 214.32 66.2628 212.296 67.1861C210.272 68.0975 207.875 68.5533 205.105 68.5533H195.605V61.6286H203.471C204.797 61.6286 205.904 61.4569 206.792 61.1136C207.691 60.7585 208.372 60.2259 208.833 59.5156C209.295 58.7936 209.526 57.8703 209.526 56.7457C209.526 55.6212 209.295 54.692 208.833 53.9581C208.372 53.2124 207.691 52.656 206.792 52.2891C205.892 51.9103 204.785 51.7209 203.471 51.7209H199.139V81H190.35ZM210.822 64.3807L219.877 81H210.289L201.412 64.3807H210.822ZM230.744 44.6364V81H221.955V44.6364H230.744ZM234.762 81V44.6364H260.117V51.7741H243.551V59.2315H258.821V66.3871H243.551V73.8622H260.117V81H234.762ZM283.777 55.5384C283.658 54.2363 283.132 53.2242 282.197 52.5021C281.273 51.7682 279.953 51.4013 278.237 51.4013C277.101 51.4013 276.154 51.5492 275.396 51.8452C274.639 52.1411 274.07 52.5495 273.692 53.0703C273.313 53.5793 273.117 54.1652 273.106 54.8281C273.082 55.3726 273.189 55.852 273.425 56.2663C273.674 56.6806 274.029 57.0476 274.491 57.3672C274.964 57.675 275.532 57.9472 276.195 58.1839C276.858 58.4207 277.604 58.6278 278.432 58.8054L281.557 59.5156C283.357 59.9062 284.943 60.4271 286.316 61.0781C287.701 61.7292 288.861 62.5045 289.796 63.4041C290.743 64.3037 291.459 65.3395 291.944 66.5114C292.43 67.6832 292.678 68.9972 292.69 70.4531C292.678 72.7495 292.098 74.7204 290.95 76.3658C289.802 78.0111 288.151 79.2718 285.996 80.1477C283.854 81.0237 281.267 81.4616 278.237 81.4616C275.195 81.4616 272.543 81.0059 270.282 80.0945C268.022 79.183 266.264 77.7981 265.009 75.9396C263.754 74.0812 263.109 71.7315 263.074 68.8906H271.49C271.561 70.0625 271.875 71.0391 272.431 71.8203C272.987 72.6016 273.751 73.1934 274.721 73.5959C275.704 73.9983 276.84 74.1996 278.131 74.1996C279.314 74.1996 280.32 74.0398 281.149 73.7202C281.989 73.4006 282.635 72.9567 283.084 72.3885C283.534 71.8203 283.765 71.1693 283.777 70.4354C283.765 69.7488 283.552 69.1629 283.138 68.6776C282.723 68.1804 282.084 67.7543 281.22 67.3991C280.368 67.0322 279.279 66.6948 277.953 66.3871L274.153 65.4993C271.005 64.7772 268.525 63.6113 266.714 62.0014C264.903 60.3797 264.003 58.1899 264.015 55.4318C264.003 53.1828 264.607 51.2119 265.826 49.5192C267.045 47.8265 268.732 46.5066 270.886 45.5597C273.041 44.6127 275.497 44.1392 278.255 44.1392C281.072 44.1392 283.516 44.6186 285.588 45.5774C287.671 46.5244 289.287 47.8561 290.435 49.5724C291.583 51.2888 292.169 53.2775 292.193 55.5384H283.777Z" fill="black"/>
</svg>
