<svg width="387" height="53" viewBox="0 0 387 53" fill="none" xmlns="http://www.w3.org/2000/svg">
<path d="M0 0H387V53H0V0Z" fill="white"/>
<path d="M52.8313 32V17.4545H58.8967C59.9857 17.4545 60.8971 17.6084 61.631 17.9162C62.3697 18.224 62.9237 18.6548 63.293 19.2088C63.667 19.7628 63.854 20.4044 63.854 21.1335C63.854 21.6875 63.738 22.1823 63.506 22.6179C63.274 23.0488 62.9544 23.4062 62.5472 23.6903C62.14 23.9744 61.6689 24.1733 61.1339 24.2869V24.429C61.721 24.4574 62.2631 24.616 62.7603 24.9048C63.2622 25.1937 63.6647 25.5961 63.9677 26.1122C64.2707 26.6236 64.4222 27.2296 64.4222 27.9304C64.4222 28.7116 64.2234 29.41 63.8256 30.0256C63.4279 30.6364 62.8526 31.1193 62.0998 31.4744C61.3469 31.8248 60.4331 32 59.3583 32H52.8313ZM56.3469 29.1662H58.5202C59.2826 29.1662 59.8436 29.0218 60.2035 28.733C60.5681 28.4441 60.7504 28.0417 60.7504 27.5256C60.7504 27.1515 60.6628 26.8295 60.4876 26.5597C60.3124 26.285 60.0638 26.0743 59.7418 25.9276C59.4199 25.776 59.034 25.7003 58.5842 25.7003H56.3469V29.1662ZM56.3469 23.4347H58.293C58.6765 23.4347 59.0174 23.3707 59.3157 23.2429C59.614 23.1151 59.846 22.9304 60.0117 22.6889C60.1822 22.4474 60.2674 22.1562 60.2674 21.8153C60.2674 21.3277 60.0946 20.9441 59.7489 20.6648C59.4033 20.3854 58.9369 20.2457 58.3498 20.2457H56.3469V23.4347ZM65.5126 32V17.4545H75.6546V20.3097H69.0282V23.2926H75.1362V26.1548H69.0282V29.1449H75.6546V32H65.5126ZM85.1185 21.8153C85.0712 21.2945 84.8605 20.8897 84.4864 20.6009C84.1171 20.3073 83.5892 20.1605 82.9026 20.1605C82.4481 20.1605 82.0693 20.2197 81.7663 20.3381C81.4632 20.4564 81.236 20.6198 81.0844 20.8281C80.9329 21.0317 80.8548 21.2661 80.8501 21.5312C80.8406 21.7491 80.8832 21.9408 80.9779 22.1065C81.0773 22.2723 81.2194 22.419 81.404 22.5469C81.5934 22.67 81.8207 22.7789 82.0859 22.8736C82.351 22.9683 82.6493 23.0511 82.9808 23.1222L84.2308 23.4062C84.9504 23.5625 85.5849 23.7708 86.1342 24.0312C86.6881 24.2917 87.1522 24.6018 87.5262 24.9616C87.905 25.3215 88.1915 25.7358 88.3856 26.2045C88.5797 26.6733 88.6791 27.1989 88.6839 27.7812C88.6791 28.6998 88.4471 29.4882 87.9879 30.1463C87.5286 30.8045 86.8681 31.3087 86.0063 31.6591C85.1493 32.0095 84.1147 32.1847 82.9026 32.1847C81.6858 32.1847 80.6252 32.0024 79.7208 31.6378C78.8165 31.2732 78.1133 30.7192 77.6114 29.9759C77.1095 29.2325 76.8515 28.2926 76.8373 27.1562H80.2038C80.2322 27.625 80.3576 28.0156 80.5802 28.3281C80.8027 28.6406 81.1081 28.8774 81.4964 29.0384C81.8894 29.1993 82.3439 29.2798 82.86 29.2798C83.3335 29.2798 83.736 29.2159 84.0674 29.0881C84.4036 28.9602 84.6616 28.7827 84.8415 28.5554C85.0215 28.3281 85.1138 28.0677 85.1185 27.7741C85.1138 27.4995 85.0286 27.2652 84.8629 27.071C84.6971 26.8722 84.4415 26.7017 84.0958 26.5597C83.7549 26.4129 83.3193 26.2779 82.789 26.1548L81.2691 25.7997C80.0096 25.5109 79.0177 25.0445 78.2933 24.4006C77.5688 23.7519 77.209 22.8759 77.2137 21.7727C77.209 20.8731 77.4504 20.0848 77.9381 19.4077C78.4258 18.7306 79.1005 18.2027 79.9623 17.8239C80.824 17.4451 81.8065 17.2557 82.9097 17.2557C84.0366 17.2557 85.0144 17.4474 85.843 17.831C86.6763 18.2098 87.3226 18.7424 87.7819 19.429C88.2412 20.1155 88.4755 20.911 88.485 21.8153H85.1185ZM89.8594 32V17.4545H93.3751V23.6051H93.5668L98.3751 17.4545H102.516L97.3594 23.946L102.608 32H98.4035L94.7813 26.2827L93.3751 28.0582V32H89.8594ZM103.302 32V17.4545H109.311C110.4 17.4545 111.34 17.651 112.131 18.044C112.926 18.4323 113.539 18.991 113.97 19.7202C114.401 20.4446 114.616 21.304 114.616 22.2983C114.616 23.3068 114.396 24.1638 113.956 24.8693C113.515 25.5701 112.89 26.1051 112.081 26.4744C111.271 26.839 110.312 27.0213 109.204 27.0213H105.405V24.2514H108.551C109.081 24.2514 109.524 24.1828 109.879 24.0455C110.239 23.9034 110.511 23.6903 110.696 23.4062C110.881 23.1174 110.973 22.7481 110.973 22.2983C110.973 21.8485 110.881 21.4768 110.696 21.1832C110.511 20.8849 110.239 20.6624 109.879 20.5156C109.519 20.3641 109.077 20.2884 108.551 20.2884H106.818V32H103.302ZM111.491 25.3523L115.113 32H111.278L107.727 25.3523H111.491ZM119.46 17.4545V32H115.945V17.4545H119.46ZM124.37 17.4545L127.623 28.108H127.743L130.996 17.4545H134.931L130.023 32H125.343L120.435 17.4545H124.37ZM135.897 32V17.4545H146.039V20.3097H139.413V23.2926H145.521V26.1548H139.413V29.1449H146.039V32H135.897ZM147.641 32V17.4545H151.156V29.1449H157.207V32H147.641ZM166.29 21.8153C166.242 21.2945 166.032 20.8897 165.658 20.6009C165.288 20.3073 164.76 20.1605 164.074 20.1605C163.619 20.1605 163.24 20.2197 162.937 20.3381C162.634 20.4564 162.407 20.6198 162.256 20.8281C162.104 21.0317 162.026 21.2661 162.021 21.5312C162.012 21.7491 162.054 21.9408 162.149 22.1065C162.248 22.2723 162.39 22.419 162.575 22.5469C162.765 22.67 162.992 22.7789 163.257 22.8736C163.522 22.9683 163.82 23.0511 164.152 23.1222L165.402 23.4062C166.122 23.5625 166.756 23.7708 167.305 24.0312C167.859 24.2917 168.323 24.6018 168.697 24.9616C169.076 25.3215 169.363 25.7358 169.557 26.2045C169.751 26.6733 169.85 27.1989 169.855 27.7812C169.85 28.6998 169.618 29.4882 169.159 30.1463C168.7 30.8045 168.039 31.3087 167.177 31.6591C166.32 32.0095 165.286 32.1847 164.074 32.1847C162.857 32.1847 161.796 32.0024 160.892 31.6378C159.988 31.2732 159.284 30.7192 158.783 29.9759C158.281 29.2325 158.023 28.2926 158.008 27.1562H161.375C161.403 27.625 161.529 28.0156 161.751 28.3281C161.974 28.6406 162.279 28.8774 162.667 29.0384C163.06 29.1993 163.515 29.2798 164.031 29.2798C164.505 29.2798 164.907 29.2159 165.238 29.0881C165.575 28.9602 165.833 28.7827 166.013 28.5554C166.193 28.3281 166.285 28.0677 166.29 27.7741C166.285 27.4995 166.2 27.2652 166.034 27.071C165.868 26.8722 165.613 26.7017 165.267 26.5597C164.926 26.4129 164.49 26.2779 163.96 26.1548L162.44 25.7997C161.181 25.5109 160.189 25.0445 159.464 24.4006C158.74 23.7519 158.38 22.8759 158.385 21.7727C158.38 20.8731 158.622 20.0848 159.109 19.4077C159.597 18.7306 160.272 18.2027 161.133 17.8239C161.995 17.4451 162.978 17.2557 164.081 17.2557C165.208 17.2557 166.185 17.4474 167.014 17.831C167.847 18.2098 168.494 18.7424 168.953 19.429C169.412 20.1155 169.647 20.911 169.656 21.8153H166.29ZM171.031 32V17.4545H181.173V20.3097H174.546V23.2926H180.654V26.1548H174.546V29.1449H181.173V32H171.031ZM187.16 24.7273C187.16 22.9706 187.397 21.3561 187.87 19.8835C188.344 18.4062 189.082 17.0355 190.086 15.7713H193.453C193.074 16.2401 192.721 16.8106 192.394 17.483C192.068 18.1553 191.784 18.8916 191.542 19.6918C191.305 20.492 191.118 21.3205 190.981 22.1776C190.849 23.0346 190.782 23.8845 190.782 24.7273C190.782 25.8447 190.898 26.974 191.13 28.1151C191.362 29.2514 191.68 30.3073 192.082 31.2827C192.484 32.2533 192.941 33.0511 193.453 33.6761H190.086C189.082 32.4119 188.344 31.0436 187.87 29.571C187.397 28.0937 187.16 26.4792 187.16 24.7273ZM194.367 17.4545H198.721L202.414 26.4602H202.585L206.278 17.4545H210.631V32H207.208V23.0653H207.087L203.593 31.9077H201.406L197.911 23.0156H197.791V32H194.367V17.4545ZM215.371 32H211.592L216.5 17.4545H221.18L226.088 32H222.31L218.893 21.1193H218.78L215.371 32ZM214.866 26.2756H222.764V28.946H214.866V26.2756ZM230.612 17.4545L233.268 22.0497H233.382L236.067 17.4545H240.001L235.612 24.7273L240.143 32H236.109L233.382 27.3551H233.268L230.541 32H226.536L231.045 24.7273L226.649 17.4545H230.612ZM251.614 17.4545V32H248.105V20.7358H248.02L244.767 22.7244V19.6847L248.354 17.4545H251.614ZM260.245 32.3551C258.976 32.3551 257.882 32.0545 256.964 31.4531C256.045 30.8471 255.337 29.9782 254.84 28.8466C254.343 27.7102 254.097 26.3442 254.102 24.7486C254.106 23.1529 254.355 21.7988 254.847 20.6861C255.345 19.5687 256.05 18.7187 256.964 18.1364C257.882 17.5492 258.976 17.2557 260.245 17.2557C261.514 17.2557 262.608 17.5492 263.526 18.1364C264.45 18.7187 265.16 19.5687 265.657 20.6861C266.154 21.8035 266.4 23.1577 266.396 24.7486C266.396 26.349 266.147 27.7173 265.65 28.8537C265.153 29.9901 264.445 30.8589 263.526 31.4602C262.613 32.0568 261.519 32.3551 260.245 32.3551ZM260.245 29.4787C261.003 29.4787 261.616 29.0928 262.085 28.321C262.553 27.5445 262.785 26.3537 262.781 24.7486C262.781 23.6974 262.674 22.831 262.461 22.1491C262.248 21.4626 261.952 20.9512 261.573 20.6151C261.194 20.2789 260.752 20.1108 260.245 20.1108C259.492 20.1108 258.884 20.492 258.42 21.2543C257.956 22.0118 257.721 23.1766 257.717 24.7486C257.712 25.8139 257.814 26.697 258.022 27.3977C258.235 28.0985 258.533 28.6217 258.917 28.9673C259.3 29.3082 259.743 29.4787 260.245 29.4787ZM273.825 32.3551C272.556 32.3551 271.462 32.0545 270.544 31.4531C269.625 30.8471 268.917 29.9782 268.42 28.8466C267.923 27.7102 267.677 26.3442 267.681 24.7486C267.686 23.1529 267.935 21.7988 268.427 20.6861C268.924 19.5687 269.63 18.7187 270.544 18.1364C271.462 17.5492 272.556 17.2557 273.825 17.2557C275.094 17.2557 276.187 17.5492 277.106 18.1364C278.029 18.7187 278.74 19.5687 279.237 20.6861C279.734 21.8035 279.98 23.1577 279.975 24.7486C279.975 26.349 279.727 27.7173 279.23 28.8537C278.732 29.9901 278.025 30.8589 277.106 31.4602C276.192 32.0568 275.098 32.3551 273.825 32.3551ZM273.825 29.4787C274.582 29.4787 275.196 29.0928 275.664 28.321C276.133 27.5445 276.365 26.3537 276.36 24.7486C276.36 23.6974 276.254 22.831 276.041 22.1491C275.828 21.4626 275.532 20.9512 275.153 20.6151C274.774 20.2789 274.331 20.1108 273.825 20.1108C273.072 20.1108 272.464 20.492 272 21.2543C271.535 22.0118 271.301 23.1766 271.296 24.7486C271.292 25.8139 271.393 26.697 271.602 27.3977C271.815 28.0985 272.113 28.6217 272.497 28.9673C272.88 29.3082 273.323 29.4787 273.825 29.4787ZM284.638 20.3097V17.4545H296.932V20.3097H292.522V32H289.056V20.3097H284.638ZM298.049 32V17.4545H308.191V20.3097H301.565V23.2926H307.673V26.1548H301.565V29.1449H308.191V32H298.049ZM319.339 22.206C319.258 21.9077 319.14 21.6449 318.983 21.4176C318.827 21.1856 318.635 20.9891 318.408 20.8281C318.181 20.6671 317.92 20.5464 317.627 20.4659C317.333 20.3807 317.011 20.3381 316.661 20.3381C315.955 20.3381 315.345 20.5085 314.829 20.8494C314.317 21.1903 313.922 21.6875 313.642 22.3409C313.363 22.9896 313.223 23.7779 313.223 24.706C313.223 25.6387 313.358 26.4342 313.628 27.0923C313.898 27.7505 314.289 28.2524 314.8 28.598C315.312 28.9437 315.932 29.1165 316.661 29.1165C317.305 29.1165 317.849 29.0123 318.294 28.804C318.744 28.5909 319.085 28.2902 319.317 27.902C319.549 27.5137 319.665 27.0568 319.665 26.5312L320.319 26.6094H316.782V24.0455H323.053V25.9702C323.053 27.2723 322.776 28.3873 322.222 29.3153C321.673 30.2434 320.915 30.956 319.949 31.4531C318.988 31.9503 317.883 32.1989 316.633 32.1989C315.245 32.1989 314.026 31.8982 312.975 31.2969C311.924 30.6955 311.105 29.8385 310.517 28.7259C309.93 27.6084 309.637 26.2827 309.637 24.7486C309.637 23.5554 309.814 22.4972 310.169 21.5739C310.525 20.6458 311.019 19.8598 311.654 19.2159C312.293 18.572 313.032 18.0843 313.87 17.7528C314.713 17.4214 315.619 17.2557 316.59 17.2557C317.433 17.2557 318.216 17.3764 318.941 17.6179C319.67 17.8594 320.314 18.2003 320.873 18.6406C321.436 19.081 321.893 19.6042 322.243 20.2102C322.594 20.8163 322.812 21.4815 322.897 22.206H319.339ZM336.904 17.4545V32H333.921L328.133 23.6051H328.041V32H324.525V17.4545H327.551L333.275 25.8352H333.396V17.4545H336.904ZM344.119 24.7273C344.119 26.4792 343.882 28.0937 343.408 29.571C342.935 31.0436 342.196 32.4119 341.192 33.6761H337.826C338.21 33.2074 338.562 32.6368 338.884 31.9645C339.211 31.2921 339.493 30.5559 339.729 29.7557C339.971 28.9555 340.158 28.1269 340.29 27.2699C340.428 26.4129 340.496 25.5653 340.496 24.7273C340.496 23.6051 340.38 22.4759 340.148 21.3395C339.916 20.1984 339.599 19.1425 339.197 18.1719C338.794 17.1965 338.337 16.3963 337.826 15.7713H341.192C342.196 17.0355 342.935 18.4062 343.408 19.8835C343.882 21.3561 344.119 22.9706 344.119 24.7273Z" fill="black"/>
</svg>
