<svg width="165" height="53" viewBox="0 0 165 53" fill="none" xmlns="http://www.w3.org/2000/svg">
<path d="M0 0H164.579V53H0V0Z" fill="#F8FA10"/>
<path d="M62.9631 21.8153C62.9157 21.2945 62.705 20.8897 62.331 20.6009C61.9616 20.3073 61.4337 20.1605 60.7472 20.1605C60.2926 20.1605 59.9138 20.2197 59.6108 20.3381C59.3078 20.4564 59.0805 20.6198 58.929 20.8281C58.7775 21.0317 58.6993 21.2661 58.6946 21.5312C58.6851 21.7491 58.7277 21.9408 58.8224 22.1065C58.9219 22.2723 59.0639 22.419 59.2486 22.5469C59.438 22.67 59.6652 22.7789 59.9304 22.8736C60.1955 22.9683 60.4938 23.0511 60.8253 23.1222L62.0753 23.4062C62.795 23.5625 63.4295 23.7708 63.9787 24.0312C64.5327 24.2917 64.9967 24.6018 65.3707 24.9616C65.7495 25.3215 66.036 25.7358 66.2301 26.2045C66.4242 26.6733 66.5237 27.1989 66.5284 27.7812C66.5237 28.6998 66.2917 29.4882 65.8324 30.1463C65.3731 30.8045 64.7126 31.3087 63.8509 31.6591C62.9938 32.0095 61.9593 32.1847 60.7472 32.1847C59.5303 32.1847 58.4697 32.0024 57.5653 31.6378C56.661 31.2732 55.9579 30.7192 55.456 29.9759C54.9541 29.2325 54.696 28.2926 54.6818 27.1562H58.0483C58.0767 27.625 58.2022 28.0156 58.4247 28.3281C58.6473 28.6406 58.9527 28.8774 59.3409 29.0384C59.7339 29.1993 60.1884 29.2798 60.7045 29.2798C61.178 29.2798 61.5805 29.2159 61.9119 29.0881C62.2481 28.9602 62.5062 28.7827 62.6861 28.5554C62.866 28.3281 62.9583 28.0677 62.9631 27.7741C62.9583 27.4995 62.8731 27.2652 62.7074 27.071C62.5417 26.8722 62.286 26.7017 61.9403 26.5597C61.5994 26.4129 61.1638 26.2779 60.6335 26.1548L59.1136 25.7997C57.8542 25.5109 56.8622 25.0445 56.1378 24.4006C55.4134 23.7519 55.0535 22.8759 55.0582 21.7727C55.0535 20.8731 55.295 20.0848 55.7827 19.4077C56.2704 18.7306 56.9451 18.2027 57.8068 17.8239C58.6686 17.4451 59.651 17.2557 60.7543 17.2557C61.8812 17.2557 62.8589 17.4474 63.6875 17.831C64.5208 18.2098 65.1671 18.7424 65.6264 19.429C66.0857 20.1155 66.3201 20.911 66.3295 21.8153H62.9631ZM67.704 32V17.4545H77.846V20.3097H71.2196V23.2926H77.3276V26.1548H71.2196V29.1449H77.846V32H67.704ZM91.827 17.4545V32H88.844L83.0557 23.6051H82.9634V32H79.4477V17.4545H82.4733L88.1977 25.8352H88.3185V17.4545H91.827ZM98.814 32H93.4376V17.4545H98.8069C100.289 17.4545 101.565 17.7457 102.635 18.3281C103.71 18.9058 104.538 19.7391 105.121 20.8281C105.703 21.9124 105.994 23.2098 105.994 24.7202C105.994 26.2353 105.703 27.5374 105.121 28.6264C104.543 29.7154 103.717 30.5511 102.642 31.1335C101.567 31.7112 100.291 32 98.814 32ZM96.9532 29.0028H98.679C99.4934 29.0028 100.182 28.8655 100.746 28.5909C101.314 28.3116 101.742 27.8594 102.031 27.2344C102.325 26.6046 102.472 25.7666 102.472 24.7202C102.472 23.6738 102.325 22.8404 102.031 22.2202C101.738 21.5952 101.305 21.1454 100.732 20.8707C100.163 20.5914 99.4627 20.4517 98.6293 20.4517H96.9532V29.0028Z" fill="black"/>
</svg>
