<svg width="325" height="135" viewBox="0 0 325 135" fill="none" xmlns="http://www.w3.org/2000/svg">
<path d="M2 2H323V133H2V2Z" fill="white" stroke="black" stroke-width="4"/>
<path d="M85.7514 53.6364H94.5227V77.0916C94.5227 79.8023 93.8776 82.1638 92.5874 84.1761C91.2971 86.1766 89.4979 87.7273 87.1896 88.8281C84.8814 89.9171 82.2003 90.4616 79.1463 90.4616C76.0568 90.4616 73.358 89.9171 71.0497 88.8281C68.7415 87.7273 66.9482 86.1766 65.6697 84.1761C64.3913 82.1638 63.7521 79.8023 63.7521 77.0916V53.6364H72.5412V76.3281C72.5412 77.5829 72.8134 78.7015 73.358 79.6839C73.9143 80.6664 74.6896 81.4358 75.6839 81.9922C76.6783 82.5485 77.8324 82.8267 79.1463 82.8267C80.4602 82.8267 81.6084 82.5485 82.5909 81.9922C83.5852 81.4358 84.3606 80.6664 84.9169 79.6839C85.4732 78.7015 85.7514 77.5829 85.7514 76.3281V53.6364ZM98.5314 90V53.6364H113.553C116.275 53.6364 118.625 54.169 120.602 55.2344C122.59 56.2879 124.123 57.7616 125.2 59.6555C126.278 61.5376 126.816 63.7275 126.816 66.2251C126.816 68.7346 126.266 70.9304 125.165 72.8125C124.076 74.6828 122.519 76.1328 120.495 77.1626C118.471 78.1925 116.068 78.7074 113.286 78.7074H104.018V71.7827H111.653C112.979 71.7827 114.085 71.5518 114.973 71.0902C115.873 70.6286 116.553 69.9834 117.015 69.1548C117.477 68.3144 117.708 67.3378 117.708 66.2251C117.708 65.1006 117.477 64.13 117.015 63.3132C116.553 62.4846 115.873 61.8454 114.973 61.3956C114.074 60.9458 112.967 60.7209 111.653 60.7209H107.32V90H98.5314ZM129.649 90V53.6364H138.438V82.8622H153.566V90H129.649ZM189.521 71.8182C189.521 75.8191 188.752 79.2105 187.213 81.9922C185.674 84.7739 183.591 86.8868 180.963 88.331C178.347 89.7751 175.411 90.4972 172.156 90.4972C168.889 90.4972 165.948 89.7692 163.331 88.3132C160.715 86.8572 158.638 84.7443 157.099 81.9744C155.572 79.1927 154.809 75.8073 154.809 71.8182C154.809 67.8172 155.572 64.4259 157.099 61.6442C158.638 58.8625 160.715 56.7495 163.331 55.3054C165.948 53.8613 168.889 53.1392 172.156 53.1392C175.411 53.1392 178.347 53.8613 180.963 55.3054C183.591 56.7495 185.674 58.8625 187.213 61.6442C188.752 64.4259 189.521 67.8172 189.521 71.8182ZM180.537 71.8182C180.537 69.4508 180.199 67.4503 179.525 65.8168C178.862 64.1832 177.903 62.9463 176.648 62.1058C175.405 61.2654 173.908 60.8452 172.156 60.8452C170.416 60.8452 168.919 61.2654 167.664 62.1058C166.409 62.9463 165.444 64.1832 164.77 65.8168C164.107 67.4503 163.775 69.4508 163.775 71.8182C163.775 74.1856 164.107 76.1861 164.77 77.8196C165.444 79.4531 166.409 80.6901 167.664 81.5305C168.919 82.371 170.416 82.7912 172.156 82.7912C173.908 82.7912 175.405 82.371 176.648 81.5305C177.903 80.6901 178.862 79.4531 179.525 77.8196C180.199 76.1861 180.537 74.1856 180.537 71.8182ZM198.87 90H189.424L201.693 53.6364H213.394L225.663 90H216.217L207.677 62.7983H207.393L198.87 90ZM197.609 75.6889H217.354V82.3651H197.609V75.6889ZM241.519 90H228.078V53.6364H241.502C245.207 53.6364 248.397 54.3643 251.072 55.8203C253.759 57.2644 255.83 59.3478 257.286 62.0703C258.742 64.781 259.47 68.0244 259.47 71.8004C259.47 75.5883 258.742 78.8435 257.286 81.5661C255.842 84.2886 253.777 86.3778 251.09 87.8338C248.403 89.2779 245.213 90 241.519 90ZM236.867 82.5071H241.182C243.218 82.5071 244.94 82.1638 246.349 81.4773C247.769 80.7789 248.841 79.6484 249.563 78.0859C250.297 76.5116 250.664 74.4164 250.664 71.8004C250.664 69.1844 250.297 67.1011 249.563 65.5504C248.829 63.9879 247.746 62.8634 246.313 62.1768C244.893 61.4785 243.141 61.1293 241.058 61.1293H236.867V82.5071Z" fill="black"/>
</svg>
