<svg width="310" height="97" viewBox="0 0 310 97" fill="none" xmlns="http://www.w3.org/2000/svg">
<path d="M2 2H308V95H2V2Z" fill="white" stroke="black" stroke-width="4"/>
<path d="M67.7521 69V32.6364H82.7734C85.496 32.6364 87.8456 33.169 89.8224 34.2344C91.8111 35.2879 93.344 36.7616 94.4212 38.6555C95.4983 40.5376 96.0369 42.7275 96.0369 45.2251C96.0369 47.7346 95.4865 49.9304 94.3857 51.8125C93.2966 53.6828 91.7401 55.1328 89.7159 56.1626C87.6918 57.1925 85.2888 57.7074 82.5071 57.7074H73.2386V50.7827H80.8736C82.1993 50.7827 83.3061 50.5518 84.1939 50.0902C85.0935 49.6286 85.7741 48.9834 86.2358 48.1548C86.6974 47.3144 86.9283 46.3378 86.9283 45.2251C86.9283 44.1006 86.6974 43.13 86.2358 42.3132C85.7741 41.4846 85.0935 40.8454 84.1939 40.3956C83.2943 39.9458 82.1875 39.7209 80.8736 39.7209H76.5412V69H67.7521ZM98.8693 69V32.6364H113.891C116.613 32.6364 118.963 33.1276 120.94 34.1101C122.928 35.0807 124.461 36.4775 125.538 38.3004C126.616 40.1115 127.154 42.2599 127.154 44.7457C127.154 47.267 126.604 49.4096 125.503 51.1733C124.402 52.9252 122.839 54.2628 120.815 55.1861C118.791 56.0975 116.394 56.5533 113.624 56.5533H104.125V49.6286H111.991C113.317 49.6286 114.423 49.4569 115.311 49.1136C116.211 48.7585 116.891 48.2259 117.353 47.5156C117.815 46.7936 118.045 45.8703 118.045 44.7457C118.045 43.6212 117.815 42.692 117.353 41.9581C116.891 41.2124 116.211 40.656 115.311 40.2891C114.411 39.9103 113.305 39.7209 111.991 39.7209H107.658V69H98.8693ZM119.342 52.3807L128.397 69H118.809L109.931 52.3807H119.342ZM164.797 50.8182C164.797 54.8191 164.027 58.2105 162.488 60.9922C160.949 63.7739 158.866 65.8868 156.238 67.331C153.622 68.7751 150.687 69.4972 147.431 69.4972C144.164 69.4972 141.223 68.7692 138.607 67.3132C135.991 65.8572 133.913 63.7443 132.375 60.9744C130.848 58.1927 130.084 54.8073 130.084 50.8182C130.084 46.8172 130.848 43.4259 132.375 40.6442C133.913 37.8625 135.991 35.7495 138.607 34.3054C141.223 32.8613 144.164 32.1392 147.431 32.1392C150.687 32.1392 153.622 32.8613 156.238 34.3054C158.866 35.7495 160.949 37.8625 162.488 40.6442C164.027 43.4259 164.797 46.8172 164.797 50.8182ZM155.812 50.8182C155.812 48.4508 155.475 46.4503 154.8 44.8168C154.137 43.1832 153.178 41.9463 151.924 41.1058C150.681 40.2654 149.183 39.8452 147.431 39.8452C145.691 39.8452 144.194 40.2654 142.939 41.1058C141.685 41.9463 140.72 43.1832 140.045 44.8168C139.382 46.4503 139.051 48.4508 139.051 50.8182C139.051 53.1856 139.382 55.1861 140.045 56.8196C140.72 58.4531 141.685 59.6901 142.939 60.5305C144.194 61.371 145.691 61.7912 147.431 61.7912C149.183 61.7912 150.681 61.371 151.924 60.5305C153.178 59.6901 154.137 58.4531 154.8 56.8196C155.475 55.1861 155.812 53.1856 155.812 50.8182ZM168.428 69V32.6364H193.25V39.7741H177.217V47.2315H191.67V54.3871H177.217V69H168.428ZM204.965 32.6364V69H196.176V32.6364H204.965ZM208.983 69V32.6364H217.772V61.8622H232.9V69H208.983Z" fill="black"/>
</svg>
