<svg width="310" height="97" viewBox="0 0 310 97" fill="none" xmlns="http://www.w3.org/2000/svg">
<path d="M2 2H308V95H2V2Z" fill="white" stroke="black" stroke-width="4"/>
<path d="M40.2521 68.5V32.1364H49.0412V46.7315H63.37V32.1364H72.1413V68.5H63.37V53.8871H49.0412V68.5H40.2521ZM84.9435 32.1364V68.5H76.1545V32.1364H84.9435ZM108.617 43.0384C108.498 41.7363 107.972 40.7242 107.036 40.0021C106.113 39.2682 104.793 38.9013 103.077 38.9013C101.941 38.9013 100.994 39.0492 100.236 39.3452C99.4784 39.6411 98.9102 40.0495 98.5314 40.5703C98.1526 41.0793 97.9573 41.6652 97.9455 42.3281C97.9218 42.8726 98.0284 43.352 98.2651 43.7663C98.5137 44.1806 98.8688 44.5476 99.3304 44.8672C99.8039 45.175 100.372 45.4472 101.035 45.6839C101.698 45.9207 102.444 46.1278 103.272 46.3054L106.397 47.0156C108.196 47.4062 109.783 47.9271 111.156 48.5781C112.541 49.2292 113.701 50.0045 114.636 50.9041C115.583 51.8037 116.299 52.8395 116.784 54.0114C117.27 55.1832 117.518 56.4972 117.53 57.9531C117.518 60.2495 116.938 62.2204 115.79 63.8658C114.642 65.5111 112.99 66.7718 110.836 67.6477C108.694 68.5237 106.107 68.9616 103.077 68.9616C100.035 68.9616 97.3832 68.5059 95.1223 67.5945C92.8614 66.683 91.1036 65.2981 89.8489 63.4396C88.5942 61.5812 87.949 59.2315 87.9135 56.3906H96.3297C96.4007 57.5625 96.7144 58.5391 97.2708 59.3203C97.8271 60.1016 98.5906 60.6934 99.5613 61.0959C100.544 61.4983 101.68 61.6996 102.97 61.6996C104.154 61.6996 105.16 61.5398 105.989 61.2202C106.829 60.9006 107.474 60.4567 107.924 59.8885C108.374 59.3203 108.605 58.6693 108.617 57.9354C108.605 57.2488 108.392 56.6629 107.977 56.1776C107.563 55.6804 106.924 55.2543 106.06 54.8991C105.208 54.5322 104.119 54.1948 102.793 53.8871L98.9931 52.9993C95.8444 52.2772 93.3645 51.1113 91.5534 49.5014C89.7424 47.8797 88.8427 45.6899 88.8546 42.9318C88.8427 40.6828 89.4464 38.7119 90.6657 37.0192C91.8849 35.3265 93.5717 34.0066 95.726 33.0597C97.8804 32.1127 100.337 31.6392 103.095 31.6392C105.912 31.6392 108.356 32.1186 110.428 33.0774C112.511 34.0244 114.127 35.3561 115.275 37.0724C116.423 38.7888 117.009 40.7775 117.033 43.0384H108.617ZM119.279 39.2741V32.1364H150.014V39.2741H138.988V68.5H130.323V39.2741H119.279ZM185.468 50.3182C185.468 54.3191 184.699 57.7105 183.16 60.4922C181.621 63.2739 179.538 65.3868 176.91 66.831C174.294 68.2751 171.359 68.9972 168.103 68.9972C164.836 68.9972 161.895 68.2692 159.279 66.8132C156.663 65.3572 154.585 63.2443 153.047 60.4744C151.52 57.6927 150.756 54.3073 150.756 50.3182C150.756 46.3172 151.52 42.9259 153.047 40.1442C154.585 37.3625 156.663 35.2495 159.279 33.8054C161.895 32.3613 164.836 31.6392 168.103 31.6392C171.359 31.6392 174.294 32.3613 176.91 33.8054C179.538 35.2495 181.621 37.3625 183.16 40.1442C184.699 42.9259 185.468 46.3172 185.468 50.3182ZM176.484 50.3182C176.484 47.9508 176.147 45.9503 175.472 44.3168C174.809 42.6832 173.85 41.4463 172.596 40.6058C171.353 39.7654 169.855 39.3452 168.103 39.3452C166.363 39.3452 164.866 39.7654 163.611 40.6058C162.356 41.4463 161.392 42.6832 160.717 44.3168C160.054 45.9503 159.723 47.9508 159.723 50.3182C159.723 52.6856 160.054 54.6861 160.717 56.3196C161.392 57.9531 162.356 59.1901 163.611 60.0305C164.866 60.871 166.363 61.2912 168.103 61.2912C169.855 61.2912 171.353 60.871 172.596 60.0305C173.85 59.1901 174.809 57.9531 175.472 56.3196C176.147 54.6861 176.484 52.6856 176.484 50.3182ZM189.1 68.5V32.1364H204.121C206.844 32.1364 209.193 32.6276 211.17 33.6101C213.159 34.5807 214.692 35.9775 215.769 37.8004C216.846 39.6115 217.385 41.7599 217.385 44.2457C217.385 46.767 216.834 48.9096 215.733 50.6733C214.632 52.4252 213.07 53.7628 211.046 54.6861C209.022 55.5975 206.625 56.0533 203.855 56.0533H194.355V49.1286H202.221C203.547 49.1286 204.654 48.9569 205.542 48.6136C206.441 48.2585 207.122 47.7259 207.583 47.0156C208.045 46.2936 208.276 45.3703 208.276 44.2457C208.276 43.1212 208.045 42.192 207.583 41.4581C207.122 40.7124 206.441 40.156 205.542 39.7891C204.642 39.4103 203.535 39.2209 202.221 39.2209H197.889V68.5H189.1ZM209.572 51.8807L218.627 68.5H209.039L200.162 51.8807H209.572ZM229.494 32.1364V68.5H220.705V32.1364H229.494ZM233.512 68.5V32.1364H258.867V39.2741H242.301V46.7315H257.571V53.8871H242.301V61.3622H258.867V68.5H233.512Z" fill="black"/>
</svg>
