<svg width="535" height="97" viewBox="0 0 535 97" fill="none" xmlns="http://www.w3.org/2000/svg">
<path d="M2 2H532.388V95H2V2Z" fill="white" stroke="black" stroke-width="4"/>
<path d="M69.7521 32.6364H80.6364L89.8693 55.1506H90.2955L99.5284 32.6364H110.413V69H101.854V46.6634H101.553L92.8168 68.7692H87.348L78.6122 46.5391H78.3104V69H69.7521V32.6364ZM114.395 69V32.6364H139.75V39.7741H123.184V47.2315H138.454V54.3871H123.184V61.8622H139.75V69H114.395ZM157.195 69H143.754V32.6364H157.177C160.882 32.6364 164.073 33.3643 166.748 34.8203C169.435 36.2644 171.506 38.3478 172.962 41.0703C174.418 43.781 175.146 47.0244 175.146 50.8004C175.146 54.5883 174.418 57.8435 172.962 60.5661C171.518 63.2886 169.452 65.3778 166.765 66.8338C164.078 68.2779 160.888 69 157.195 69ZM152.543 61.5071H156.858C158.894 61.5071 160.616 61.1638 162.025 60.4773C163.445 59.7789 164.516 58.6484 165.238 57.0859C165.972 55.5116 166.339 53.4164 166.339 50.8004C166.339 48.1844 165.972 46.1011 165.238 44.5504C164.505 42.9879 163.421 41.8634 161.989 41.1768C160.569 40.4785 158.817 40.1293 156.733 40.1293H152.543V61.5071ZM184.495 69H175.049L187.318 32.6364H199.019L211.288 69H201.842L193.302 41.7983H193.018L184.495 69ZM183.234 54.6889H202.979V61.3651H183.234V54.6889ZM213.703 69V32.6364H228.725C231.447 32.6364 233.797 33.1276 235.774 34.1101C237.762 35.0807 239.295 36.4775 240.372 38.3004C241.45 40.1115 241.988 42.2599 241.988 44.7457C241.988 47.267 241.438 49.4096 240.337 51.1733C239.236 52.9252 237.673 54.2628 235.649 55.1861C233.625 56.0975 231.228 56.5533 228.458 56.5533H218.959V49.6286H226.825C228.151 49.6286 229.257 49.4569 230.145 49.1136C231.045 48.7585 231.725 48.2259 232.187 47.5156C232.649 46.7936 232.879 45.8703 232.879 44.7457C232.879 43.6212 232.649 42.692 232.187 41.9581C231.725 41.2124 231.045 40.656 230.145 40.2891C229.245 39.9103 228.139 39.7209 226.825 39.7209H222.492V69H213.703ZM234.176 52.3807L243.231 69H233.643L224.765 52.3807H234.176ZM245.309 69V32.6364H260.472C263.195 32.6364 265.473 33.0211 267.308 33.7905C269.155 34.5599 270.54 35.6371 271.463 37.022C272.398 38.407 272.866 40.0109 272.866 41.8338C272.866 43.2188 272.576 44.4557 271.996 45.5447C271.416 46.6219 270.617 47.5156 269.599 48.2259C268.581 48.9361 267.403 49.4332 266.065 49.7173V50.0724C267.533 50.1435 268.888 50.54 270.131 51.2621C271.386 51.9841 272.392 52.9903 273.15 54.2805C273.907 55.5589 274.286 57.0741 274.286 58.826C274.286 60.7791 273.789 62.5251 272.795 64.0639C271.8 65.5909 270.362 66.7983 268.48 67.6861C266.598 68.562 264.313 69 261.626 69H245.309ZM254.098 61.9155H259.531C261.437 61.9155 262.84 61.5545 263.739 60.8324C264.651 60.1103 265.106 59.1042 265.106 57.8139C265.106 56.8788 264.887 56.0739 264.449 55.3991C264.011 54.7126 263.39 54.1858 262.585 53.8189C261.78 53.4401 260.815 53.2507 259.691 53.2507H254.098V61.9155ZM254.098 47.5866H258.963C259.922 47.5866 260.774 47.4268 261.52 47.1072C262.265 46.7876 262.845 46.326 263.26 45.7223C263.686 45.1186 263.899 44.3906 263.899 43.5384C263.899 42.3191 263.467 41.3603 262.603 40.6619C261.739 39.9635 260.573 39.6143 259.105 39.6143H254.098V47.5866ZM277.012 69V32.6364H302.367V39.7741H285.801V47.2315H301.071V54.3871H285.801V61.8622H302.367V69H277.012ZM321.144 32.6364H329.809V57.7784C329.797 60.134 329.235 62.1937 328.122 63.9574C327.009 65.7093 325.47 67.0705 323.506 68.0412C321.552 69.0118 319.291 69.4972 316.723 69.4972C314.45 69.4972 312.385 69.1006 310.526 68.3075C308.68 67.5144 307.206 66.2834 306.105 64.6143C305.016 62.9453 304.477 60.8087 304.489 58.2045H313.243C313.278 59.1397 313.456 59.9387 313.775 60.6016C314.107 61.2526 314.563 61.7438 315.143 62.0753C315.723 62.4067 316.415 62.5724 317.22 62.5724C318.06 62.5724 318.771 62.3949 319.351 62.0398C319.931 61.6728 320.369 61.1342 320.665 60.424C320.972 59.7138 321.132 58.8319 321.144 57.7784V32.6364ZM347.267 69H333.826V32.6364H347.25C350.955 32.6364 354.145 33.3643 356.82 34.8203C359.507 36.2644 361.578 38.3478 363.034 41.0703C364.49 43.781 365.218 47.0244 365.218 50.8004C365.218 54.5883 364.49 57.8435 363.034 60.5661C361.59 63.2886 359.525 65.3778 356.838 66.8338C354.151 68.2779 350.961 69 347.267 69ZM342.615 61.5071H346.93C348.966 61.5071 350.688 61.1638 352.097 60.4773C353.517 59.7789 354.589 58.6484 355.311 57.0859C356.045 55.5116 356.412 53.4164 356.412 50.8004C356.412 48.1844 356.045 46.1011 355.311 44.5504C354.577 42.9879 353.494 41.8634 352.061 41.1768C350.641 40.4785 348.889 40.1293 346.806 40.1293H342.615V61.5071ZM368.85 69V32.6364H394.205V39.7741H377.639V47.2315H392.909V54.3871H377.639V61.8622H394.205V69H368.85ZM398.209 69V32.6364H413.23C415.953 32.6364 418.303 33.1276 420.279 34.1101C422.268 35.0807 423.801 36.4775 424.878 38.3004C425.955 40.1115 426.494 42.2599 426.494 44.7457C426.494 47.267 425.944 49.4096 424.843 51.1733C423.742 52.9252 422.179 54.2628 420.155 55.1861C418.131 56.0975 415.734 56.5533 412.964 56.5533H403.465V49.6286H411.331C412.656 49.6286 413.763 49.4569 414.651 49.1136C415.551 48.7585 416.231 48.2259 416.693 47.5156C417.154 46.7936 417.385 45.8703 417.385 44.7457C417.385 43.6212 417.154 42.692 416.693 41.9581C416.231 41.2124 415.551 40.656 414.651 40.2891C413.751 39.9103 412.645 39.7209 411.331 39.7209H406.998V69H398.209ZM418.681 52.3807L427.737 69H418.149L409.271 52.3807H418.681ZM429.815 69V32.6364H455.17V39.7741H438.604V47.2315H453.874V54.3871H438.604V61.8622H455.17V69H429.815Z" fill="black"/>
</svg>
