<svg width="310" height="97" viewBox="0 0 310 97" fill="none" xmlns="http://www.w3.org/2000/svg">
<path d="M2 2H308V95H2V2Z" fill="white" stroke="black" stroke-width="4"/>
<path d="M50.0085 32.6364L58.1406 59.2699H58.4425L66.5746 32.6364H76.4112L64.142 69H52.4411L40.1719 32.6364H50.0085ZM87.6154 32.6364V69H78.8263V32.6364H87.6154ZM111.289 43.5384C111.17 42.2363 110.643 41.2242 109.708 40.5021C108.785 39.7682 107.465 39.4013 105.749 39.4013C104.612 39.4013 103.665 39.5492 102.908 39.8452C102.15 40.1411 101.582 40.5495 101.203 41.0703C100.825 41.5793 100.629 42.1652 100.617 42.8281C100.594 43.3726 100.7 43.852 100.937 44.2663C101.186 44.6806 101.541 45.0476 102.002 45.3672C102.476 45.675 103.044 45.9472 103.707 46.1839C104.37 46.4207 105.115 46.6278 105.944 46.8054L109.069 47.5156C110.868 47.9062 112.454 48.4271 113.828 49.0781C115.213 49.7292 116.373 50.5045 117.308 51.4041C118.255 52.3037 118.971 53.3395 119.456 54.5114C119.941 55.6832 120.19 56.9972 120.202 58.4531C120.19 60.7495 119.61 62.7204 118.462 64.3658C117.314 66.0111 115.662 67.2718 113.508 68.1477C111.365 69.0237 108.779 69.4616 105.749 69.4616C102.707 69.4616 100.055 69.0059 97.7942 68.0945C95.5333 67.183 93.7755 65.7981 92.5208 63.9396C91.266 62.0812 90.6209 59.7315 90.5854 56.8906H99.0016C99.0726 58.0625 99.3863 59.0391 99.9426 59.8203C100.499 60.6016 101.262 61.1934 102.233 61.5959C103.216 61.9983 104.352 62.1996 105.642 62.1996C106.826 62.1996 107.832 62.0398 108.661 61.7202C109.501 61.4006 110.146 60.9567 110.596 60.3885C111.046 59.8203 111.277 59.1693 111.289 58.4354C111.277 57.7488 111.064 57.1629 110.649 56.6776C110.235 56.1804 109.596 55.7543 108.732 55.3991C107.879 55.0322 106.79 54.6948 105.465 54.3871L101.665 53.4993C98.5163 52.7772 96.0364 51.6113 94.2253 50.0014C92.4142 48.3797 91.5146 46.1899 91.5265 43.4318C91.5146 41.1828 92.1183 39.2119 93.3375 37.5192C94.5568 35.8265 96.2435 34.5066 98.3979 33.5597C100.552 32.6127 103.008 32.1392 105.767 32.1392C108.584 32.1392 111.028 32.6186 113.1 33.5774C115.183 34.5244 116.799 35.8561 117.947 37.5724C119.095 39.2888 119.681 41.2775 119.705 43.5384H111.289ZM131.93 32.6364V69H123.141V32.6364H131.93ZM170.269 50.8182C170.269 54.8191 169.5 58.2105 167.961 60.9922C166.422 63.7739 164.339 65.8868 161.711 67.331C159.095 68.7751 156.159 69.4972 152.904 69.4972C149.637 69.4972 146.696 68.7692 144.08 67.3132C141.464 65.8572 139.386 63.7443 137.847 60.9744C136.32 58.1927 135.557 54.8073 135.557 50.8182C135.557 46.8172 136.32 43.4259 137.847 40.6442C139.386 37.8625 141.464 35.7495 144.08 34.3054C146.696 32.8613 149.637 32.1392 152.904 32.1392C156.159 32.1392 159.095 32.8613 161.711 34.3054C164.339 35.7495 166.422 37.8625 167.961 40.6442C169.5 43.4259 170.269 46.8172 170.269 50.8182ZM161.285 50.8182C161.285 48.4508 160.947 46.4503 160.273 44.8168C159.61 43.1832 158.651 41.9463 157.396 41.1058C156.153 40.2654 154.656 39.8452 152.904 39.8452C151.164 39.8452 149.667 40.2654 148.412 41.1058C147.157 41.9463 146.192 43.1832 145.518 44.8168C144.855 46.4503 144.523 48.4508 144.523 50.8182C144.523 53.1856 144.855 55.1861 145.518 56.8196C146.192 58.4531 147.157 59.6901 148.412 60.5305C149.667 61.371 151.164 61.7912 152.904 61.7912C154.656 61.7912 156.153 61.371 157.396 60.5305C158.651 59.6901 159.61 58.4531 160.273 56.8196C160.947 55.1861 161.285 53.1856 161.285 50.8182ZM204.849 32.6364V69H197.391L182.92 48.0128H182.69V69H173.901V32.6364H181.464L195.776 53.5881H196.077V32.6364H204.849ZM208.875 69V32.6364H234.23V39.7741H217.664V47.2315H232.934V54.3871H217.664V61.8622H234.23V69H208.875ZM238.235 69V32.6364H253.256C255.978 32.6364 258.328 33.1276 260.305 34.1101C262.294 35.0807 263.826 36.4775 264.904 38.3004C265.981 40.1115 266.519 42.2599 266.519 44.7457C266.519 47.267 265.969 49.4096 264.868 51.1733C263.767 52.9252 262.205 54.2628 260.181 55.1861C258.156 56.0975 255.759 56.5533 252.99 56.5533H243.49V49.6286H251.356C252.682 49.6286 253.789 49.4569 254.676 49.1136C255.576 48.7585 256.257 48.2259 256.718 47.5156C257.18 46.7936 257.411 45.8703 257.411 44.7457C257.411 43.6212 257.18 42.692 256.718 41.9581C256.257 41.2124 255.576 40.656 254.676 40.2891C253.777 39.9103 252.67 39.7209 251.356 39.7209H247.024V69H238.235ZM258.707 52.3807L267.762 69H258.174L249.296 52.3807H258.707Z" fill="black"/>
</svg>
