<svg width="39" height="46" viewBox="0 0 39 46" fill="none" xmlns="http://www.w3.org/2000/svg">
<path d="M17.4957 4.63636V41H8.72443V12.8395H8.51136L0.379262 17.8111V10.2116L9.34588 4.63636H17.4957ZM38.1149 22.8182C38.1149 27.1979 37.523 31.2344 36.3393 34.9276C35.1556 38.6089 33.309 42.0298 30.7995 45.1903H22.3833C23.3422 44.0185 24.224 42.5921 25.0289 40.9112C25.8457 39.2304 26.55 37.3897 27.1419 35.3892C27.7456 33.3887 28.2131 31.3172 28.5446 29.1747C28.8878 27.0322 29.0595 24.9134 29.0595 22.8182C29.0595 20.0128 28.7695 17.1896 28.1895 14.3487C27.6094 11.496 26.8163 8.8563 25.8102 6.42969C24.804 3.99124 23.6618 1.99077 22.3833 0.428266H30.7995C33.309 3.58878 35.1556 7.01562 36.3393 10.7088C37.523 14.3902 38.1149 18.4266 38.1149 22.8182Z" fill="white"/>
</svg>
