<svg width="46" height="46" viewBox="0 0 46 46" fill="none" xmlns="http://www.w3.org/2000/svg">
<path d="M0.681108 41V34.679L13.9446 23.0668C14.9389 22.1671 15.7853 21.3445 16.4837 20.5987C17.1821 19.8411 17.7147 19.0836 18.0817 18.326C18.4486 17.5566 18.6321 16.7221 18.6321 15.8224C18.6321 14.8163 18.4131 13.9581 17.9751 13.2479C17.5372 12.5258 16.9335 11.9695 16.1641 11.5788C15.3946 11.1882 14.5128 10.9929 13.5185 10.9929C12.5123 10.9929 11.6304 11.2 10.8729 11.6143C10.1153 12.0168 9.52344 12.6027 9.0973 13.3722C8.683 14.1416 8.47585 15.0767 8.47585 16.1776H0.148438C0.148438 13.7036 0.704782 11.567 1.81747 9.76776C2.93016 7.96851 4.49266 6.58357 6.50497 5.61293C8.52912 4.63044 10.8788 4.1392 13.554 4.1392C16.312 4.1392 18.709 4.60085 20.745 5.52415C22.781 6.44744 24.3554 7.73769 25.468 9.39488C26.5926 11.0402 27.1548 12.9519 27.1548 15.13C27.1548 16.5149 26.8767 17.888 26.3203 19.2493C25.764 20.6106 24.7637 22.1139 23.3196 23.7592C21.8873 25.4046 19.8513 27.3755 17.2116 29.6719L12.8615 33.6847V33.9155H27.5987V41H0.681108ZM45.1461 22.8182C45.1461 27.1979 44.5543 31.2344 43.3706 34.9276C42.1868 38.6089 40.3403 42.0298 37.8308 45.1903H29.4146C30.3734 44.0185 31.2553 42.5921 32.0602 40.9112C32.877 39.2304 33.5813 37.3897 34.1731 35.3892C34.7768 33.3887 35.2444 31.3172 35.5758 29.1747C35.9191 27.0322 36.0907 24.9134 36.0907 22.8182C36.0907 20.0128 35.8007 17.1896 35.2207 14.3487C34.6407 11.496 33.8476 8.8563 32.8414 6.42969C31.8353 3.99124 30.693 1.99077 29.4146 0.428266H37.8308C40.3403 3.58878 42.1868 7.01562 43.3706 10.7088C44.5543 14.3902 45.1461 18.4266 45.1461 22.8182Z" fill="white"/>
</svg>
