<svg width="47" height="46" viewBox="0 0 47 46" fill="none" xmlns="http://www.w3.org/2000/svg">
<path d="M14.5128 41.4972C11.7429 41.4972 9.2867 41.0237 7.14418 40.0767C5.01349 39.1179 3.33262 37.7981 2.10156 36.1172C0.870502 34.4363 0.243135 32.5009 0.21946 30.3111H9.06179C9.0973 31.1042 9.3518 31.8085 9.82528 32.424C10.2988 33.0277 10.9439 33.5012 11.7607 33.8445C12.5774 34.1877 13.5066 34.3594 14.5483 34.3594C15.59 34.3594 16.5073 34.1759 17.3004 33.8089C18.1054 33.4302 18.7327 32.9152 19.1825 32.2642C19.6323 31.6013 19.8513 30.8437 19.8395 29.9915C19.8513 29.1392 19.6087 28.3816 19.1115 27.7188C18.6143 27.0559 17.91 26.541 16.9986 26.174C16.099 25.8071 15.0336 25.6236 13.8026 25.6236H10.2692V19.3736H13.8026C14.8797 19.3736 15.8267 19.196 16.6435 18.8409C17.4721 18.4858 18.1172 17.9886 18.5788 17.3494C19.0405 16.6984 19.2654 15.9527 19.2536 15.1122C19.2654 14.2955 19.0701 13.5793 18.6676 12.9638C18.277 12.3364 17.7266 11.8511 17.0163 11.5078C16.3179 11.1645 15.5071 10.9929 14.5838 10.9929C13.6132 10.9929 12.7313 11.1645 11.9382 11.5078C11.157 11.8511 10.5355 12.3364 10.0739 12.9638C9.61222 13.5911 9.36956 14.3191 9.34588 15.1477H0.947443C0.971118 12.9815 1.57481 11.0758 2.75852 9.4304C3.94224 7.7732 5.55208 6.47703 7.58807 5.5419C9.63589 4.60677 11.9678 4.1392 14.5838 4.1392C17.188 4.1392 19.4785 4.59493 21.4553 5.50639C23.4321 6.41785 24.9709 7.66075 26.0717 9.23508C27.1726 10.7976 27.723 12.5672 27.723 14.544C27.7348 16.5919 27.0661 18.2786 25.7166 19.6044C24.379 20.9302 22.6567 21.7469 20.5497 22.0547V22.3388C23.367 22.6702 25.4917 23.5817 26.924 25.0732C28.3681 26.5646 29.0843 28.429 29.0724 30.6662C29.0724 32.7732 28.451 34.6435 27.2081 36.277C25.977 37.8987 24.2607 39.1771 22.0589 40.1122C19.8691 41.0355 17.3537 41.4972 14.5128 41.4972ZM46.611 22.8182C46.611 27.1979 46.0191 31.2344 44.8354 34.9276C43.6517 38.6089 41.8051 42.0298 39.2956 45.1903H30.8794C31.8382 44.0185 32.7201 42.5921 33.525 40.9112C34.3418 39.2304 35.0461 37.3897 35.638 35.3892C36.2417 33.3887 36.7092 31.3172 37.0407 29.1747C37.3839 27.0322 37.5556 24.9134 37.5556 22.8182C37.5556 20.0128 37.2656 17.1896 36.6855 14.3487C36.1055 11.496 35.3124 8.8563 34.3063 6.42969C33.3001 3.99124 32.1578 1.99077 30.8794 0.428266H39.2956C41.8051 3.58878 43.6517 7.01562 44.8354 10.7088C46.0191 14.3902 46.611 18.4266 46.611 22.8182Z" fill="white"/>
</svg>
