<svg width="165" height="53" viewBox="0 0 165 53" fill="none" xmlns="http://www.w3.org/2000/svg">
<path d="M1.11579 1.11579H163.463V51.8842H1.11579V1.11579Z" fill="white" stroke="black" stroke-width="2.23158"/>
<path d="M40.9631 21.8153C40.9157 21.2945 40.705 20.8897 40.331 20.6009C39.9616 20.3073 39.4337 20.1605 38.7472 20.1605C38.2926 20.1605 37.9138 20.2197 37.6108 20.3381C37.3078 20.4564 37.0805 20.6198 36.929 20.8281C36.7775 21.0317 36.6993 21.2661 36.6946 21.5312C36.6851 21.7491 36.7277 21.9408 36.8224 22.1065C36.9219 22.2723 37.0639 22.419 37.2486 22.5469C37.438 22.67 37.6652 22.7789 37.9304 22.8736C38.1955 22.9683 38.4938 23.0511 38.8253 23.1222L40.0753 23.4062C40.795 23.5625 41.4295 23.7708 41.9787 24.0312C42.5327 24.2917 42.9967 24.6018 43.3707 24.9616C43.7495 25.3215 44.036 25.7358 44.2301 26.2045C44.4242 26.6733 44.5237 27.1989 44.5284 27.7812C44.5237 28.6998 44.2917 29.4882 43.8324 30.1463C43.3731 30.8045 42.7126 31.3087 41.8509 31.6591C40.9938 32.0095 39.9593 32.1847 38.7472 32.1847C37.5303 32.1847 36.4697 32.0024 35.5653 31.6378C34.661 31.2732 33.9579 30.7192 33.456 29.9759C32.9541 29.2325 32.696 28.2926 32.6818 27.1562H36.0483C36.0767 27.625 36.2022 28.0156 36.4247 28.3281C36.6473 28.6406 36.9527 28.8774 37.3409 29.0384C37.7339 29.1993 38.1884 29.2798 38.7045 29.2798C39.178 29.2798 39.5805 29.2159 39.9119 29.0881C40.2481 28.9602 40.5062 28.7827 40.6861 28.5554C40.866 28.3281 40.9583 28.0677 40.9631 27.7741C40.9583 27.4995 40.8731 27.2652 40.7074 27.071C40.5417 26.8722 40.286 26.7017 39.9403 26.5597C39.5994 26.4129 39.1638 26.2779 38.6335 26.1548L37.1136 25.7997C35.8542 25.5109 34.8622 25.0445 34.1378 24.4006C33.4134 23.7519 33.0535 22.8759 33.0582 21.7727C33.0535 20.8731 33.295 20.0848 33.7827 19.4077C34.2704 18.7306 34.9451 18.2027 35.8068 17.8239C36.6686 17.4451 37.651 17.2557 38.7543 17.2557C39.8812 17.2557 40.8589 17.4474 41.6875 17.831C42.5208 18.2098 43.1671 18.7424 43.6264 19.429C44.0857 20.1155 44.3201 20.911 44.3295 21.8153H40.9631ZM45.704 32V17.4545H49.2196V23.2926H54.9511V17.4545H58.4597V32H54.9511V26.1548H49.2196V32H45.704ZM63.2112 32H59.4328L64.3405 17.4545H69.0209L73.9286 32H70.1501L66.7339 21.1193H66.6203L63.2112 32ZM62.707 26.2756H70.6047V28.946H62.707V26.2756ZM74.8946 32V17.4545H80.9031C81.9921 17.4545 82.932 17.651 83.7227 18.044C84.5182 18.4323 85.1313 18.991 85.5622 19.7202C85.9931 20.4446 86.2085 21.304 86.2085 22.2983C86.2085 23.3068 85.9884 24.1638 85.548 24.8693C85.1077 25.5701 84.4827 26.1051 83.673 26.4744C82.8634 26.839 81.9045 27.0213 80.7966 27.0213H76.9969V24.2514H80.1432C80.6735 24.2514 81.1162 24.1828 81.4713 24.0455C81.8312 23.9034 82.1034 23.6903 82.2881 23.4062C82.4727 23.1174 82.5651 22.7481 82.5651 22.2983C82.5651 21.8485 82.4727 21.4768 82.2881 21.1832C82.1034 20.8849 81.8312 20.6624 81.4713 20.5156C81.1115 20.3641 80.6688 20.2884 80.1432 20.2884H78.4102V32H74.8946ZM83.0835 25.3523L86.7057 32H82.8705L79.3193 25.3523H83.0835ZM87.5368 32V17.4545H97.6788V20.3097H91.0524V23.2926H97.1604V26.1548H91.0524V29.1449H97.6788V32H87.5368Z" fill="black"/>
<path d="M1.11579 1.11579H163.463V51.8842H1.11579V1.11579Z" fill="white" stroke="black" stroke-width="2.23158"/>
<path d="M49.9631 21.8153C49.9157 21.2945 49.705 20.8897 49.331 20.6009C48.9616 20.3073 48.4337 20.1605 47.7472 20.1605C47.2926 20.1605 46.9138 20.2197 46.6108 20.3381C46.3078 20.4564 46.0805 20.6198 45.929 20.8281C45.7775 21.0317 45.6993 21.2661 45.6946 21.5312C45.6851 21.7491 45.7277 21.9408 45.8224 22.1065C45.9219 22.2723 46.0639 22.419 46.2486 22.5469C46.438 22.67 46.6652 22.7789 46.9304 22.8736C47.1955 22.9683 47.4938 23.0511 47.8253 23.1222L49.0753 23.4062C49.795 23.5625 50.4295 23.7708 50.9787 24.0312C51.5327 24.2917 51.9967 24.6018 52.3707 24.9616C52.7495 25.3215 53.036 25.7358 53.2301 26.2045C53.4242 26.6733 53.5237 27.1989 53.5284 27.7812C53.5237 28.6998 53.2917 29.4882 52.8324 30.1463C52.3731 30.8045 51.7126 31.3087 50.8509 31.6591C49.9938 32.0095 48.9593 32.1847 47.7472 32.1847C46.5303 32.1847 45.4697 32.0024 44.5653 31.6378C43.661 31.2732 42.9579 30.7192 42.456 29.9759C41.9541 29.2325 41.696 28.2926 41.6818 27.1562H45.0483C45.0767 27.625 45.2022 28.0156 45.4247 28.3281C45.6473 28.6406 45.9527 28.8774 46.3409 29.0384C46.7339 29.1993 47.1884 29.2798 47.7045 29.2798C48.178 29.2798 48.5805 29.2159 48.9119 29.0881C49.2481 28.9602 49.5062 28.7827 49.6861 28.5554C49.866 28.3281 49.9583 28.0677 49.9631 27.7741C49.9583 27.4995 49.8731 27.2652 49.7074 27.071C49.5417 26.8722 49.286 26.7017 48.9403 26.5597C48.5994 26.4129 48.1638 26.2779 47.6335 26.1548L46.1136 25.7997C44.8542 25.5109 43.8622 25.0445 43.1378 24.4006C42.4134 23.7519 42.0535 22.8759 42.0582 21.7727C42.0535 20.8731 42.295 20.0848 42.7827 19.4077C43.2704 18.7306 43.9451 18.2027 44.8068 17.8239C45.6686 17.4451 46.651 17.2557 47.7543 17.2557C48.8812 17.2557 49.8589 17.4474 50.6875 17.831C51.5208 18.2098 52.1671 18.7424 52.6264 19.429C53.0857 20.1155 53.3201 20.911 53.3295 21.8153H49.9631ZM54.704 32V17.4545H64.846V20.3097H58.2196V23.2926H64.3276V26.1548H58.2196V29.1449H64.846V32H54.704ZM70.1446 17.4545H74.4983L78.1915 26.4602H78.3619L82.0551 17.4545H86.4088V32H82.9855V23.0653H82.8648L79.3705 31.9077H77.183L73.6886 23.0156H73.5679V32H70.1446V17.4545ZM88.0016 32V17.4545H98.1437V20.3097H91.5173V23.2926H97.6252V26.1548H91.5173V29.1449H98.1437V32H88.0016ZM99.7454 32V17.4545H105.754C106.843 17.4545 107.783 17.651 108.574 18.044C109.369 18.4323 109.982 18.991 110.413 19.7202C110.844 20.4446 111.059 21.304 111.059 22.2983C111.059 23.3068 110.839 24.1638 110.399 24.8693C109.958 25.5701 109.333 26.1051 108.524 26.4744C107.714 26.839 106.755 27.0213 105.647 27.0213H101.848V24.2514H104.994C105.524 24.2514 105.967 24.1828 106.322 24.0455C106.682 23.9034 106.954 23.6903 107.139 23.4062C107.324 23.1174 107.416 22.7481 107.416 22.2983C107.416 21.8485 107.324 21.4768 107.139 21.1832C106.954 20.8849 106.682 20.6624 106.322 20.5156C105.962 20.3641 105.52 20.2884 104.994 20.2884H103.261V32H99.7454ZM107.934 25.3523L111.556 32H107.721L104.17 25.3523H107.934ZM112.388 32V17.4545H122.53V20.3097H115.903V23.2926H122.011V26.1548H115.903V29.1449H122.53V32H112.388Z" fill="black"/>
</svg>
