<svg width="165" height="53" viewBox="0 0 165 53" fill="none" xmlns="http://www.w3.org/2000/svg">
<path d="M1.11579 1.11579H163.463V51.8842H1.11579V1.11579Z" fill="white" stroke="black" stroke-width="2.23158"/>
<path d="M68.4801 17.4545V32H65.4972L59.7088 23.6051H59.6165V32H56.1009V17.4545H59.1264L64.8509 25.8352H64.9716V17.4545H68.4801ZM78.8904 17.4545H82.3989V26.8366C82.3989 27.9209 82.1409 28.8655 81.6248 29.6705C81.1087 30.4706 80.389 31.0909 79.4657 31.5312C78.5424 31.9669 77.47 32.1847 76.2484 32.1847C75.0126 32.1847 73.933 31.9669 73.0097 31.5312C72.0864 31.0909 71.3691 30.4706 70.8577 29.6705C70.3464 28.8655 70.0907 27.9209 70.0907 26.8366V17.4545H73.6063V26.5312C73.6063 27.0331 73.7152 27.4806 73.933 27.8736C74.1556 28.2666 74.4657 28.5743 74.8634 28.7969C75.2612 29.0194 75.7228 29.1307 76.2484 29.1307C76.7739 29.1307 77.2332 29.0194 77.6262 28.7969C78.0239 28.5743 78.3341 28.2666 78.5566 27.8736C78.7791 27.4806 78.8904 27.0331 78.8904 26.5312V17.4545ZM96.8257 32.2273L89.5246 24.9261C88.9422 24.3438 88.5539 23.6667 88.3598 22.8949C88.1704 22.1231 88.1728 21.3561 88.3669 20.5938C88.561 19.8267 88.9469 19.1591 89.5246 18.5909C90.1164 18.0085 90.7911 17.6226 91.5487 17.4332C92.311 17.2391 93.071 17.2391 93.8286 17.4332C94.5909 17.6274 95.2679 18.0133 95.8598 18.5909L96.8257 19.5284L97.7916 18.5909C98.3882 18.0133 99.0653 17.6274 99.8229 17.4332C100.58 17.2391 101.338 17.2391 102.096 17.4332C102.858 17.6226 103.535 18.0085 104.127 18.5909C104.704 19.1591 105.09 19.8267 105.285 20.5938C105.479 21.3561 105.479 22.1231 105.285 22.8949C105.095 23.6667 104.709 24.3438 104.127 24.9261L96.8257 32.2273Z" fill="black"/>
</svg>
