<svg width="401" height="189" viewBox="0 0 401 189" fill="none" xmlns="http://www.w3.org/2000/svg">
<path d="M2 2H399V187H2V2Z" fill="white" stroke="black" stroke-width="4"/>
<path d="M52.7521 69V32.6364H61.5412V47.2315H75.87V32.6364H84.6413V69H75.87V54.3871H61.5412V69H52.7521ZM96.9109 32.6364L105.043 59.2699H105.345L113.477 32.6364H123.314L111.044 69H99.3434L87.0742 32.6364H96.9109ZM157.902 50.8182C157.902 54.8191 157.133 58.2105 155.594 60.9922C154.055 63.7739 151.972 65.8868 149.344 67.331C146.728 68.7751 143.792 69.4972 140.537 69.4972C137.27 69.4972 134.328 68.7692 131.712 67.3132C129.096 65.8572 127.019 63.7443 125.48 60.9744C123.953 58.1927 123.19 54.8073 123.19 50.8182C123.19 46.8172 123.953 43.4259 125.48 40.6442C127.019 37.8625 129.096 35.7495 131.712 34.3054C134.328 32.8613 137.27 32.1392 140.537 32.1392C143.792 32.1392 146.728 32.8613 149.344 34.3054C151.972 35.7495 154.055 37.8625 155.594 40.6442C157.133 43.4259 157.902 46.8172 157.902 50.8182ZM148.918 50.8182C148.918 48.4508 148.58 46.4503 147.906 44.8168C147.243 43.1832 146.284 41.9463 145.029 41.1058C143.786 40.2654 142.289 39.8452 140.537 39.8452C138.797 39.8452 137.299 40.2654 136.045 41.1058C134.79 41.9463 133.825 43.1832 133.151 44.8168C132.488 46.4503 132.156 48.4508 132.156 50.8182C132.156 53.1856 132.488 55.1861 133.151 56.8196C133.825 58.4531 134.79 59.6901 136.045 60.5305C137.299 61.371 138.797 61.7912 140.537 61.7912C142.289 61.7912 143.786 61.371 145.029 60.5305C146.284 59.6901 147.243 58.4531 147.906 56.8196C148.58 55.1861 148.918 53.1856 148.918 50.8182ZM161.533 69V32.6364H176.555C179.277 32.6364 181.627 33.1276 183.604 34.1101C185.592 35.0807 187.125 36.4775 188.202 38.3004C189.28 40.1115 189.818 42.2599 189.818 44.7457C189.818 47.267 189.268 49.4096 188.167 51.1733C187.066 52.9252 185.504 54.2628 183.479 55.1861C181.455 56.0975 179.058 56.5533 176.288 56.5533H166.789V49.6286H174.655C175.981 49.6286 177.087 49.4569 177.975 49.1136C178.875 48.7585 179.555 48.2259 180.017 47.5156C180.479 46.7936 180.71 45.8703 180.71 44.7457C180.71 43.6212 180.479 42.692 180.017 41.9581C179.555 41.2124 178.875 40.656 177.975 40.2891C177.076 39.9103 175.969 39.7209 174.655 39.7209H170.322V69H161.533ZM182.006 52.3807L191.061 69H181.473L172.595 52.3807H182.006ZM193.139 69V32.6364H217.961V39.7741H201.928V47.2315H216.381V54.3871H201.928V69H193.139ZM255.209 50.8182C255.209 54.8191 254.439 58.2105 252.9 60.9922C251.362 63.7739 249.278 65.8868 246.65 67.331C244.034 68.7751 241.099 69.4972 237.844 69.4972C234.577 69.4972 231.635 68.7692 229.019 67.3132C226.403 65.8572 224.326 63.7443 222.787 60.9744C221.26 58.1927 220.496 54.8073 220.496 50.8182C220.496 46.8172 221.26 43.4259 222.787 40.6442C224.326 37.8625 226.403 35.7495 229.019 34.3054C231.635 32.8613 234.577 32.1392 237.844 32.1392C241.099 32.1392 244.034 32.8613 246.65 34.3054C249.278 35.7495 251.362 37.8625 252.9 40.6442C254.439 43.4259 255.209 46.8172 255.209 50.8182ZM246.224 50.8182C246.224 48.4508 245.887 46.4503 245.212 44.8168C244.549 43.1832 243.59 41.9463 242.336 41.1058C241.093 40.2654 239.595 39.8452 237.844 39.8452C236.104 39.8452 234.606 40.2654 233.351 41.1058C232.097 41.9463 231.132 43.1832 230.457 44.8168C229.794 46.4503 229.463 48.4508 229.463 50.8182C229.463 53.1856 229.794 55.1861 230.457 56.8196C231.132 58.4531 232.097 59.6901 233.351 60.5305C234.606 61.371 236.104 61.7912 237.844 61.7912C239.595 61.7912 241.093 61.371 242.336 60.5305C243.59 59.6901 244.549 58.4531 245.212 56.8196C245.887 55.1861 246.224 53.1856 246.224 50.8182ZM258.84 69V32.6364H273.861C276.584 32.6364 278.934 33.1276 280.91 34.1101C282.899 35.0807 284.432 36.4775 285.509 38.3004C286.586 40.1115 287.125 42.2599 287.125 44.7457C287.125 47.267 286.574 49.4096 285.474 51.1733C284.373 52.9252 282.81 54.2628 280.786 55.1861C278.762 56.0975 276.365 56.5533 273.595 56.5533H264.096V49.6286H271.961C273.287 49.6286 274.394 49.4569 275.282 49.1136C276.181 48.7585 276.862 48.2259 277.324 47.5156C277.785 46.7936 278.016 45.8703 278.016 44.7457C278.016 43.6212 277.785 42.692 277.324 41.9581C276.862 41.2124 276.181 40.656 275.282 40.2891C274.382 39.9103 273.275 39.7209 271.961 39.7209H267.629V69H258.84ZM279.312 52.3807L288.368 69H278.78L269.902 52.3807H279.312ZM52.7521 119V82.6364H67.9155C70.638 82.6364 72.9167 83.0211 74.7514 83.7905C76.598 84.5599 77.983 85.6371 78.9062 87.022C79.8414 88.407 80.3089 90.0109 80.3089 91.8338C80.3089 93.2188 80.0189 94.4557 79.4389 95.5447C78.8589 96.6219 78.0599 97.5156 77.0419 98.2259C76.0239 98.9361 74.8461 99.4332 73.5085 99.7173V100.072C74.9763 100.143 76.3317 100.54 77.5746 101.262C78.8293 101.984 79.8355 102.99 80.593 104.281C81.3506 105.559 81.7294 107.074 81.7294 108.826C81.7294 110.779 81.2322 112.525 80.2379 114.064C79.2436 115.591 77.8054 116.798 75.9233 117.686C74.0412 118.562 71.7566 119 69.0696 119H52.7521ZM61.5412 111.915H66.9744C68.8802 111.915 70.2829 111.554 71.1825 110.832C72.094 110.11 72.5497 109.104 72.5497 107.814C72.5497 106.879 72.3307 106.074 71.8928 105.399C71.4548 104.713 70.8333 104.186 70.0284 103.819C69.2235 103.44 68.2588 103.251 67.1342 103.251H61.5412V111.915ZM61.5412 97.5866H66.4062C67.3651 97.5866 68.2173 97.4268 68.9631 97.1072C69.7088 96.7876 70.2888 96.326 70.7031 95.7223C71.1293 95.1186 71.3423 94.3906 71.3423 93.5384C71.3423 92.3191 70.9103 91.3603 70.0462 90.6619C69.1821 89.9635 68.0161 89.6143 66.5483 89.6143H61.5412V97.5866ZM84.4553 119V82.6364H93.2443V111.862H108.372V119H84.4553ZM120.211 82.6364V119H111.422V82.6364H120.211ZM132.485 82.6364L140.617 109.27H140.919L149.051 82.6364H158.888L146.619 119H134.918L122.648 82.6364H132.485ZM161.303 119V82.6364H186.658V89.7741H170.092V97.2315H185.362V104.387H170.092V111.862H186.658V119H161.303ZM52.7521 169V132.636H77.5746V139.774H61.5412V147.232H75.9943V154.387H61.5412V169H52.7521ZM80.5002 169V132.636H95.5215C98.244 132.636 100.594 133.128 102.57 134.11C104.559 135.081 106.092 136.478 107.169 138.3C108.246 140.112 108.785 142.26 108.785 144.746C108.785 147.267 108.235 149.41 107.134 151.173C106.033 152.925 104.47 154.263 102.446 155.186C100.422 156.098 98.025 156.553 95.2551 156.553H85.7559V149.629H93.6216C94.9474 149.629 96.0542 149.457 96.9419 149.114C97.8416 148.759 98.5222 148.226 98.9838 147.516C99.4455 146.794 99.6763 145.87 99.6763 144.746C99.6763 143.621 99.4455 142.692 98.9838 141.958C98.5222 141.212 97.8416 140.656 96.9419 140.289C96.0423 139.91 94.9355 139.721 93.6216 139.721H89.2892V169H80.5002ZM100.972 152.381L110.028 169H100.44L91.562 152.381H100.972ZM120.895 132.636V169H112.106V132.636H120.895ZM133.169 132.636L141.301 159.27H141.603L149.735 132.636H159.571L147.302 169H135.601L123.332 132.636H133.169ZM170.776 132.636V169H161.987V132.636H170.776ZM174.793 169V132.636H183.582V161.862H198.71V169H174.793ZM201.76 169V132.636H210.549V161.862H225.677V169H201.76ZM237.516 132.636V169H228.727V132.636H237.516ZM265.397 144.515C265.196 143.769 264.9 143.112 264.509 142.544C264.119 141.964 263.639 141.473 263.071 141.07C262.503 140.668 261.852 140.366 261.118 140.165C260.384 139.952 259.579 139.845 258.703 139.845C256.939 139.845 255.412 140.271 254.122 141.124C252.844 141.976 251.855 143.219 251.157 144.852C250.459 146.474 250.109 148.445 250.109 150.765C250.109 153.097 250.447 155.085 251.121 156.731C251.796 158.376 252.773 159.631 254.051 160.495C255.33 161.359 256.88 161.791 258.703 161.791C260.313 161.791 261.674 161.531 262.787 161.01C263.911 160.477 264.764 159.726 265.344 158.755C265.924 157.784 266.214 156.642 266.214 155.328L267.847 155.523H259.005V149.114H274.683V153.925C274.683 157.181 273.991 159.968 272.606 162.288C271.233 164.608 269.339 166.39 266.924 167.633C264.521 168.876 261.757 169.497 258.632 169.497C255.164 169.497 252.116 168.746 249.488 167.242C246.86 165.739 244.812 163.596 243.344 160.815C241.877 158.021 241.143 154.707 241.143 150.871C241.143 147.888 241.587 145.243 242.474 142.935C243.362 140.615 244.599 138.65 246.185 137.04C247.783 135.43 249.63 134.211 251.725 133.382C253.832 132.554 256.099 132.139 258.526 132.139C260.633 132.139 262.592 132.441 264.403 133.045C266.226 133.648 267.835 134.501 269.232 135.602C270.641 136.702 271.783 138.01 272.659 139.526C273.535 141.041 274.08 142.704 274.293 144.515H265.397ZM285.199 157.867V157.139C285.199 155.127 285.365 153.523 285.697 152.327C286.04 151.132 286.537 150.173 287.188 149.451C287.839 148.717 288.632 148.048 289.567 147.445C290.313 146.971 290.976 146.492 291.556 146.006C292.148 145.509 292.615 144.977 292.959 144.408C293.302 143.84 293.474 143.195 293.474 142.473C293.474 141.775 293.308 141.159 292.976 140.626C292.645 140.094 292.189 139.685 291.609 139.401C291.041 139.105 290.408 138.957 289.709 138.957C289.011 138.957 288.354 139.117 287.738 139.437C287.135 139.756 286.638 140.212 286.247 140.804C285.868 141.384 285.673 142.088 285.661 142.917H277.493C277.529 140.431 278.103 138.395 279.216 136.809C280.34 135.223 281.826 134.051 283.672 133.293C285.519 132.524 287.555 132.139 289.78 132.139C292.219 132.139 294.385 132.518 296.279 133.276C298.185 134.033 299.682 135.152 300.771 136.631C301.86 138.111 302.405 139.922 302.405 142.065C302.405 143.473 302.168 144.716 301.694 145.793C301.221 146.871 300.558 147.823 299.706 148.652C298.865 149.469 297.877 150.214 296.741 150.889C295.853 151.41 295.113 151.955 294.521 152.523C293.941 153.091 293.503 153.742 293.207 154.476C292.911 155.198 292.763 156.086 292.763 157.139V157.867H285.199ZM289.123 169.515C287.845 169.515 286.75 169.065 285.839 168.165C284.939 167.266 284.495 166.177 284.507 164.898C284.495 163.644 284.939 162.572 285.839 161.685C286.75 160.785 287.845 160.335 289.123 160.335C290.343 160.335 291.414 160.785 292.337 161.685C293.26 162.572 293.728 163.644 293.74 164.898C293.728 165.751 293.503 166.526 293.065 167.224C292.639 167.923 292.077 168.479 291.378 168.893C290.692 169.308 289.94 169.515 289.123 169.515Z" fill="black"/>
</svg>
