<svg width="347" height="135" viewBox="0 0 347 135" fill="none" xmlns="http://www.w3.org/2000/svg">
<path d="M2 2H323V133H2V2Z" fill="white" stroke="black" stroke-width="4"/>
<path d="M51.0085 24.6364L59.1406 51.2699H59.4425L67.5746 24.6364H77.4112L65.142 61H53.4411L41.1719 24.6364H51.0085ZM88.6154 24.6364V61H79.8263V24.6364H88.6154ZM101.875 61V24.6364H110.664V39.2315H124.993V24.6364H133.764V61H124.993V46.3871H110.664V61H101.875ZM145.643 61H136.197L148.466 24.6364H160.167L172.437 61H162.991L154.45 33.7983H154.166L145.643 61ZM144.383 46.6889H164.127V53.3651H144.383V46.6889ZM174.852 61V24.6364H189.873C192.596 24.6364 194.945 25.1276 196.922 26.1101C198.911 27.0807 200.444 28.4775 201.521 30.3004C202.598 32.1115 203.137 34.2599 203.137 36.7457C203.137 39.267 202.586 41.4096 201.485 43.1733C200.384 44.9252 198.822 46.2628 196.798 47.1861C194.774 48.0975 192.377 48.5533 189.607 48.5533H180.107V41.6286H187.973C189.299 41.6286 190.406 41.4569 191.294 41.1136C192.193 40.7585 192.874 40.2259 193.335 39.5156C193.797 38.7936 194.028 37.8703 194.028 36.7457C194.028 35.6212 193.797 34.692 193.335 33.9581C192.874 33.2124 192.193 32.656 191.294 32.2891C190.394 31.9103 189.287 31.7209 187.973 31.7209H183.641V61H174.852ZM195.324 44.3807L204.379 61H194.791L185.914 44.3807H195.324ZM42.7521 111V74.6364H57.9155C60.638 74.6364 62.9167 75.0211 64.7514 75.7905C66.598 76.5599 67.983 77.6371 68.9062 79.022C69.8414 80.407 70.3089 82.0109 70.3089 83.8338C70.3089 85.2188 70.0189 86.4557 69.4389 87.5447C68.8589 88.6219 68.0599 89.5156 67.0419 90.2259C66.0239 90.9361 64.8461 91.4332 63.5085 91.7173V92.0724C64.9763 92.1435 66.3317 92.54 67.5746 93.2621C68.8293 93.9841 69.8355 94.9903 70.593 96.2805C71.3506 97.5589 71.7294 99.0741 71.7294 100.826C71.7294 102.779 71.2322 104.525 70.2379 106.064C69.2436 107.591 67.8054 108.798 65.9233 109.686C64.0412 110.562 61.7566 111 59.0696 111H42.7521ZM51.5412 103.915H56.9744C58.8802 103.915 60.2829 103.554 61.1825 102.832C62.094 102.11 62.5497 101.104 62.5497 99.8139C62.5497 98.8788 62.3307 98.0739 61.8928 97.3991C61.4548 96.7126 60.8333 96.1858 60.0284 95.8189C59.2235 95.4401 58.2588 95.2507 57.1342 95.2507H51.5412V103.915ZM51.5412 89.5866H56.4062C57.3651 89.5866 58.2173 89.4268 58.9631 89.1072C59.7088 88.7876 60.2888 88.326 60.7031 87.7223C61.1293 87.1186 61.3423 86.3906 61.3423 85.5384C61.3423 84.3191 60.9103 83.3603 60.0462 82.6619C59.1821 81.9635 58.0161 81.6143 56.5483 81.6143H51.5412V89.5866ZM74.4553 111V74.6364H89.4766C92.1991 74.6364 94.5488 75.1276 96.5256 76.1101C98.5142 77.0807 100.047 78.4775 101.124 80.3004C102.201 82.1115 102.74 84.2599 102.74 86.7457C102.74 89.267 102.19 91.4096 101.089 93.1733C99.9879 94.9252 98.4254 96.2628 96.4013 97.1861C94.3771 98.0975 91.9801 98.5533 89.2102 98.5533H79.7109V91.6286H87.5767C88.9025 91.6286 90.0092 91.4569 90.897 91.1136C91.7966 90.7585 92.4773 90.2259 92.9389 89.5156C93.4006 88.7936 93.6314 87.8703 93.6314 86.7457C93.6314 85.6212 93.4006 84.692 92.9389 83.9581C92.4773 83.2124 91.7966 82.656 90.897 82.2891C89.9974 81.9103 88.8906 81.7209 87.5767 81.7209H83.2443V111H74.4553ZM94.9276 94.3807L103.983 111H94.3949L85.517 94.3807H94.9276ZM128.06 74.6364H136.831V98.0916C136.831 100.802 136.186 103.164 134.896 105.176C133.606 107.177 131.806 108.727 129.498 109.828C127.19 110.917 124.509 111.462 121.455 111.462C118.365 111.462 115.667 110.917 113.358 109.828C111.05 108.727 109.257 107.177 107.978 105.176C106.7 103.164 106.061 100.802 106.061 98.0916V74.6364H114.85V97.3281C114.85 98.5829 115.122 99.7015 115.667 100.684C116.223 101.666 116.998 102.436 117.993 102.992C118.987 103.549 120.141 103.827 121.455 103.827C122.769 103.827 123.917 103.549 124.9 102.992C125.894 102.436 126.669 101.666 127.225 100.684C127.782 99.7015 128.06 98.5829 128.06 97.3281V74.6364ZM164.704 86.5149C164.502 85.7692 164.206 85.1122 163.816 84.544C163.425 83.964 162.946 83.4728 162.378 83.0703C161.809 82.6679 161.158 82.366 160.425 82.1648C159.691 81.9517 158.886 81.8452 158.01 81.8452C156.246 81.8452 154.719 82.2713 153.429 83.1236C152.15 83.9759 151.162 85.2187 150.464 86.8523C149.765 88.474 149.416 90.4448 149.416 92.7649C149.416 95.0968 149.753 97.0855 150.428 98.7308C151.103 100.376 152.079 101.631 153.358 102.495C154.636 103.359 156.187 103.791 158.01 103.791C159.62 103.791 160.981 103.531 162.094 103.01C163.218 102.477 164.07 101.726 164.65 100.755C165.23 99.7843 165.52 98.642 165.52 97.3281L167.154 97.5234H158.312V91.1136H173.99V95.9254C173.99 99.1806 173.297 101.968 171.912 104.288C170.539 106.608 168.645 108.39 166.231 109.633C163.828 110.876 161.064 111.497 157.939 111.497C154.47 111.497 151.422 110.746 148.795 109.242C146.167 107.739 144.119 105.596 142.651 102.815C141.183 100.021 140.449 96.7067 140.449 92.8714C140.449 89.8885 140.893 87.2429 141.781 84.9347C142.669 82.6146 143.906 80.6496 145.492 79.0398C147.09 77.4299 148.937 76.2107 151.032 75.3821C153.139 74.5535 155.406 74.1392 157.832 74.1392C159.939 74.1392 161.898 74.4411 163.709 75.0447C165.532 75.6484 167.142 76.5007 168.539 77.6016C169.948 78.7024 171.09 80.0104 171.966 81.5256C172.842 83.0407 173.386 84.7038 173.599 86.5149H164.704ZM186.912 111V74.6364H211.735V81.7741H195.701V89.2315H210.154V96.3871H195.701V111H186.912ZM248.982 92.8182C248.982 96.8191 248.213 100.21 246.674 102.992C245.135 105.774 243.052 107.887 240.424 109.331C237.808 110.775 234.872 111.497 231.617 111.497C228.35 111.497 225.408 110.769 222.792 109.313C220.176 107.857 218.099 105.744 216.56 102.974C215.033 100.193 214.27 96.8073 214.27 92.8182C214.27 88.8172 215.033 85.4259 216.56 82.6442C218.099 79.8625 220.176 77.7495 222.792 76.3054C225.408 74.8613 228.35 74.1392 231.617 74.1392C234.872 74.1392 237.808 74.8613 240.424 76.3054C243.052 77.7495 245.135 79.8625 246.674 82.6442C248.213 85.4259 248.982 88.8172 248.982 92.8182ZM239.998 92.8182C239.998 90.4508 239.66 88.4503 238.986 86.8168C238.323 85.1832 237.364 83.9463 236.109 83.1058C234.866 82.2654 233.369 81.8452 231.617 81.8452C229.877 81.8452 228.38 82.2654 227.125 83.1058C225.87 83.9463 224.905 85.1832 224.231 86.8168C223.568 88.4503 223.236 90.4508 223.236 92.8182C223.236 95.1856 223.568 97.1861 224.231 98.8196C224.905 100.453 225.87 101.69 227.125 102.531C228.38 103.371 229.877 103.791 231.617 103.791C233.369 103.791 234.866 103.371 236.109 102.531C237.364 101.69 238.323 100.453 238.986 98.8196C239.66 97.1861 239.998 95.1856 239.998 92.8182ZM252.613 111V74.6364H267.635C270.357 74.6364 272.707 75.1276 274.684 76.1101C276.672 77.0807 278.205 78.4775 279.282 80.3004C280.36 82.1115 280.898 84.2599 280.898 86.7457C280.898 89.267 280.348 91.4096 279.247 93.1733C278.146 94.9252 276.584 96.2628 274.559 97.1861C272.535 98.0975 270.138 98.5533 267.368 98.5533H257.869V91.6286H265.735C267.061 91.6286 268.167 91.4569 269.055 91.1136C269.955 90.7585 270.635 90.2259 271.097 89.5156C271.559 88.7936 271.79 87.8703 271.79 86.7457C271.79 85.6212 271.559 84.692 271.097 83.9581C270.635 83.2124 269.955 82.656 269.055 82.2891C268.156 81.9103 267.049 81.7209 265.735 81.7209H261.403V111H252.613ZM273.086 94.3807L282.141 111H272.553L263.675 94.3807H273.086Z" fill="black"/>
</svg>
