<svg width="262" height="159" viewBox="0 0 262 159" fill="none" xmlns="http://www.w3.org/2000/svg">
<path d="M2.75213 43V6.63636H17.9155C20.638 6.63636 22.9167 7.02107 24.7514 7.79048C26.598 8.55989 27.983 9.63707 28.9062 11.022C29.8414 12.407 30.3089 14.0109 30.3089 15.8338C30.3089 17.2188 30.0189 18.4557 29.4389 19.5447C28.8589 20.6219 28.0599 21.5156 27.0419 22.2259C26.0239 22.9361 24.8461 23.4332 23.5085 23.7173V24.0724C24.9763 24.1435 26.3317 24.54 27.5746 25.2621C28.8293 25.9841 29.8355 26.9903 30.593 28.2805C31.3506 29.5589 31.7294 31.0741 31.7294 32.826C31.7294 34.7791 31.2322 36.5251 30.2379 38.0639C29.2436 39.5909 27.8054 40.7983 25.9233 41.6861C24.0412 42.562 21.7566 43 19.0696 43H2.75213ZM11.5412 35.9155H16.9744C18.8802 35.9155 20.2829 35.5545 21.1825 34.8324C22.094 34.1103 22.5497 33.1042 22.5497 31.8139C22.5497 30.8788 22.3307 30.0739 21.8928 29.3991C21.4548 28.7126 20.8333 28.1858 20.0284 27.8189C19.2235 27.4401 18.2588 27.2507 17.1342 27.2507H11.5412V35.9155ZM11.5412 21.5866H16.4062C17.3651 21.5866 18.2173 21.4268 18.9631 21.1072C19.7088 20.7876 20.2888 20.326 20.7031 19.7223C21.1293 19.1186 21.3423 18.3906 21.3423 17.5384C21.3423 16.3191 20.9103 15.3603 20.0462 14.6619C19.1821 13.9635 18.0161 13.6143 16.5483 13.6143H11.5412V21.5866ZM34.4553 43V6.63636H43.2443V35.8622H58.3722V43H34.4553ZM70.2111 6.63636V43H61.4221V6.63636H70.2111ZM82.4851 6.63636L90.6172 33.2699H90.919L99.0511 6.63636H108.888L96.6186 43H84.9176L72.6484 6.63636H82.4851ZM120.545 43V6.63636H145.9V13.7741H129.334V21.2315H144.604V28.3871H129.334V35.8622H145.9V43H120.545ZM180.853 6.63636V43H173.395L158.924 22.0128H158.694V43H149.904V6.63636H157.468L171.779 27.5881H172.081V6.63636H180.853ZM16.1932 93H2.75213V56.6364H16.1754C19.8804 56.6364 23.0705 57.3643 25.7457 58.8203C28.4328 60.2644 30.5043 62.3478 31.9602 65.0703C33.4162 67.781 34.1442 71.0244 34.1442 74.8004C34.1442 78.5883 33.4162 81.8435 31.9602 84.5661C30.5161 87.2886 28.4505 89.3778 25.7635 90.8338C23.0765 92.2779 19.8864 93 16.1932 93ZM11.5412 85.5071H15.8558C17.8918 85.5071 19.6141 85.1638 21.0227 84.4773C22.4432 83.7789 23.5144 82.6484 24.2365 81.0859C24.9704 79.5116 25.3374 77.4164 25.3374 74.8004C25.3374 72.1844 24.9704 70.1011 24.2365 68.5504C23.5026 66.9879 22.4195 65.8634 20.9872 65.1768C19.5668 64.4785 17.8149 64.1293 15.7315 64.1293H11.5412V85.5071ZM37.7756 93V56.6364H63.1307V63.7741H46.5646V71.2315H61.8345V78.3871H46.5646V85.8622H63.1307V93H37.7756ZM67.1349 93V56.6364H75.924V85.8622H91.0518V93H67.1349ZM111.21 93H101.764L114.033 56.6364H125.734L138.003 93H128.557L120.017 65.7983H119.732L111.21 93ZM109.949 78.6889H129.693V85.3651H109.949V78.6889ZM140.418 93V56.6364H165.241V63.7741H149.207V71.2315H163.66V78.3871H149.207V93H140.418ZM2.75213 143V106.636H11.5412V121.232H25.87V106.636H34.6413V143H25.87V128.387H11.5412V143H2.75213ZM72.9762 124.818C72.9762 128.819 72.2068 132.21 70.668 134.992C69.1291 137.774 67.0458 139.887 64.418 141.331C61.802 142.775 58.8664 143.497 55.6112 143.497C52.3441 143.497 49.4026 142.769 46.7866 141.313C44.1706 139.857 42.0932 137.744 40.5543 134.974C39.0273 132.193 38.2638 128.807 38.2638 124.818C38.2638 120.817 39.0273 117.426 40.5543 114.644C42.0932 111.862 44.1706 109.75 46.7866 108.305C49.4026 106.861 52.3441 106.139 55.6112 106.139C58.8664 106.139 61.802 106.861 64.418 108.305C67.0458 109.75 69.1291 111.862 70.668 114.644C72.2068 117.426 72.9762 120.817 72.9762 124.818ZM63.9918 124.818C63.9918 122.451 63.6545 120.45 62.9798 118.817C62.3169 117.183 61.3581 115.946 60.1033 115.106C58.8604 114.265 57.363 113.845 55.6112 113.845C53.8711 113.845 52.3737 114.265 51.119 115.106C49.8642 115.946 48.8995 117.183 48.2248 118.817C47.5619 120.45 47.2305 122.451 47.2305 124.818C47.2305 127.186 47.5619 129.186 48.2248 130.82C48.8995 132.453 49.8642 133.69 51.119 134.531C52.3737 135.371 53.8711 135.791 55.6112 135.791C57.363 135.791 58.8604 135.371 60.1033 134.531C61.3581 133.69 62.3169 132.453 62.9798 130.82C63.6545 129.186 63.9918 127.186 63.9918 124.818ZM76.6076 143V106.636H85.3967V135.862H100.525V143H76.6076ZM117.015 143H103.574V106.636H116.998C120.703 106.636 123.893 107.364 126.568 108.82C129.255 110.264 131.327 112.348 132.782 115.07C134.238 117.781 134.966 121.024 134.966 124.8C134.966 128.588 134.238 131.844 132.782 134.566C131.338 137.289 129.273 139.378 126.586 140.834C123.899 142.278 120.709 143 117.015 143ZM112.363 135.507H116.678C118.714 135.507 120.436 135.164 121.845 134.477C123.265 133.779 124.337 132.648 125.059 131.086C125.793 129.512 126.16 127.416 126.16 124.8C126.16 122.184 125.793 120.101 125.059 118.55C124.325 116.988 123.242 115.863 121.809 115.177C120.389 114.478 118.637 114.129 116.554 114.129H112.363V135.507ZM138.598 143V106.636H163.953V113.774H147.387V121.232H162.657V128.387H147.387V135.862H163.953V143H138.598ZM166.768 113.774V106.636H197.503V113.774H186.476V143H177.812V113.774H166.768Z" fill="#F8FA10"/>
</svg>
