<svg width="325" height="135" viewBox="0 0 325 135" fill="none" xmlns="http://www.w3.org/2000/svg">
<path d="M2 2H323V133H2V2Z" fill="white" stroke="black" stroke-width="4"/>
<path d="M73.7521 51.6364H84.6364L93.8693 74.1506H94.2955L103.528 51.6364H114.413V88H105.854V65.6634H105.553L96.8168 87.7692H91.348L82.6122 65.5391H82.3104V88H73.7521V51.6364ZM118.395 88V51.6364H143.75V58.7741H127.184V66.2315H142.454V73.3871H127.184V80.8622H143.75V88H118.395ZM147.754 88V51.6364H162.775C165.498 51.6364 167.848 52.1276 169.824 53.1101C171.813 54.0807 173.346 55.4775 174.423 57.3004C175.5 59.1115 176.039 61.2599 176.039 63.7457C176.039 66.267 175.488 68.4096 174.388 70.1733C173.287 71.9252 171.724 73.2628 169.7 74.1861C167.676 75.0975 165.279 75.5533 162.509 75.5533H153.01V68.6286H160.876C162.201 68.6286 163.308 68.4569 164.196 68.1136C165.095 67.7585 165.776 67.2259 166.238 66.5156C166.699 65.7936 166.93 64.8703 166.93 63.7457C166.93 62.6212 166.699 61.692 166.238 60.9581C165.776 60.2124 165.095 59.656 164.196 59.2891C163.296 58.9103 162.189 58.7209 160.876 58.7209H156.543V88H147.754ZM168.226 71.3807L177.282 88H167.694L158.816 71.3807H168.226ZM212.367 64.8111H203.49C203.371 63.8996 203.128 63.0769 202.762 62.343C202.395 61.6091 201.909 60.9818 201.306 60.4609C200.702 59.9401 199.986 59.5436 199.157 59.2713C198.34 58.9872 197.435 58.8452 196.441 58.8452C194.677 58.8452 193.156 59.2772 191.877 60.1413C190.611 61.0054 189.634 62.2543 188.948 63.8878C188.273 65.5213 187.936 67.4981 187.936 69.8182C187.936 72.233 188.279 74.2571 188.965 75.8906C189.664 77.5123 190.64 78.7375 191.895 79.5661C193.162 80.3828 194.659 80.7912 196.387 80.7912C197.358 80.7912 198.24 80.6669 199.033 80.4183C199.838 80.1697 200.542 79.8087 201.146 79.3352C201.761 78.8499 202.264 78.264 202.655 77.5774C203.057 76.879 203.336 76.0919 203.49 75.2159L212.367 75.2692C212.213 76.879 211.746 78.4652 210.965 80.0277C210.195 81.5902 209.136 83.0166 207.786 84.3068C206.437 85.5852 204.792 86.6032 202.85 87.3608C200.921 88.1184 198.707 88.4972 196.21 88.4972C192.919 88.4972 189.972 87.7751 187.367 86.331C184.775 84.875 182.727 82.7562 181.224 79.9744C179.721 77.1927 178.969 73.8073 178.969 69.8182C178.969 65.8172 179.732 62.4259 181.259 59.6442C182.786 56.8625 184.852 54.7495 187.456 53.3054C190.06 51.8613 192.978 51.1392 196.21 51.1392C198.411 51.1392 200.447 51.447 202.318 52.0625C204.188 52.6662 205.833 53.554 207.254 54.7259C208.674 55.8859 209.828 57.3123 210.716 59.005C211.604 60.6977 212.154 62.633 212.367 64.8111ZM215.897 88V51.6364H224.686V66.2315H239.015V51.6364H247.786V88H239.015V73.3871H224.686V88H215.897Z" fill="black"/>
</svg>
