<svg width="173" height="61" viewBox="0 0 173 61" fill="none" xmlns="http://www.w3.org/2000/svg">
<g filter="url(#filter0_d_89_10903)">
<path d="M4 0H168.579V53H4V0Z" fill="white"/>
<path d="M66.1009 32V17.4545H69.6165V23.6051H69.8082L74.6165 17.4545H78.7571L73.6009 23.946L78.8494 32H74.6449L71.0227 26.2827L69.6165 28.0582V32H66.1009ZM80.9501 32.7315L79.4586 31.723L89.9842 16.7514L91.4685 17.7599L80.9501 32.7315ZM92.4131 24.7273C92.4131 26.3277 92.1054 27.6842 91.4898 28.7969C90.8743 29.9096 90.041 30.7547 88.9898 31.3324C87.9434 31.91 86.7692 32.1989 85.4671 32.1989C84.1603 32.1989 82.9837 31.9077 81.9373 31.3253C80.8909 30.7429 80.0599 29.8977 79.4444 28.7898C78.8336 27.6771 78.5282 26.3229 78.5282 24.7273C78.5282 23.1269 78.8336 21.7704 79.4444 20.6577C80.0599 19.545 80.8909 18.6998 81.9373 18.1222C82.9837 17.5445 84.1603 17.2557 85.4671 17.2557C86.7692 17.2557 87.9434 17.5445 88.9898 18.1222C90.041 18.6998 90.8743 19.545 91.4898 20.6577C92.1054 21.7704 92.4131 23.1269 92.4131 24.7273ZM88.8194 24.7273C88.8194 23.7803 88.6844 22.9801 88.4146 22.3267C88.1494 21.6733 87.7659 21.1785 87.264 20.8423C86.7668 20.5062 86.1679 20.3381 85.4671 20.3381C84.7711 20.3381 84.1721 20.5062 83.6702 20.8423C83.1683 21.1785 82.7825 21.6733 82.5126 22.3267C82.2474 22.9801 82.1148 23.7803 82.1148 24.7273C82.1148 25.6742 82.2474 26.4744 82.5126 27.1278C82.7825 27.7812 83.1683 28.276 83.6702 28.6122C84.1721 28.9484 84.7711 29.1165 85.4671 29.1165C86.1679 29.1165 86.7668 28.9484 87.264 28.6122C87.7659 28.276 88.1494 27.7812 88.4146 27.1278C88.6844 26.4744 88.8194 25.6742 88.8194 24.7273ZM93.8657 32V17.4545H99.931C101.02 17.4545 101.932 17.6084 102.665 17.9162C103.404 18.224 103.958 18.6548 104.327 19.2088C104.701 19.7628 104.888 20.4044 104.888 21.1335C104.888 21.6875 104.772 22.1823 104.54 22.6179C104.308 23.0488 103.989 23.4062 103.582 23.6903C103.174 23.9744 102.703 24.1733 102.168 24.2869V24.429C102.755 24.4574 103.298 24.616 103.795 24.9048C104.297 25.1937 104.699 25.5961 105.002 26.1122C105.305 26.6236 105.457 27.2296 105.457 27.9304C105.457 28.7116 105.258 29.41 104.86 30.0256C104.462 30.6364 103.887 31.1193 103.134 31.4744C102.381 31.8248 101.467 32 100.393 32H93.8657ZM97.3813 29.1662H99.5546C100.317 29.1662 100.878 29.0218 101.238 28.733C101.602 28.4441 101.785 28.0417 101.785 27.5256C101.785 27.1515 101.697 26.8295 101.522 26.5597C101.347 26.285 101.098 26.0743 100.776 25.9276C100.454 25.776 100.068 25.7003 99.6185 25.7003H97.3813V29.1662ZM97.3813 23.4347H99.3273C99.7109 23.4347 100.052 23.3707 100.35 23.2429C100.648 23.1151 100.88 22.9304 101.046 22.6889C101.217 22.4474 101.302 22.1562 101.302 21.8153C101.302 21.3277 101.129 20.9441 100.783 20.6648C100.438 20.3854 99.9713 20.2457 99.3842 20.2457H97.3813V23.4347Z" fill="black"/>
</g>
<defs>
<filter id="filter0_d_89_10903" x="0" y="0" width="172.578" height="61" filterUnits="userSpaceOnUse" color-interpolation-filters="sRGB">
<feFlood flood-opacity="0" result="BackgroundImageFix"/>
<feColorMatrix in="SourceAlpha" type="matrix" values="0 0 0 0 0 0 0 0 0 0 0 0 0 0 0 0 0 0 127 0" result="hardAlpha"/>
<feOffset dy="4"/>
<feGaussianBlur stdDeviation="2"/>
<feComposite in2="hardAlpha" operator="out"/>
<feColorMatrix type="matrix" values="0 0 0 0 0 0 0 0 0 0 0 0 0 0 0 0 0 0 0.25 0"/>
<feBlend mode="normal" in2="BackgroundImageFix" result="effect1_dropShadow_89_10903"/>
<feBlend mode="normal" in="SourceGraphic" in2="effect1_dropShadow_89_10903" result="shape"/>
</filter>
</defs>
</svg>
